<?xml version="1.0" standalone="no"?>
<!DOCTYPE svg PUBLIC "-//W3C//DTD SVG 20010904//EN"
 "http://www.w3.org/TR/2001/REC-SVG-20010904/DTD/svg10.dtd">
<svg version="1.0" xmlns="http://www.w3.org/2000/svg"
 width="3000.000000pt" height="2000.000000pt" viewBox="0 0 3000.000000 2000.000000"
 preserveAspectRatio="xMidYMid meet">

<g transform="translate(0.000000,2000.000000) scale(0.100000,-0.100000)"
fill="#000000" stroke="none">
<path d="M245 12469 c-11 -16 -1 -19 13 -3 7 8 8 14 3 14 -5 0 -13 -5 -16 -11z"/>
<path d="M310 12449 c0 -5 5 -7 10 -4 6 3 10 8 10 11 0 2 -4 4 -10 4 -5 0 -10
-5 -10 -11z"/>
<path d="M285 12430 c-3 -5 -1 -10 4 -10 6 0 11 5 11 10 0 6 -2 10 -4 10 -3 0
-8 -4 -11 -10z"/>
<path d="M160 12361 c0 -6 5 -13 10 -16 6 -3 10 1 10 9 0 9 -4 16 -10 16 -5 0
-10 -4 -10 -9z"/>
<path d="M92 12300 c-7 -11 -9 -20 -4 -20 10 0 32 22 32 32 0 15 -15 8 -28
-12z"/>
<path d="M148 12283 c-16 -2 -28 -9 -28 -14 0 -11 39 -2 55 12 5 5 7 8 5 8 -3
-1 -17 -4 -32 -6z"/>
<path d="M20 12219 c0 -11 4 -17 10 -14 6 4 10 -5 10 -20 0 -15 -4 -24 -10
-20 -15 9 -12 -1 4 -18 9 -9 11 -19 5 -28 -7 -12 -9 -11 -9 2 0 9 -7 23 -16
30 -15 12 -16 11 -9 -11 4 -14 13 -31 20 -39 11 -11 15 -10 26 10 6 13 15 26
19 29 4 3 14 19 23 37 9 17 24 38 33 47 14 15 14 16 -3 13 -10 -1 -23 -6 -30
-10 -6 -4 -14 -3 -18 3 -3 5 -17 10 -31 10 -18 0 -24 -5 -24 -21z m78 -14 c-6
-13 -14 -22 -19 -20 -4 3 -10 1 -14 -5 -3 -5 -1 -10 6 -10 10 0 10 -3 1 -12
-17 -17 -25 -4 -17 31 4 19 11 28 20 25 7 -3 16 -1 20 5 12 20 15 11 3 -14z"/>
<path d="M1 12084 c0 -11 3 -14 6 -6 3 7 2 16 -1 19 -3 4 -6 -2 -5 -13z"/>
<path d="M5 12049 c-4 -6 -5 -12 -2 -15 2 -3 7 2 10 11 7 17 1 20 -8 4z"/>
<path d="M3414 10789 c0 -10 4 -19 8 -19 4 0 8 6 8 14 0 8 -4 17 -8 20 -4 2
-8 -4 -8 -15z"/>
<path d="M3488 10783 c6 -2 18 -2 25 0 6 3 1 5 -13 5 -14 0 -19 -2 -12 -5z"/>
<path d="M3950 10786 c0 -2 11 -6 25 -8 14 -3 25 -1 25 3 0 5 -11 9 -25 9 -14
0 -25 -2 -25 -4z"/>
<path d="M3903 10773 c9 -2 23 -2 30 0 6 3 -1 5 -18 5 -16 0 -22 -2 -12 -5z"/>
<path d="M11886 9284 c-3 -9 -4 -19 -1 -22 3 -3 5 1 5 9 0 11 2 11 10 -1 5 -8
10 -10 10 -5 0 6 -4 16 -9 23 -6 11 -10 10 -15 -4z"/>
<path d="M11915 9180 c-3 -6 1 -7 9 -4 18 7 21 14 7 14 -6 0 -13 -4 -16 -10z"/>
<path d="M11908 9153 c7 -3 16 -2 19 1 4 3 -2 6 -13 5 -11 0 -14 -3 -6 -6z"/>
<path d="M13247 8926 c-10 -25 -9 -38 3 -31 6 3 10 1 10 -6 0 -7 2 -10 5 -8 2
3 1 18 -3 34 -7 24 -9 26 -15 11z"/>
<path d="M13481 8856 c2 -2 27 -6 54 -10 34 -4 45 -3 35 4 -14 9 -99 15 -89 6z"/>
<path d="M13740 8750 c-9 -6 -10 -10 -3 -10 6 0 15 5 18 10 8 12 4 12 -15 0z"/>
<path d="M14195 8700 c-3 -6 1 -7 9 -4 18 7 21 14 7 14 -6 0 -13 -4 -16 -10z"/>
<path d="M13810 8686 c0 -2 8 -10 18 -17 15 -13 16 -12 3 4 -13 16 -21 21 -21
13z"/>
<path d="M14115 8660 c-3 -6 1 -7 9 -4 18 7 21 14 7 14 -6 0 -13 -4 -16 -10z"/>
<path d="M13885 8631 c-3 -7 0 -8 9 -5 17 7 22 -11 6 -19 -6 -3 -5 -4 2 -3 16
3 17 28 1 33 -6 2 -14 -1 -18 -6z"/>
<path d="M14040 8619 c0 -6 -10 -20 -22 -31 -20 -17 -18 -17 10 2 18 12 30 26
27 31 -8 12 -15 11 -15 -2z"/>
<path d="M13950 8546 c7 -7 13 -7 20 0 6 6 3 10 -10 10 -13 0 -16 -4 -10 -10z"/>
<path d="M17435 8469 c-4 -6 -5 -12 -2 -15 2 -3 7 2 10 11 7 17 1 20 -8 4z"/>
<path d="M3255 7810 c10 -11 20 -20 23 -20 3 0 -3 9 -13 20 -10 11 -20 20 -23
20 -3 0 3 -9 13 -20z"/>
<path d="M3335 7790 c3 -5 8 -10 11 -10 2 0 4 5 4 10 0 6 -5 10 -11 10 -5 0
-7 -4 -4 -10z"/>
<path d="M3310 7765 c13 -14 28 -25 33 -25 6 0 -2 11 -17 25 -15 14 -30 25
-33 25 -4 0 4 -11 17 -25z"/>
<path d="M3410 7711 c0 -17 5 -31 11 -31 5 0 7 -5 3 -12 -4 -6 -3 -8 3 -5 11
7 5 65 -8 73 -5 3 -9 -9 -9 -25z"/>
<path d="M3380 7705 c7 -9 15 -13 17 -11 7 7 -7 26 -19 26 -6 0 -6 -6 2 -15z"/>
<path d="M3453 7663 c-3 -7 3 -25 13 -42 16 -27 21 -29 58 -24 23 3 38 2 35
-1 -3 -3 -17 -7 -31 -8 -17 -1 -24 -7 -21 -16 3 -7 8 -11 10 -8 3 3 14 -5 24
-17 20 -24 25 -17 9 14 -8 15 -7 19 5 19 8 0 15 4 15 10 0 5 7 7 15 4 11 -5
15 1 15 19 0 22 -5 25 -39 29 -22 2 -37 0 -35 -4 3 -5 1 -8 -4 -8 -15 0 -22
26 -9 39 7 7 1 10 -23 8 -18 -1 -35 -7 -37 -14z m32 -13 c3 -5 1 -10 -4 -10
-6 0 -11 5 -11 10 0 6 2 10 4 10 3 0 8 -4 11 -10z"/>
<path d="M3590 7485 c19 -22 36 -42 38 -44 1 -2 2 2 1 10 0 8 -17 27 -37 43
l-37 30 35 -39z"/>
<path d="M3610 7506 c0 -2 7 -7 16 -10 8 -3 12 -2 9 4 -6 10 -25 14 -25 6z"/>
<path d="M7148 7353 c6 -2 18 -2 25 0 6 3 1 5 -13 5 -14 0 -19 -2 -12 -5z"/>
<path d="M7228 7353 c7 -3 16 -2 19 1 4 3 -2 6 -13 5 -11 0 -14 -3 -6 -6z"/>
<path d="M7197 7339 c7 -7 15 -10 18 -7 3 3 -2 9 -12 12 -14 6 -15 5 -6 -5z"/>
<path d="M3720 7322 c0 -5 7 -15 15 -22 8 -7 15 -9 15 -6 0 4 -7 14 -15 22 -8
9 -15 11 -15 6z"/>
<path d="M7240 7321 c8 -5 26 -12 40 -15 l25 -7 -25 15 c-14 9 -32 15 -40 15
-13 0 -13 -1 0 -8z"/>
<path d="M7390 7257 c25 -13 47 -19 48 -15 2 4 11 8 21 8 9 0 26 6 37 14 17
13 15 14 -28 13 -25 -1 -41 -5 -35 -9 6 -4 8 -10 5 -13 -4 -4 -17 0 -30 9 -12
9 -32 16 -43 16 -13 0 -4 -8 25 -23z"/>
<path d="M7450 7231 c0 -6 5 -11 12 -11 6 0 20 -8 31 -17 20 -19 107 -26 107
-10 0 5 -17 7 -37 5 -27 -3 -42 0 -53 13 -18 21 -60 35 -60 20z"/>
<path d="M7680 7215 c0 -8 -8 -15 -17 -15 -17 -1 -17 -1 0 -14 16 -12 11 -14
-42 -12 -34 1 -61 -1 -61 -5 0 -4 16 -14 35 -23 19 -9 37 -21 40 -27 4 -5 23
-21 43 -34 73 -48 129 -91 172 -130 93 -85 208 -202 250 -255 25 -30 47 -57
51 -60 6 -5 124 -179 146 -215 6 -11 27 -49 45 -85 18 -36 34 -67 35 -69 1 -2
22 14 46 35 69 60 181 134 245 160 31 13 56 27 55 31 -1 5 15 8 35 9 20 0 38
6 40 12 2 6 9 9 16 6 7 -3 33 2 57 10 24 8 65 17 91 20 25 2 51 7 57 10 5 4
12 2 16 -4 3 -5 13 -10 21 -10 10 0 14 12 14 43 0 49 -13 79 -24 52 -3 -9 -5
-26 -5 -38 1 -17 3 -15 9 8 7 28 8 27 9 -12 1 -50 -14 -57 -24 -12 -5 23 -9
28 -16 18 -6 -10 -9 -7 -9 11 0 20 -2 22 -10 10 -6 -10 -10 -11 -10 -2 0 6 -7
12 -15 12 -8 0 -15 5 -15 11 0 6 -11 20 -25 31 -14 11 -25 25 -25 33 0 7 -7
18 -15 25 -12 10 -15 10 -15 -4 0 -9 -5 -15 -11 -13 -17 3 -69 57 -69 71 0 24
-55 85 -77 86 -21 0 -83 53 -83 71 0 5 -36 9 -80 9 -64 0 -80 3 -80 15 0 11
-11 15 -40 15 -22 0 -40 5 -40 10 0 6 -18 10 -40 10 -43 0 -43 -1 -41 75 0 22
-2 34 -5 28 -4 -9 -30 -13 -80 -13 l-74 0 0 -30 c0 -28 -2 -30 -40 -30 -36 0
-40 3 -40 25 0 25 -1 25 -80 25 -64 0 -80 3 -80 15 0 11 11 15 40 15 29 0 40
4 40 15 0 12 -16 15 -80 15 -47 0 -80 4 -80 10 0 6 -18 10 -40 10 -38 0 -40 2
-40 30 0 28 -2 30 -40 30 -29 0 -40 -4 -40 -15z m30 -115 c0 -5 -4 -10 -10
-10 -5 0 -10 5 -10 10 0 6 5 10 10 10 6 0 10 -4 10 -10z m97 -66 c-3 -3 -12
-4 -19 -1 -8 3 -5 6 6 6 11 1 17 -2 13 -5z m960 -520 c-3 -3 -12 -4 -19 -1 -8
3 -5 6 6 6 11 1 17 -2 13 -5z"/>
<path d="M4397 7179 c7 -7 15 -10 18 -7 3 3 -2 9 -12 12 -14 6 -15 5 -6 -5z"/>
<path d="M4278 7163 c7 -3 16 -2 19 1 4 3 -2 6 -13 5 -11 0 -14 -3 -6 -6z"/>
<path d="M3860 7099 c13 -24 21 -25 14 -1 -5 14 -3 14 10 -2 9 -11 16 -14 16
-7 0 7 5 9 10 6 6 -3 10 -1 10 5 0 7 -6 10 -14 7 -8 -3 -17 -3 -20 1 -4 3 -13
7 -21 8 -12 2 -12 -2 -5 -17z"/>
<path d="M3928 7095 c-5 -22 -3 -24 11 -13 9 7 17 13 19 14 1 1 -4 6 -12 13
-11 9 -15 7 -18 -14z"/>
<path d="M3990 7110 c-9 -6 -10 -10 -3 -10 6 0 15 5 18 10 8 12 4 12 -15 0z"/>
<path d="M9398 7113 c7 -3 16 -2 19 1 4 3 -2 6 -13 5 -11 0 -14 -3 -6 -6z"/>
<path d="M9672 7104 c-11 -12 -10 -15 3 -20 9 -4 26 -1 38 5 20 10 20 11 -7 6
-26 -6 -28 -4 -17 9 17 20 0 20 -17 0z"/>
<path d="M9730 7110 c20 -13 33 -13 25 0 -3 6 -14 10 -23 10 -15 0 -15 -2 -2
-10z"/>
<path d="M4030 7100 c-18 -12 -2 -12 25 0 13 6 15 9 5 9 -8 0 -22 -4 -30 -9z"/>
<path d="M9358 7103 c7 -3 16 -2 19 1 4 3 -2 6 -13 5 -11 0 -14 -3 -6 -6z"/>
<path d="M9448 7103 c7 -3 16 -2 19 1 4 3 -2 6 -13 5 -11 0 -14 -3 -6 -6z"/>
<path d="M9314 7084 c-18 -14 -18 -15 4 -4 12 6 22 13 22 15 0 8 -5 6 -26 -11z"/>
<path d="M9398 7093 c7 -3 16 -2 19 1 4 3 -2 6 -13 5 -11 0 -14 -3 -6 -6z"/>
<path d="M3955 7070 c-13 -6 -15 -9 -5 -9 8 0 22 4 30 9 18 12 2 12 -25 0z"/>
<path d="M3897 7057 c-3 -8 3 -14 16 -15 12 0 17 2 12 6 -6 4 -13 11 -16 15
-4 4 -9 2 -12 -6z"/>
<path d="M9837 7050 c-3 -11 -1 -18 4 -14 5 3 9 1 9 -5 0 -5 -6 -11 -12 -14
-7 -2 -9 -8 -5 -13 4 -5 12 -2 16 5 5 8 14 10 21 6 9 -6 9 -9 -1 -16 -11 -7
-8 -14 12 -35 16 -15 29 -22 33 -16 3 6 -3 13 -14 17 -18 6 -29 25 -13 25 10
0 63 -62 63 -74 0 -6 -5 -5 -12 2 -19 19 -33 14 -15 -6 8 -9 27 -41 40 -70 14
-29 27 -48 29 -42 2 6 4 -6 5 -27 1 -48 5 -66 18 -75 15 -12 27 -9 19 3 -4 8
1 9 15 4 12 -4 27 -3 34 2 7 5 25 10 42 11 16 1 56 9 90 17 68 17 281 24 370
12 116 -15 367 -79 392 -99 7 -6 20 -8 28 -4 9 3 13 2 10 -4 -3 -6 -1 -11 4
-11 6 -1 15 -2 19 -3 34 -5 299 -173 342 -216 3 -3 22 -19 42 -37 61 -52 177
-183 227 -258 92 -135 159 -283 205 -450 l22 -79 95 -12 c108 -14 158 -30 245
-79 153 -86 259 -237 298 -427 l6 -27 63 28 c150 68 384 89 567 51 161 -33
338 -123 449 -230 l44 -42 48 50 c88 91 206 142 329 142 138 0 252 -50 347
-154 l58 -63 30 19 c117 74 304 150 451 183 112 25 368 31 497 11 257 -41 536
-174 704 -336 29 -27 55 -50 57 -50 2 0 15 19 29 43 80 134 265 342 432 485
259 221 542 373 870 466 134 39 190 50 349 71 126 17 419 20 551 5 328 -37
694 -163 959 -330 35 -22 66 -40 70 -40 3 0 6 39 6 88 0 137 37 296 95 413 31
62 124 204 154 235 11 12 17 25 14 28 -4 3 1 6 10 6 22 0 21 9 0 27 -16 13
-16 13 3 4 18 -9 29 -3 75 39 30 27 57 49 61 50 4 0 5 8 2 18 -5 13 -4 14 4 3
8 -12 16 -10 42 12 17 15 35 27 39 27 5 0 7 10 4 23 -4 27 42 66 59 49 6 -6
17 -8 26 -5 10 5 13 2 8 -6 -5 -7 -15 -10 -23 -7 -20 8 -53 -11 -53 -31 0 -15
2 -15 18 0 10 10 23 17 29 17 6 0 30 8 53 19 38 17 40 19 18 26 -33 10 -168
13 -168 2 0 -4 10 -5 21 -2 15 5 20 3 17 -5 -3 -9 -29 -12 -91 -11 -56 1 -87
-2 -87 -8 0 -7 -54 -11 -160 -11 -100 0 -160 4 -160 10 0 6 -33 10 -80 10
l-80 0 0 30 0 30 -80 0 c-64 0 -80 -3 -80 -15 0 -11 -11 -15 -40 -15 -29 0
-40 -4 -40 -15 0 -11 -11 -15 -40 -15 -29 0 -40 4 -40 15 0 13 -24 15 -160 15
-136 0 -160 -2 -160 -15 0 -11 -11 -15 -40 -15 -29 0 -40 4 -40 15 0 11 11 15
40 15 36 0 40 3 40 25 0 23 -4 25 -40 25 -22 0 -40 -4 -40 -10 0 -6 -33 -10
-80 -10 -79 0 -80 0 -80 25 l0 25 -240 0 -240 0 0 25 c0 23 -4 25 -40 25 -29
0 -40 4 -40 15 0 12 -16 15 -80 15 -64 0 -80 3 -80 15 0 13 -24 15 -160 15
-100 0 -160 4 -160 10 0 6 -33 10 -80 10 -64 0 -80 3 -80 15 0 12 -16 15 -80
15 -64 0 -80 -3 -80 -15 0 -11 -11 -15 -40 -15 -36 0 -40 -2 -40 -25 0 -22 -4
-25 -40 -25 -29 0 -40 4 -40 15 0 12 -16 15 -80 15 -47 0 -80 4 -80 10 0 6
-35 10 -84 10 -79 0 -86 -2 -105 -26 -12 -15 -21 -33 -21 -40 0 -25 -38 -36
-75 -23 -32 12 -49 39 -25 39 6 0 10 11 10 24 0 14 5 28 10 31 6 3 10 10 10
16 0 5 -4 9 -10 9 -5 0 -10 -7 -10 -15 0 -12 -17 -15 -90 -15 -73 0 -90 3 -90
15 0 12 16 15 80 15 64 0 80 3 80 15 0 13 -29 15 -200 15 -127 0 -200 4 -200
10 0 6 -33 10 -80 10 l-80 0 0 30 0 30 -200 0 c-127 0 -200 4 -200 10 0 6 -18
10 -40 10 -32 0 -46 -6 -65 -27 -13 -16 -25 -34 -25 -41 0 -7 -10 -16 -22 -21
-13 -5 -38 -24 -55 -41 -18 -18 -33 -27 -33 -22 0 6 -7 9 -15 6 -19 -8 -19 -2
0 43 8 19 15 42 15 51 0 8 11 30 26 49 26 35 24 45 -4 16 -16 -16 -17 -15 -23
18 l-6 34 -2 -32 -1 -33 -75 0 -75 0 0 30 0 30 -80 0 c-47 0 -80 4 -80 10 0 6
-33 10 -80 10 -47 0 -80 -4 -80 -10 0 -15 -97 -13 -103 3 -3 9 -7 9 -17 0 -21
-20 12 -41 71 -46 30 -2 14 -4 -36 -3 l-90 1 -72 -75 c-40 -41 -73 -69 -73
-61 0 8 -14 -5 -30 -27 -34 -47 -36 -48 -56 -28 -19 20 -18 31 7 47 13 9 22
27 24 49 2 30 7 36 34 45 24 7 34 17 38 39 4 20 15 32 34 39 18 7 29 19 31 36
4 25 2 26 -38 23 -35 -3 -43 -8 -48 -28 -6 -23 -11 -24 -81 -24 -43 0 -75 4
-75 10 0 6 -18 10 -40 10 -29 0 -40 4 -40 15 0 12 -15 15 -74 15 -41 0 -83 3
-93 6 -15 5 -15 4 -3 -5 8 -6 32 -11 53 -11 20 0 37 -4 37 -10 0 -5 -18 -10
-40 -10 -22 0 -40 -4 -40 -10 0 -5 -18 -10 -40 -10 -24 0 -40 5 -40 12 0 6
-13 0 -28 -15 -15 -15 -33 -27 -40 -27 -7 0 -12 -5 -12 -11 0 -14 -55 -69 -69
-69 -6 0 -11 -3 -11 -8 0 -4 -10 -12 -22 -17 -12 -6 -26 -19 -32 -30 -15 -27
-33 -45 -44 -45 -6 0 -13 -7 -16 -16 -3 -8 -10 -12 -16 -9 -15 9 -12 25 5 25
8 0 15 5 15 10 0 6 7 10 15 10 8 0 15 5 15 10 0 13 -6 13 -32 -2 -31 -18 -48
-35 -48 -47 0 -6 -9 -15 -19 -21 -26 -13 -41 8 -18 25 10 7 17 17 17 23 0 6
10 12 22 14 13 2 34 21 51 46 16 24 40 55 53 69 13 14 24 30 24 34 0 5 6 9 13
9 15 1 71 80 56 80 -6 0 -17 -7 -25 -15 -11 -11 -37 -15 -90 -15 -59 0 -74 3
-74 15 0 8 -4 15 -10 15 -5 0 -10 -7 -10 -15 0 -13 -91 -15 -755 -15 -664 0
-755 2 -755 15 0 13 51 15 400 15 349 0 400 2 400 15 0 12 -16 15 -80 15 -47
0 -80 4 -80 10 0 6 -33 10 -80 10 -47 0 -80 -4 -80 -10 0 -6 -33 -10 -80 -10
-79 0 -80 0 -80 25 l0 25 -200 0 c-171 0 -200 2 -200 15 0 13 -20 15 -120 15
-100 0 -120 -2 -120 -15 0 -11 -11 -15 -40 -15 -29 0 -40 4 -40 15 0 13 -33
15 -240 15 l-240 0 0 -55 0 -55 -40 0 -40 0 0 42 0 41 -200 -7 -200 -7 0 28 0
28 -80 0 c-44 0 -80 -3 -80 -7 0 -5 -36 -8 -80 -8 -47 0 -80 4 -80 10 0 6 -18
10 -39 10 -24 0 -41 5 -44 14 -3 8 -17 13 -37 11 -22 -2 -35 3 -43 16 -11 18
-27 19 -203 19 -183 0 -192 -1 -197 -20z m148 -12 l95 4 0 -26 c0 -26 0 -26
-81 -26 -71 0 -85 3 -110 24 -18 15 -24 26 -16 29 6 2 13 1 14 -2 2 -3 46 -4
98 -3z m-18 -84 c-3 -3 -12 -4 -19 -1 -8 3 -5 6 6 6 11 1 17 -2 13 -5z m27
-18 c-6 -15 -24 -23 -24 -11 0 8 24 34 28 30 1 -1 0 -10 -4 -19z m646 15 c0
-10 -97 -21 -181 -21 -46 0 -59 3 -59 15 0 13 20 15 120 15 66 0 120 -4 120
-9z m703 2 c-13 -2 -33 -2 -45 0 -13 2 -3 4 22 4 25 0 35 -2 23 -4z m257 -8
c0 -12 -16 -15 -80 -15 -64 0 -80 3 -80 15 0 12 16 15 80 15 64 0 80 -3 80
-15z m303 8 c-13 -2 -33 -2 -45 0 -13 2 -3 4 22 4 25 0 35 -2 23 -4z m-1023
-43 c0 -6 -33 -10 -80 -10 -47 0 -80 4 -80 10 0 6 33 10 80 10 47 0 80 -4 80
-10z m480 0 c0 -5 -18 -10 -40 -10 -22 0 -40 5 -40 10 0 6 18 10 40 10 22 0
40 -4 40 -10z m560 0 c0 -5 -18 -10 -40 -10 -22 0 -40 5 -40 10 0 6 18 10 40
10 22 0 40 -4 40 -10z m-1932 -36 c4 2 7 -7 7 -20 0 -13 -1 -24 -2 -24 -3 0
-33 63 -33 69 0 3 5 -2 11 -12 6 -9 13 -16 17 -13z m1852 -9 c0 -12 -20 -15
-120 -15 -100 0 -120 3 -120 15 0 13 20 15 120 15 100 0 120 -2 120 -15z
m1860 -69 c0 -3 -4 -8 -10 -11 -5 -3 -10 -1 -10 4 0 6 5 11 10 11 6 0 10 -2
10 -4z m1243 -3 c-13 -2 -33 -2 -45 0 -13 2 -3 4 22 4 25 0 35 -2 23 -4z
m-4260 -20 c-13 -2 -35 -2 -50 0 -16 2 -5 4 22 4 28 0 40 -2 28 -4z m-366 -9
c-3 -3 -12 -4 -19 -1 -8 3 -5 6 6 6 11 1 17 -2 13 -5z m270 0 c-3 -3 -12 -4
-19 -1 -8 3 -5 6 6 6 11 1 17 -2 13 -5z m60 -10 c-3 -3 -12 -4 -19 -1 -8 3 -5
6 6 6 11 1 17 -2 13 -5z m4793 -23 c0 -5 -14 -7 -30 -6 -17 1 -37 -4 -45 -12
-16 -16 -18 -13 -9 11 7 17 84 24 84 7z m-1893 -167 c-3 -3 -12 -4 -19 -1 -8
3 -5 6 6 6 11 1 17 -2 13 -5z m3573 -19 c0 -11 -11 -15 -40 -15 -29 0 -40 4
-40 15 0 11 11 15 40 15 29 0 40 -4 40 -15z m2930 -165 c18 -12 2 -12 -25 0
-13 6 -15 9 -5 9 8 0 22 -4 30 -9z m-210 -49 c0 -5 14 -14 30 -21 17 -7 29
-15 26 -17 -2 -2 -18 3 -35 11 -16 9 -46 16 -66 16 -19 0 -35 5 -35 10 0 6 18
10 40 10 22 0 40 -4 40 -9z m80 -21 c0 -5 -2 -10 -4 -10 -3 0 -8 5 -11 10 -3
6 -1 10 4 10 6 0 11 -4 11 -10z m-122 -90 c-17 -27 -34 -32 -34 -10 0 10 6 16
13 13 7 -3 13 0 13 6 0 6 5 11 10 11 6 0 5 -8 -2 -20z"/>
<path d="M9277 7039 c-9 -5 -23 -7 -30 -3 -6 4 -9 4 -5 -1 4 -4 3 -14 -3 -22
-17 -20 -4 -16 37 12 36 24 37 35 1 14z"/>
<path d="M9207 7029 c7 -7 15 -10 18 -7 3 3 -2 9 -12 12 -14 6 -15 5 -6 -5z"/>
<path d="M9790 7036 c0 -2 7 -7 16 -10 8 -3 12 -2 9 4 -6 10 -25 14 -25 6z"/>
<path d="M9200 7001 c0 -6 4 -13 10 -16 6 -3 7 1 4 9 -7 18 -14 21 -14 7z"/>
<path d="M9125 6950 c-6 -10 11 -50 21 -50 2 0 0 9 -6 21 -15 26 -4 38 13 15
12 -16 13 -16 13 1 0 20 -31 29 -41 13z"/>
<path d="M13840 6930 c0 -5 4 -10 9 -10 6 0 13 5 16 10 3 6 -1 10 -9 10 -9 0
-16 -4 -16 -10z"/>
<path d="M13120 6895 c0 -12 20 -15 120 -15 100 0 120 3 120 15 0 13 -20 15
-120 15 -100 0 -120 -2 -120 -15z"/>
<path d="M9123 6879 c-2 -23 3 -25 10 -4 4 8 3 16 -1 19 -4 3 -9 -4 -9 -15z"/>
<path d="M14665 6890 c-3 -5 1 -10 9 -10 9 0 16 5 16 10 0 6 -4 10 -9 10 -6 0
-13 -4 -16 -10z"/>
<path d="M14625 6870 c3 -5 8 -10 11 -10 2 0 4 5 4 10 0 6 -5 10 -11 10 -5 0
-7 -4 -4 -10z"/>
<path d="M9095 6829 c-4 -6 -5 -12 -2 -15 2 -3 7 2 10 11 7 17 1 20 -8 4z"/>
<path d="M14560 6810 c0 -5 5 -10 11 -10 5 0 7 5 4 10 -3 6 -8 10 -11 10 -2 0
-4 -4 -4 -10z"/>
<path d="M9071 6724 c0 -11 3 -14 6 -6 3 7 2 16 -1 19 -3 4 -6 -2 -5 -13z"/>
<path d="M20851 6724 c0 -11 3 -14 6 -6 3 7 2 16 -1 19 -3 4 -6 -2 -5 -13z"/>
<path d="M16595 6650 c-3 -5 1 -10 9 -10 9 0 16 5 16 10 0 6 -4 10 -9 10 -6 0
-13 -4 -16 -10z"/>
<path d="M14320 6630 c0 -5 5 -10 10 -10 6 0 10 5 10 10 0 6 -4 10 -10 10 -5
0 -10 -4 -10 -10z"/>
<path d="M20600 6471 c-47 -6 -65 -34 -25 -38 16 -1 16 -1 3 3 -33 10 -18 24
25 23 27 0 36 -3 24 -8 -15 -5 -12 -9 15 -18 67 -23 81 -26 74 -14 -4 6 -17
11 -29 11 -12 0 -29 5 -37 11 -11 8 -5 9 23 4 27 -4 37 -3 32 4 -3 6 0 11 7
12 7 0 4 4 -7 9 -22 10 -39 10 -105 1z m83 -8 c-7 -2 -21 -2 -30 0 -10 3 -4 5
12 5 17 0 24 -2 18 -5z"/>
<path d="M20743 6445 c0 -22 2 -30 4 -17 2 12 2 30 0 40 -3 9 -5 -1 -4 -23z"/>
<path d="M20245 6460 c18 -5 23 -8 11 -9 -11 0 -17 -4 -13 -7 3 -3 15 -3 28 1
17 6 19 9 8 16 -8 5 -25 8 -39 8 -23 -1 -23 -2 5 -9z"/>
<path d="M20488 6453 c6 -2 18 -2 25 0 6 3 1 5 -13 5 -14 0 -19 -2 -12 -5z"/>
<path d="M20160 6440 c0 -12 17 -12 45 0 17 7 15 9 -12 9 -18 1 -33 -3 -33 -9z"/>
<path d="M20317 6439 c7 -7 15 -10 18 -7 3 3 -2 9 -12 12 -14 6 -15 5 -6 -5z"/>
<path d="M20383 6443 c9 -2 25 -2 35 0 9 3 1 5 -18 5 -19 0 -27 -2 -17 -5z"/>
<path d="M20265 6430 c-3 -5 1 -10 9 -10 9 0 16 5 16 10 0 6 -4 10 -9 10 -6 0
-13 -4 -16 -10z"/>
<path d="M20185 6420 c-27 -7 -28 -8 -5 -8 14 0 34 3 45 8 25 11 2 11 -40 0z"/>
<path d="M0 6330 c0 -5 18 -10 40 -10 22 0 40 5 40 10 0 6 -18 10 -40 10 -22
0 -40 -4 -40 -10z"/>
<path d="M0 6129 l0 -161 29 -37 c15 -20 34 -47 41 -61 18 -35 27 -39 69 -29
78 18 332 32 476 26 146 -6 314 -25 425 -48 30 -6 73 -15 95 -19 58 -13 292
-86 350 -111 106 -44 324 -155 407 -206 49 -30 92 -52 97 -48 5 3 13 0 17 -6
5 -8 2 -10 -7 -5 -8 4 -3 -2 11 -13 14 -11 30 -19 37 -16 7 2 10 -2 7 -9 -3
-7 1 -16 8 -19 27 -10 194 -152 278 -236 161 -161 283 -313 376 -468 28 -47
56 -82 65 -83 9 0 38 7 65 15 57 17 217 20 284 4 25 -5 82 -28 127 -50 181
-89 312 -297 313 -494 l0 -50 224 0 c123 0 222 3 219 8 -9 15 39 93 74 120 31
23 45 27 105 27 69 0 98 -11 140 -52 27 -27 50 -79 45 -99 -3 -11 1 -26 10
-34 8 -8 10 -15 4 -15 -6 0 -11 -11 -11 -24 0 -17 7 -27 22 -32 53 -16 280
-134 362 -189 156 -102 270 -206 417 -377 l24 -28 51 48 c81 75 173 154 223
190 25 19 45 38 43 44 -1 5 2 7 7 4 14 -9 102 44 95 56 -4 7 -2 8 5 4 6 -4 32
3 57 15 51 26 69 45 33 34 -18 -5 -21 -4 -9 4 8 6 22 8 31 6 9 -3 42 6 75 21
32 14 68 30 79 34 11 5 56 21 100 35 44 15 87 29 95 32 8 3 22 7 30 8 8 2 26
6 40 9 54 14 127 27 170 32 25 3 79 10 120 16 41 6 125 11 185 11 83 0 97 2
55 7 l-55 6 40 5 40 6 -37 1 c-35 2 -38 4 -38 32 0 28 2 30 40 30 l40 0 0 40
0 40 40 0 40 0 0 40 0 40 -40 0 -40 0 0 120 c0 100 -2 120 -15 120 -11 0 -15
11 -15 40 0 36 -2 40 -25 40 -16 0 -25 6 -25 15 0 11 11 15 40 15 l40 0 0 65
c0 63 1 65 25 65 23 0 25 4 25 40 0 30 4 40 16 40 13 0 15 8 12 40 -2 22 -1
40 2 40 3 0 4 18 2 40 -3 32 -1 40 12 40 12 0 16 10 16 40 0 38 -2 40 -30 40
-29 0 -30 2 -30 43 0 31 -3 38 -10 27 -6 -10 -10 -11 -10 -2 0 6 -7 12 -15 12
-8 0 -15 -7 -15 -16 0 -14 -2 -15 -17 -3 -15 13 -15 14 0 17 24 5 21 21 -8 44
-14 11 -25 26 -25 34 0 8 -7 17 -15 20 -8 4 -15 12 -15 20 0 8 -10 15 -22 15
-85 5 -108 8 -126 18 -11 6 -54 11 -96 11 -49 0 -76 4 -78 12 -3 8 -16 4 -39
-13 -19 -13 -45 -24 -59 -24 -18 0 -25 -5 -25 -20 0 -13 -5 -19 -15 -16 -8 3
-34 6 -57 9 -42 4 -43 3 -43 -27 0 -30 -2 -31 -40 -31 l-40 0 0 -65 c0 -37 -4
-65 -10 -65 -5 0 -10 25 -10 55 0 54 0 55 -30 55 -30 0 -30 -1 -30 -55 0 -42
3 -55 15 -55 11 0 15 -11 15 -40 0 -29 -4 -40 -15 -40 -11 0 -15 -11 -15 -40
0 -29 4 -40 15 -40 11 0 15 -11 15 -40 0 -36 -2 -40 -25 -40 -22 0 -25 -4 -25
-39 0 -22 5 -43 10 -46 6 -3 10 -12 10 -18 0 -8 -3 -7 -9 2 -14 22 -70 -26
-70 -62 -1 -22 -8 -30 -41 -43 -22 -9 -40 -20 -40 -25 0 -5 -7 -6 -15 -3 -8 4
-27 -7 -45 -24 -26 -26 -40 -31 -105 -37 -79 -8 -103 -25 -35 -25 29 0 40 -4
40 -15 0 -12 -16 -15 -80 -15 l-80 0 0 30 c0 28 -2 30 -40 30 -36 0 -40 3 -40
24 0 13 5 26 12 28 9 3 9 6 0 12 -7 4 -12 2 -12 -3 0 -6 -18 -11 -40 -11 -29
0 -40 4 -40 15 0 11 -11 15 -40 15 -29 0 -40 -4 -40 -15 0 -11 11 -15 40 -15
29 0 40 -4 40 -15 0 -11 -11 -15 -40 -15 -22 0 -40 -4 -40 -10 0 -6 -33 -10
-80 -10 -64 0 -80 -3 -80 -15 0 -8 7 -15 15 -15 11 0 15 -11 15 -40 0 -29 -4
-40 -15 -40 -8 0 -15 -7 -15 -15 0 -12 -16 -15 -80 -15 -50 0 -80 -4 -80 -11
0 -7 -29 -9 -85 -7 -76 3 -85 1 -85 -14 0 -10 -4 -18 -10 -18 -14 0 -13 26 2
50 7 10 9 23 5 27 -5 4 -12 1 -17 -7 -14 -22 -12 -61 4 -79 17 -20 39 -84 26
-76 -6 4 -10 10 -10 14 0 5 -25 51 -56 102 -70 117 -107 196 -98 211 4 6 3 8
-3 5 -6 -4 -18 13 -28 36 -9 23 -24 58 -32 77 -28 65 -83 265 -105 380 -17 94
-22 162 -25 379 -2 146 -5 267 -8 269 -3 3 -5 -10 -6 -29 l-1 -34 -13 35 c-7
19 -14 27 -14 18 -1 -14 -10 -18 -41 -18 -22 0 -40 5 -40 10 0 6 -18 10 -40
10 -22 0 -40 -4 -40 -10 0 -5 18 -10 40 -10 22 0 40 -4 40 -10 0 -15 77 -12
83 3 3 6 5 -8 5 -33 0 -25 -2 -37 -5 -27 -3 12 -15 17 -44 17 -21 0 -39 5 -39
10 0 6 -47 10 -120 10 -73 0 -120 -4 -120 -10 0 -6 -33 -10 -80 -10 -47 0 -80
4 -80 10 0 13 -157 13 -162 0 -2 -7 -103 -11 -281 -12 -217 0 -277 -3 -277
-14 0 -10 -33 -11 -157 -7 -87 3 -159 10 -161 14 -2 5 -57 9 -123 9 -99 0
-119 -3 -119 -15 0 -10 -10 -15 -30 -15 -20 0 -30 5 -30 15 0 12 -17 15 -90
15 -73 0 -90 -3 -90 -15 0 -11 -11 -15 -40 -15 -29 0 -40 4 -40 15 0 12 -16
15 -88 15 -106 0 -122 11 -122 83 0 26 -4 47 -10 47 -5 0 -20 10 -31 21 -20
20 -20 23 -5 31 21 12 20 25 -3 33 -22 7 -34 41 -35 105 -1 25 -3 82 -4 128
l-2 82 -90 0 c-73 0 -90 3 -90 15 0 11 -11 15 -39 15 -22 0 -41 5 -43 12 -3 9
-62 12 -241 10 -208 -3 -237 -1 -237 13 0 12 -15 15 -80 15 -64 0 -80 3 -80
15 0 12 -16 15 -80 15 -47 0 -80 4 -80 10 0 6 -60 10 -160 10 -136 0 -160 2
-160 15 0 13 -20 15 -120 15 -100 0 -120 3 -120 15 0 11 -11 15 -40 15 -22 0
-40 5 -40 10 0 6 -47 10 -120 10 l-120 0 0 -161z m960 21 c0 -5 -18 -10 -40
-10 -22 0 -40 5 -40 10 0 6 18 10 40 10 22 0 40 -4 40 -10z m623 -47 c-13 -2
-33 -2 -45 0 -13 2 -3 4 22 4 25 0 35 -2 23 -4z m5150 -1318 c-3 -9 -8 -14
-10 -11 -3 3 -2 9 2 15 9 16 15 13 8 -4z m-1583 -505 c0 -29 -4 -40 -15 -40
-11 0 -15 11 -15 40 0 29 4 40 15 40 11 0 15 -11 15 -40z m130 25 c0 -11 -11
-15 -40 -15 -29 0 -40 4 -40 15 0 11 11 15 40 15 29 0 40 -4 40 -15z m-400
-80 c0 -13 -14 -15 -82 -13 -54 2 -83 7 -86 16 -3 9 18 12 82 12 71 0 86 -3
86 -15z m-122 -79 c-7 -8 -15 -12 -17 -11 -5 6 10 25 20 25 5 0 4 -6 -3 -14z
m20 -26 c-7 -10 -14 -18 -15 -16 -6 6 9 36 18 36 5 0 4 -9 -3 -20z m1862 -25
c0 -11 -11 -15 -40 -15 -29 0 -40 4 -40 15 0 11 11 15 40 15 29 0 40 -4 40
-15z m-472 -186 c-9 -6 -5 -9 12 -10 l25 -1 -25 -7 c-17 -5 -26 -3 -28 5 -2 7
-11 15 -20 17 -9 2 -2 4 16 4 22 0 29 -3 20 -8z m217 0 c-26 -10 -63 -11 -68
-1 -3 4 16 8 42 8 32 1 40 -1 26 -7z m-280 -9 c3 -6 -1 -7 -9 -4 -18 7 -21 14
-7 14 6 0 13 -4 16 -10z m155 -10 c-34 -11 -60 -11 -35 0 11 5 29 8 40 8 16 0
15 -2 -5 -8z m-330 -90 c-8 -5 -19 -10 -25 -10 -5 0 -3 5 5 10 8 5 20 10 25
10 6 0 3 -5 -5 -10z"/>
<path d="M5891 6116 c-7 -8 -11 -21 -8 -28 3 -8 6 -6 6 5 1 10 5 16 10 13 5
-4 8 -29 7 -57 -2 -29 0 -45 5 -37 10 16 10 76 0 101 -6 17 -8 17 -20 3z"/>
<path d="M6320 6120 c0 -6 -47 -10 -120 -10 -100 0 -120 -2 -120 -15 0 -11 11
-15 40 -15 29 0 40 -4 40 -15 0 -12 -16 -15 -80 -15 -64 0 -80 3 -80 15 0 10
-11 15 -35 15 -34 0 -35 -1 -35 -40 0 -22 -4 -40 -9 -40 -14 0 -21 -63 -24
-213 -1 -86 2 -137 8 -137 21 1 185 47 181 51 -2 2 10 4 27 5 18 0 84 6 147
13 186 20 408 -6 595 -69 50 -17 95 -32 100 -33 17 -5 170 -82 175 -89 3 -3
14 -8 24 -10 16 -2 23 7 36 52 21 71 63 155 101 203 17 20 25 37 20 37 -5 0
-13 -5 -17 -11 -5 -8 -10 -6 -16 5 -7 13 -17 15 -44 10 -29 -5 -33 -4 -28 11
5 12 9 13 14 5 4 -7 13 -9 19 -5 12 7 -9 26 -54 51 -11 6 -27 24 -35 40 -16
28 -19 29 -103 32 -48 1 -87 7 -87 12 0 6 -18 10 -40 10 -29 0 -40 4 -40 15 0
11 -11 15 -40 15 -29 0 -40 4 -40 15 0 11 -11 15 -40 15 -22 0 -40 5 -40 10 0
6 -33 10 -80 10 -86 0 -86 0 -81 58 2 19 -3 22 -39 22 -22 0 -40 -4 -40 -10 0
-5 -18 -10 -40 -10 -22 0 -40 5 -40 10 0 6 -18 10 -40 10 -22 0 -40 -4 -40
-10z m800 -216 c0 -14 -3 -14 -15 -4 -8 7 -15 14 -15 16 0 2 7 4 15 4 8 0 15
-7 15 -16z"/>
<path d="M5881 6023 c0 -16 4 -37 9 -48 5 -14 7 -6 6 27 0 27 -4 48 -8 48 -5
0 -8 -12 -7 -27z"/>
<path d="M7366 5894 c-5 -14 -4 -15 9 -4 17 14 19 20 6 20 -5 0 -12 -7 -15
-16z"/>
<path d="M7410 5899 c0 -5 5 -7 10 -4 6 3 10 8 10 11 0 2 -4 4 -10 4 -5 0 -10
-5 -10 -11z"/>
<path d="M7374 5868 l-19 -23 23 19 c21 18 27 26 19 26 -2 0 -12 -10 -23 -22z"/>
<path d="M7286 5824 c-5 -14 -4 -15 9 -4 17 14 19 20 6 20 -5 0 -12 -7 -15
-16z"/>
<path d="M27854 5828 c-3 -5 -10 -5 -16 -2 -7 4 -8 2 -4 -5 6 -9 11 -9 22 0
18 15 18 0 0 -24 -14 -18 -15 -18 -25 0 -6 10 -10 14 -10 8 0 -5 6 -18 13 -28
14 -18 14 -18 20 1 4 10 15 28 26 40 20 21 20 21 -1 19 -11 -1 -23 -5 -25 -9z"/>
<path d="M25690 5759 c0 -5 5 -7 10 -4 6 3 10 8 10 11 0 2 -4 4 -10 4 -5 0
-10 -5 -10 -11z"/>
<path d="M4371 5694 c0 -11 3 -14 6 -6 3 7 2 16 -1 19 -3 4 -6 -2 -5 -13z"/>
<path d="M2092 5643 c-17 -7 -5 -23 19 -23 10 0 19 7 19 15 0 15 -14 18 -38 8z"/>
<path d="M8588 5625 c-3 -3 -1 -23 4 -43 17 -59 3 -456 -21 -587 -50 -284
-124 -485 -273 -744 -57 -99 -148 -226 -214 -297 -101 -109 -136 -144 -188
-189 -32 -27 -77 -67 -101 -88 -24 -21 -49 -36 -55 -32 -6 4 -10 3 -9 -2 3
-20 -2 -27 -11 -13 -5 8 -12 11 -15 8 -4 -4 10 -18 31 -33 167 -112 233 -164
337 -264 111 -107 197 -209 277 -326 18 -27 36 -52 39 -55 15 -13 171 -319
171 -335 0 -17 -19 -1 -24 20 -4 14 -17 30 -29 34 -30 12 -67 49 -67 66 0 8
-4 15 -9 15 -5 0 -11 10 -13 23 -2 17 -8 21 -27 19 -29 -4 -71 16 -71 35 0 7
-18 26 -40 41 -21 15 -39 32 -40 38 0 7 -20 18 -45 26 -36 12 -54 13 -87 4
-24 -6 -45 -13 -48 -17 -13 -15 -52 -29 -84 -29 -20 0 -36 -4 -36 -10 0 -5
-15 -10 -34 -10 -19 0 -38 -4 -41 -10 -8 -13 -65 -13 -65 0 0 6 -9 10 -20 10
-11 0 -20 -7 -20 -15 0 -12 -16 -15 -80 -15 -64 0 -80 3 -80 15 0 9 -9 15 -24
15 -14 0 -33 11 -44 25 -12 15 -30 25 -45 25 -14 0 -32 7 -41 15 -11 12 -41
15 -130 15 l-116 0 0 25 c0 23 -4 25 -40 25 -29 0 -40 4 -40 15 0 11 -11 15
-40 15 -22 0 -40 5 -40 10 0 6 -18 10 -40 10 -22 0 -40 -4 -40 -10 0 -18 -22
-10 -42 15 l-19 25 -210 0 c-179 0 -209 2 -209 15 0 12 16 15 80 15 47 0 80 4
80 10 0 6 -18 10 -40 10 -29 0 -40 4 -40 15 0 13 -20 15 -120 15 -73 0 -120
-4 -120 -10 0 -6 -113 -10 -320 -10 -278 0 -320 -2 -320 -15 0 -12 -19 -15
-114 -15 -83 0 -115 -3 -118 -12 -4 -10 -53 -13 -203 -13 -150 0 -199 3 -202
13 -3 8 -26 12 -68 12 -43 0 -66 5 -75 15 -8 9 -30 15 -56 15 -24 0 -44 5 -44
10 0 6 -18 10 -40 10 -50 0 -53 18 -3 22 20 2 38 8 40 14 3 8 -23 14 -77 19
-44 4 -80 11 -80 16 0 5 -26 9 -59 9 -84 0 -181 11 -181 21 0 5 18 9 40 9 22
0 40 5 40 10 0 6 -33 10 -80 10 -64 0 -80 3 -80 15 0 17 -112 21 -402 15 -141
-2 -158 -1 -158 14 0 24 -19 20 -42 -9 -19 -24 -23 -25 -149 -25 -87 0 -129
-4 -129 -11 0 -8 -24 -9 -80 -4 -55 5 -80 4 -80 -4 0 -13 -312 -11 -321 2 -11
15 -239 -13 -239 -30 0 -8 -12 -13 -30 -13 -27 0 -30 3 -30 30 0 17 -4 30 -10
30 -5 0 -10 -13 -10 -30 0 -23 -4 -30 -20 -30 -11 0 -20 7 -20 15 0 8 -9 15
-20 15 -15 0 -20 -7 -21 -27 0 -16 -3 -22 -6 -15 -2 6 -20 12 -39 12 -24 0
-34 5 -34 15 0 8 -7 15 -15 15 -11 0 -15 -11 -15 -40 0 -36 -2 -40 -25 -40
-16 0 -25 6 -25 15 0 12 -16 15 -80 15 -44 0 -80 4 -80 9 0 6 -21 11 -47 13
-40 3 -49 7 -63 32 -9 17 -29 38 -46 47 -40 24 -52 23 -24 -1 13 -11 19 -20
13 -20 -13 0 -43 33 -43 47 0 6 -16 20 -35 32 -20 11 -38 27 -41 36 -7 17 -34
21 -34 5 0 -26 -19 -6 -32 33 -9 29 -18 42 -31 41 -20 -2 -23 12 -4 19 7 2 0
15 -20 34 -18 17 -33 35 -33 40 0 6 -9 18 -20 28 -11 10 -20 26 -20 37 0 10
-7 18 -15 18 -8 0 -22 18 -31 40 -9 22 -20 40 -25 40 -5 0 -9 11 -9 24 0 14
-5 28 -10 31 -6 4 -8 11 -5 16 4 5 0 9 -9 9 -9 0 -17 15 -21 40 -4 25 -12 40
-21 40 -8 0 -14 7 -14 15 0 11 -11 15 -40 15 -30 0 -40 4 -40 16 0 14 -10 15
-80 9 -76 -7 -80 -6 -80 13 0 17 -9 21 -77 27 -54 5 -78 4 -81 -4 -6 -18 -82
-14 -82 4 0 12 -20 15 -119 15 -83 0 -121 4 -123 12 -3 9 -83 11 -321 9 -281
-2 -317 0 -317 13 0 13 -14 16 -80 16 -47 0 -80 -4 -80 -10 0 -5 -18 -10 -40
-10 l-40 0 0 -2030 0 -2030 15000 0 15000 0 0 1979 0 1979 -40 4 c-22 2 -40 0
-40 -4 0 -5 -90 -8 -200 -8 -171 0 -200 -2 -200 -15 0 -12 -20 -15 -120 -15
-100 0 -120 -2 -120 -15 0 -12 -16 -15 -80 -15 -44 0 -80 -4 -80 -9 0 -5 -104
-10 -230 -12 -157 -3 -233 -8 -238 -15 -4 -7 -44 -15 -89 -19 -46 -4 -83 -11
-83 -16 0 -5 -33 -9 -74 -9 -56 0 -75 -4 -80 -15 -3 -10 -19 -15 -46 -15 -22
0 -40 -4 -40 -10 0 -5 -18 -10 -40 -10 -29 0 -40 -4 -40 -15 0 -12 -16 -15
-80 -15 -44 0 -80 -4 -80 -8 0 -5 -107 -12 -237 -15 -146 -4 -239 -11 -241
-17 -2 -5 -21 -10 -43 -10 -28 0 -39 -4 -39 -15 0 -11 -11 -15 -40 -15 -29 0
-40 4 -40 15 0 11 -11 15 -40 15 -29 0 -40 -4 -40 -15 0 -13 -33 -15 -240 -15
-153 0 -240 -4 -240 -10 0 -5 -18 -10 -40 -10 -29 0 -40 -4 -40 -15 0 -12 -20
-15 -120 -15 -100 0 -120 -2 -120 -15 0 -13 -29 -15 -200 -15 -110 0 -200 -4
-200 -9 0 -4 -69 -11 -152 -15 -195 -10 -346 -22 -290 -24 30 -2 42 -6 42 -17
0 -13 -29 -15 -200 -15 -127 0 -200 -4 -200 -10 0 -5 -18 -10 -40 -10 -29 0
-40 -4 -40 -15 0 -11 -11 -15 -40 -15 -25 0 -40 -5 -40 -12 0 -10 -3 -9 -9 1
-11 17 -31 6 -31 -17 0 -9 6 -29 14 -44 13 -24 46 -127 46 -142 0 -15 -20 -4
-20 12 -1 16 -2 16 -14 -1 -13 -17 -16 -16 -40 16 -14 19 -26 38 -26 44 0 15
-39 91 -50 98 -5 3 -10 15 -10 26 0 10 -4 19 -10 19 -5 0 -10 6 -10 13 -1 18
-47 49 -55 36 -4 -6 2 -13 13 -16 11 -3 23 -11 26 -19 4 -10 -4 -14 -29 -14
-19 0 -35 5 -35 10 0 6 -18 10 -40 10 -22 0 -40 -4 -40 -10 0 -6 -60 -10 -160
-10 -136 0 -160 -2 -160 -15 0 -13 -24 -15 -160 -15 -100 0 -160 -4 -160 -10
0 -6 -33 -10 -80 -10 -64 0 -80 -3 -80 -15 0 -11 -11 -15 -40 -15 -22 0 -40
-4 -40 -10 0 -6 -33 -10 -80 -10 -64 0 -80 -3 -80 -15 0 -11 -13 -15 -53 -15
-32 0 -61 -6 -76 -16 -19 -14 -25 -14 -31 -4 -7 11 -16 8 -44 -13 -19 -15 -39
-27 -45 -27 -5 0 -18 -11 -29 -25 -22 -28 -42 -33 -42 -10 0 29 -31 15 -86
-40 -53 -52 -59 -55 -105 -55 -27 0 -49 -4 -49 -9 0 -9 -36 -21 -85 -27 -46
-6 -58 -13 -51 -29 4 -12 -3 -15 -34 -15 -21 0 -42 -4 -45 -10 -9 -15 -182
-13 -187 2 -3 8 -34 13 -90 14 -47 1 -95 7 -108 14 -12 6 -28 9 -36 6 -7 -3
-28 1 -46 8 -18 7 -109 22 -202 32 -113 12 -170 23 -173 31 -7 19 -40 16 -47
-4 -6 -15 -8 -15 -16 -3 -8 13 -57 15 -321 14 -234 0 -314 -3 -317 -12 -2 -8
-30 -12 -83 -12 -46 0 -79 -4 -79 -10 0 -5 -15 -10 -33 -10 -18 0 -52 -9 -74
-20 -23 -11 -48 -17 -57 -14 -18 7 -57 -13 -53 -28 1 -6 -4 -13 -10 -15 -7 -3
-13 2 -13 11 0 9 -7 16 -16 16 -8 0 -12 -4 -9 -10 3 -5 -7 -15 -22 -22 -15 -7
-31 -17 -34 -22 -4 -5 -11 -6 -17 -2 -15 9 -62 -15 -62 -31 0 -8 -4 -12 -9 -8
-15 9 -31 -29 -31 -72 0 -21 -5 -55 -11 -75 -10 -39 -28 -51 -30 -20 0 13 -2
14 -6 2 -2 -8 -7 -22 -10 -30 -7 -19 -32 83 -33 133 0 36 -20 55 -20 20 0 -10
-7 -27 -16 -38 -14 -19 -19 -21 -56 -24 -12 -1 -18 -9 -18 -27 0 -25 -2 -26
-43 -23 -38 4 -43 2 -39 -13 2 -11 -1 -18 -9 -18 -11 0 -11 -2 -1 -8 9 -6 5
-15 -15 -33 -14 -13 -23 -17 -19 -9 4 8 1 7 -8 -4 -8 -10 -20 -15 -26 -11 -6
4 -20 -5 -32 -20 -13 -17 -27 -25 -39 -22 -10 3 -20 -2 -24 -10 -4 -12 0 -14
15 -10 13 3 20 0 20 -8 0 -19 -17 -28 -23 -13 -4 8 -6 7 -6 -4 -1 -9 -5 -19
-10 -22 -20 -13 -2 75 26 125 43 77 76 133 83 139 3 3 32 40 64 83 67 88 218
237 292 287 27 19 72 49 99 67 77 53 259 138 369 173 179 56 313 73 536 67
265 -7 414 -42 645 -152 93 -44 253 -142 291 -179 6 -6 34 -29 62 -51 28 -22
56 -50 63 -63 17 -31 29 -24 46 28 8 25 32 82 54 128 206 443 589 748 1074
855 137 30 475 32 604 4 123 -27 250 -70 358 -122 53 -25 97 -45 98 -45 2 0
22 30 46 68 65 103 173 247 271 358 l88 101 -25 74 c-64 188 -87 415 -62 604
11 80 12 115 4 130 -9 17 -8 18 5 7 13 -11 16 -6 23 30 4 24 7 47 6 52 -1 5 4
13 11 17 7 4 9 11 5 15 -3 4 -13 1 -21 -5 -12 -10 -17 -8 -26 9 -10 20 -10 21
8 11 19 -10 32 -6 32 11 0 4 -8 8 -17 9 -13 0 -14 2 -4 6 8 3 19 -1 26 -10 16
-23 51 75 35 101 -10 15 -11 14 -6 -6 2 -13 -2 -38 -9 -55 -8 -19 -14 -25 -15
-14 0 15 -11 17 -80 17 -64 0 -80 -3 -80 -15 0 -12 -20 -15 -120 -15 -100 0
-120 -2 -120 -15 0 -13 -33 -15 -240 -15 -153 0 -240 -4 -240 -10 0 -5 -18
-10 -40 -10 -29 0 -40 -4 -40 -15 0 -12 -20 -15 -120 -15 l-120 0 0 26 c0 14
-4 23 -10 19 -15 -9 -12 -45 10 -105 11 -30 20 -65 20 -77 0 -13 5 -23 10 -23
6 0 10 -9 10 -20 0 -27 -18 -25 -30 3 -7 19 -9 17 -11 -18 -1 -23 -3 -31 -6
-20 -3 11 -10 25 -15 32 -5 7 -6 18 -2 24 5 8 2 10 -8 6 -12 -4 -20 4 -28 26
-6 18 -16 39 -21 47 -5 8 -17 30 -26 48 -17 33 -53 45 -53 17 0 -12 -20 -15
-120 -15 -100 0 -120 3 -120 15 0 13 -20 15 -120 15 -100 0 -120 -2 -120 -15
0 -13 -29 -15 -200 -15 -110 0 -200 -4 -200 -9 0 -5 -72 -12 -160 -16 -88 -4
-160 -11 -160 -16 0 -5 -36 -9 -80 -9 -47 0 -80 -4 -80 -10 0 -6 -33 -10 -80
-10 -64 0 -80 -3 -80 -15 0 -12 -20 -15 -120 -15 -100 0 -120 3 -120 15 0 13
20 15 120 15 73 0 120 4 120 10 0 6 18 10 40 10 22 0 40 5 40 10 0 6 -33 10
-80 10 -47 0 -80 -4 -80 -10 0 -6 -60 -10 -160 -10 -136 0 -160 -2 -160 -15 0
-13 -29 -15 -200 -15 -127 0 -200 -4 -200 -10 0 -16 -237 -13 -243 3 -3 6 -6
0 -6 -15 -1 -45 -21 -32 -21 14 0 75 -13 30 -16 -54 -1 -46 -2 -98 -3 -115 -1
-32 -21 -49 -21 -18 0 8 -4 15 -10 15 -5 0 -10 -16 -10 -37 0 -56 -7 -37 -23
62 -24 145 -18 138 -120 136 -56 -1 -87 2 -87 8 0 6 -18 11 -40 11 -22 0 -40
-4 -40 -10 0 -6 -33 -10 -80 -10 -64 0 -80 -3 -80 -15 0 -12 -16 -15 -80 -15
-77 0 -80 1 -80 23 0 13 -3 27 -7 30 -13 14 -33 -69 -33 -138 0 -74 -13 -111
-29 -87 -7 11 -9 11 -14 -2 -13 -34 -25 -13 -31 57 -12 131 -18 167 -27 161
-5 -3 -10 -15 -10 -27 -1 -17 -2 -18 -6 -4 -4 16 -24 17 -244 17 -153 0 -239
4 -239 10 0 6 -47 10 -120 10 -73 0 -120 -4 -120 -10 0 -5 -20 -10 -44 -10
-26 0 -48 -6 -56 -15 -7 -8 -27 -15 -46 -15 -18 0 -35 -4 -38 -9 -3 -4 -38
-19 -78 -31 -40 -13 -77 -27 -82 -32 -6 -4 -20 -8 -33 -8 -13 0 -23 -4 -23
-10 0 -6 -33 -10 -80 -10 -62 0 -80 -3 -80 -14 0 -11 -22 -16 -87 -21 -105 -9
-307 1 -311 15 -2 6 -52 10 -123 10 -99 0 -119 3 -119 15 0 12 -16 15 -80 15
-44 0 -80 3 -80 8 0 4 -24 16 -52 26 -39 14 -91 20 -200 24 -82 3 -148 9 -148
13 0 13 -158 11 -162 -1 -4 -13 -349 -31 -422 -23 -26 3 -51 2 -55 -3 -3 -5
-18 -15 -34 -22 -15 -6 -26 -17 -25 -23 2 -6 -3 -14 -9 -16 -8 -3 -13 4 -13
16 0 22 -14 28 -25 11 -3 -6 -17 -10 -30 -10 -13 0 -25 -4 -27 -10 -5 -14 -78
-42 -78 -30 0 12 -73 -16 -78 -30 -2 -6 -26 -10 -52 -10 -27 0 -52 -4 -55 -10
-3 -5 -17 -10 -31 -10 -13 0 -24 -6 -24 -13 0 -13 -48 -37 -90 -43 -36 -6 -70
-25 -70 -40 0 -6 -10 -14 -22 -18 -13 -3 -36 -17 -52 -30 -16 -14 -38 -28 -50
-32 -11 -4 -40 -20 -63 -35 -23 -16 -48 -29 -56 -29 -8 0 -30 -17 -48 -38 -23
-26 -51 -45 -86 -56 -28 -9 -57 -24 -63 -32 -7 -7 -19 -14 -26 -14 -8 0 -14
-4 -14 -9 0 -5 -21 -17 -47 -27 -27 -10 -62 -30 -80 -45 -18 -15 -50 -30 -75
-34 -24 -4 -59 -11 -79 -17 -66 -19 -359 17 -359 44 0 4 -22 8 -49 8 -28 0
-52 4 -55 9 -3 4 -38 19 -78 31 -40 13 -77 27 -82 32 -6 4 -38 8 -73 8 -35 0
-63 4 -63 9 0 15 -233 34 -339 27 -56 -3 -146 -9 -201 -12 -55 -4 -100 -11
-100 -15 0 -5 -36 -9 -80 -9 -47 0 -80 -4 -80 -10 0 -13 -397 -14 -402 -1 -2
6 -112 10 -263 11 -312 2 -295 2 -295 -10 0 -13 -32 -50 -44 -50 -5 0 -15 -8
-22 -17 -7 -10 -14 -13 -14 -7 0 7 -11 9 -25 6 -25 -4 -32 6 -16 24 5 5 12 19
16 32 6 20 3 22 -30 22 -20 0 -48 6 -63 14 -15 7 -49 17 -77 20 -66 10 -125
27 -125 38 0 4 -29 8 -63 8 -35 0 -67 3 -70 7 -17 16 -116 43 -162 43 -31 0
-60 6 -74 16 -15 11 -26 13 -30 7 -10 -16 -86 -20 -100 -5 -10 10 -19 7 -49
-16 -55 -42 -92 -64 -92 -54 0 5 -11 7 -25 4 -14 -2 -25 -2 -25 0 0 10 34 73
42 79 5 3 -17 9 -49 12 -37 4 -62 12 -70 23 -7 9 -19 14 -27 11 -17 -7 -86 13
-86 25 0 4 -17 8 -39 8 -30 0 -40 4 -44 19 -3 13 -17 22 -41 26 -21 4 -36 13
-36 21 0 9 -11 14 -28 14 -15 0 -40 6 -55 13 -27 12 -36 27 -16 27 5 0 7 5 4
10 -9 15 -41 12 -59 -5 -8 -8 -19 -15 -24 -15 -5 0 -21 -9 -35 -20 -23 -18
-25 -19 -32 -3 -5 15 -7 15 -15 3 -5 -8 -12 -11 -15 -8 -4 4 3 26 15 50 47 90
46 88 30 88 -5 0 -10 -7 -10 -15 0 -22 -16 -18 -38 10 -11 14 -27 25 -35 25
-20 0 -80 32 -90 48 -4 6 -15 12 -23 12 -8 0 -22 4 -32 9 -9 5 -35 17 -57 27
-22 11 -43 23 -46 27 -3 5 -28 11 -55 15 -33 5 -49 12 -49 22 0 8 -25 23 -65
36 -35 13 -66 28 -68 33 -2 6 -8 11 -13 11 -6 0 -21 12 -34 28 -21 23 -26 25
-35 12 -9 -13 -14 -11 -35 13 -20 23 -32 27 -75 27 -38 0 -50 4 -50 15 0 13
-20 15 -120 15 -101 0 -120 2 -120 15 0 13 -26 15 -197 13 -149 -2 -197 0
-201 10 -2 8 -29 12 -83 12 -64 0 -79 -3 -79 -15 0 -11 -11 -15 -40 -15 -22 0
-40 -4 -40 -10 0 -5 -18 -10 -40 -10 -29 0 -40 -4 -40 -15 0 -11 -11 -15 -40
-15 -29 0 -40 -4 -40 -15 0 -8 -4 -15 -9 -15 -5 0 -11 7 -15 15 -3 8 -1 15 4
15 5 0 7 7 4 15 -4 8 -15 15 -25 15 -10 0 -19 -7 -19 -15 0 -8 -4 -15 -10 -15
-5 0 -10 -7 -10 -15 0 -11 -11 -15 -40 -15 -22 0 -40 -4 -40 -10 0 -5 -18 -10
-40 -10 -29 0 -40 -4 -40 -15 0 -8 7 -15 16 -15 13 0 14 -3 4 -15 -7 -8 -34
-15 -68 -17 -48 -3 -59 -7 -67 -25 -5 -13 -18 -23 -27 -23 -13 0 -18 -8 -18
-27 0 -21 -3 -24 -9 -14 -7 11 -10 9 -13 -10 -2 -18 -10 -25 -30 -27 -25 -3
-28 -7 -28 -43 0 -21 -4 -39 -10 -39 -5 0 -10 -18 -10 -40 0 -33 -3 -40 -19
-40 -15 0 -21 8 -24 38 l-4 37 -3 -40 c-3 -31 -5 -24 -9 30 -5 63 -8 70 -28
73 -13 2 -23 8 -23 13 0 5 -7 9 -15 9 -8 0 -15 6 -15 13 0 7 -9 18 -20 25 -12
7 -20 8 -20 2 0 -6 -8 -5 -20 2 -23 15 -27 30 -5 22 9 -4 15 0 15 9 0 8 -7 20
-15 27 -12 10 -15 10 -15 -4 0 -33 -29 -15 -40 24 -6 24 -17 40 -25 40 -8 0
-15 4 -15 9 0 5 -14 23 -31 40 -17 17 -35 31 -40 31 -5 0 -9 5 -9 10 0 6 -18
10 -40 10 -22 0 -40 -4 -40 -8 0 -10 -66 -9 -76 1 -4 4 11 7 34 7 31 0 42 4
42 15 0 11 -11 15 -40 15 -29 0 -40 4 -40 15 0 12 -19 15 -114 15 -78 0 -125
5 -149 15 -20 8 -59 15 -87 15 -27 0 -50 5 -50 10 0 15 -77 12 -83 -2 -3 -7
-6 -1 -6 14 -1 15 -5 29 -9 32 -5 3 -5 -21 -1 -52 4 -31 6 -58 4 -60 -3 -3
-17 60 -27 121 -2 11 -6 16 -10 12z m692 -201 c0 -14 -3 -14 -15 -4 -8 7 -15
14 -15 16 0 2 7 4 15 4 8 0 15 -7 15 -16z m16167 -46 c-3 -8 -6 -5 -6 6 -1 11
2 17 5 13 3 -3 4 -12 1 -19z m4433 -1473 c-32 -18 -40 -18 -40 0 0 10 10 15
33 15 l32 -1 -25 -14z m-3880 -395 c0 -6 -47 -10 -120 -10 -73 0 -120 4 -120
10 0 6 47 10 120 10 73 0 120 -4 120 -10z m-24004 -167 c-10 -10 -19 5 -10 18
6 11 8 11 12 0 2 -7 1 -15 -2 -18z m2762 -140 c-21 -2 -57 -2 -80 0 -24 2 -7
4 37 4 44 0 63 -2 43 -4z m9606 -57 c208 -49 396 -128 562 -235 156 -101 392
-326 387 -370 -2 -15 2 -19 13 -14 13 5 15 2 9 -15 -4 -13 -2 -22 4 -22 6 0
11 6 11 13 0 8 3 7 9 -3 6 -8 7 -18 4 -24 -3 -5 -1 -6 5 -2 6 3 16 -3 22 -15
9 -17 8 -24 -6 -40 -21 -23 -33 -17 -13 7 12 15 12 18 0 22 -8 3 -27 18 -43
34 -16 16 -32 27 -37 23 -5 -3 -7 4 -4 15 4 13 0 20 -9 20 -8 0 -27 11 -42 25
-32 29 -36 30 -36 9 0 -9 -3 -14 -7 -12 -5 2 -21 10 -38 18 -16 8 -32 17 -35
20 -3 3 -17 11 -33 18 -15 6 -26 17 -25 22 2 6 -17 18 -41 27 -56 19 -91 41
-91 58 0 15 -35 30 -49 21 -12 -8 -118 31 -194 71 -15 8 -34 12 -42 9 -8 -3
-30 1 -50 10 -19 8 -35 10 -35 5 0 -9 -94 19 -107 32 -3 4 -71 7 -150 7 -78 0
-143 4 -143 9 0 4 -71 11 -157 13 -102 4 -159 10 -161 17 -4 12 -86 14 -181 5
-68 -8 -83 -24 -21 -24 22 0 40 -4 40 -10 0 -6 -33 -10 -80 -10 -47 0 -80 -4
-80 -10 0 -5 -15 -10 -33 -10 -18 0 -52 -9 -74 -20 -23 -11 -49 -17 -57 -14
-8 3 -29 -1 -45 -10 -17 -9 -45 -23 -62 -32 -16 -9 -37 -13 -45 -10 -8 3 -34
-3 -56 -14 -22 -11 -45 -17 -51 -13 -6 3 -7 1 -3 -5 3 -6 2 -13 -4 -17 -5 -3
-10 -1 -10 6 0 7 -3 9 -7 5 -5 -4 -8 -12 -8 -18 0 -6 -22 -18 -50 -26 -27 -9
-59 -24 -69 -34 -11 -10 -30 -18 -43 -18 -13 0 -23 -4 -23 -10 0 -5 5 -10 11
-10 28 0 -14 -28 -51 -34 -22 -3 -40 -10 -40 -15 0 -4 -21 -8 -47 -8 l-48 1 2
-34 c1 -22 -2 -29 -7 -20 -7 12 -12 12 -27 -1 -57 -49 -53 -32 11 46 246 300
561 496 948 589 123 30 182 35 403 31 195 -3 232 -6 329 -29z m-7964 -16 c0
-5 -18 -10 -40 -10 -22 0 -40 5 -40 10 0 6 18 10 40 10 22 0 40 -4 40 -10z
m2120 -480 c0 -5 -5 -10 -11 -10 -5 0 -7 5 -4 10 3 6 8 10 11 10 2 0 4 -4 4
-10z m11840 -51 c-7 -11 -14 -19 -16 -16 -7 7 7 37 17 37 6 0 5 -9 -1 -21z
m-1862 -70 c-13 -4 18 -7 67 -7 50 0 101 -5 115 -11 20 -9 14 -10 -30 -5 -122
11 -231 11 -339 -3 -62 -8 -118 -12 -125 -9 -6 2 5 5 24 7 l35 2 -40 8 c-29 5
-18 6 40 4 44 -2 67 -1 50 2 l-30 6 30 7 c37 9 235 7 203 -1z m1490 4 c-10 -2
-26 -2 -35 0 -10 3 -2 5 17 5 19 0 27 -2 18 -5z m89 -9 c-3 -3 -12 -4 -19 -1
-8 3 -5 6 6 6 11 1 17 -2 13 -5z m-190 -10 c-3 -3 -12 -4 -19 -1 -8 3 -5 6 6
6 11 1 17 -2 13 -5z m128 -4 c25 -11 -1 -11 -35 0 -20 6 -21 8 -5 8 11 0 29
-3 40 -8z m122 4 c-3 -3 -12 -4 -19 -1 -8 3 -5 6 6 6 11 1 17 -2 13 -5z
m-1360 -31 c-7 -7 -57 8 -57 18 0 4 14 3 31 -3 16 -6 28 -12 26 -15z m1063 17
c-8 -5 -24 -9 -35 -9 l-20 0 20 9 c11 5 27 9 35 9 13 1 13 0 0 -9z m355 0 c15
-6 11 -7 -17 -7 -23 1 -33 4 -25 9 14 9 16 9 42 -2z m-2120 -10 c-3 -5 -16
-10 -28 -9 -20 1 -20 2 3 9 14 4 26 8 28 9 2 1 0 -3 -3 -9z m73 3 c-10 -2 -26
-2 -35 0 -10 3 -2 5 17 5 19 0 27 -2 18 -5z m249 1 c-3 -3 -12 -4 -19 -1 -8 3
-5 6 6 6 11 1 17 -2 13 -5z m146 -1 c-13 -2 -33 -2 -45 0 -13 2 -3 4 22 4 25
0 35 -2 23 -4z m1400 0 c-7 -2 -21 -2 -30 0 -10 3 -4 5 12 5 17 0 24 -2 18 -5z
m-1130 -33 c-7 -28 -13 -25 -13 6 0 14 4 23 9 20 5 -3 7 -15 4 -26z m42 9 c4
-6 14 -8 22 -5 8 3 11 1 8 -4 -9 -15 -42 -12 -49 5 -6 17 9 21 19 4z m-6215
-7 c0 -4 -5 -13 -12 -20 -9 -9 -9 -12 0 -12 6 0 9 -7 6 -15 -8 -21 -25 -19
-18 3 5 15 3 14 -10 -2 -26 -31 -30 -10 -5 23 22 30 39 40 39 23z m5348 -4 c8
-10 1 -13 -29 -13 -21 -1 -45 -7 -51 -14 -11 -10 -5 -11 27 -7 33 5 36 5 16
-4 -13 -6 -40 -8 -60 -5 -26 4 -30 3 -16 -4 15 -6 11 -8 -20 -7 -30 0 -47 -6
-63 -22 -13 -13 -27 -20 -33 -16 -11 6 13 23 61 44 14 6 34 15 45 20 19 9 94
36 106 39 4 0 11 -5 17 -11z m92 -8 c0 -5 -4 -10 -10 -10 -5 0 -10 5 -10 10 0
6 5 10 10 10 6 0 10 -4 10 -10z m-9450 -21 c0 -5 -4 -9 -10 -9 -5 0 -10 7 -10
16 0 8 5 12 10 9 6 -3 10 -10 10 -16z m10360 -8 c25 -11 25 -11 -3 -6 -21 4
-27 2 -21 -6 4 -8 3 -9 -5 -5 -6 4 -9 12 -5 17 3 6 -4 7 -19 3 -14 -3 -33 -2
-42 3 -24 14 64 8 95 -6z m666 -14 c-14 -15 -26 -21 -26 -16 0 11 42 50 48 44
2 -1 -8 -14 -22 -28z m-4236 3 c0 -5 -4 -10 -10 -10 -5 0 -10 5 -10 10 0 6 5
10 10 10 6 0 10 -4 10 -10z m3689 -46 c14 -12 -19 -1 -35 12 -18 14 -18 14 6
3 14 -6 27 -13 29 -15z m-3645 -49 c-6 -5 -14 -17 -16 -25 -3 -8 -5 8 -4 36 1
51 1 51 17 25 12 -20 13 -28 3 -36z m-2904 46 c0 -5 -9 -19 -20 -32 l-21 -24
16 33 c15 31 25 41 25 23z m6615 -39 c-2 -2 -12 1 -23 7 -11 6 -29 8 -38 4
-16 -6 -17 -5 -4 8 13 14 17 14 41 0 15 -9 26 -17 24 -19z m-1460 18 c3 -5 -1
-10 -10 -10 -9 0 -13 5 -10 10 3 6 8 10 10 10 2 0 7 -4 10 -10z m-38 -14 c0
-8 -6 -12 -15 -9 -11 5 -11 7 0 14 7 5 13 9 14 9 0 0 1 -6 1 -14z m1898 4 c3
-5 1 -10 -4 -10 -6 0 -11 5 -11 10 0 6 2 10 4 10 3 0 8 -4 11 -10z m-4085 -30
c0 -5 -4 -10 -10 -10 -5 0 -10 5 -10 10 0 6 5 10 10 10 6 0 10 -4 10 -10z
m2111 -19 c-7 -5 -11 -14 -7 -20 5 -7 1 -9 -9 -5 -12 5 -13 9 -4 20 6 8 17 14
23 14 6 0 5 -4 -3 -9z m-5081 -5 c0 -3 -4 -8 -10 -11 -5 -3 -10 -1 -10 4 0 6
5 11 10 11 6 0 10 -2 10 -4z m3008 -51 c-3 -3 -9 2 -12 12 -6 14 -5 15 5 6 7
-7 10 -15 7 -18z m21 -60 c0 -5 -4 -3 -9 5 -5 8 -9 22 -9 30 0 16 17 -16 18
-35z m1941 36 c0 -5 -15 -20 -32 -32 l-33 -22 29 31 c32 34 36 37 36 23z m-85
-81 c-10 -11 -20 -18 -23 -16 -5 6 21 35 32 36 5 0 1 -9 -9 -20z m-8272 -26
c48 -8 47 -28 -2 -54 -22 -10 -41 -25 -44 -32 -3 -8 -6 -6 -6 5 -1 24 -20 21
-31 -5 -7 -18 -9 -19 -9 -5 -1 9 -5 17 -11 17 -16 0 -12 27 5 34 8 3 15 12 15
20 0 24 24 29 83 20z m207 -60 c68 -27 161 -84 155 -94 -3 -6 0 -8 7 -5 7 3
31 -10 52 -29 38 -32 39 -34 18 -45 -25 -13 -43 -15 -22 -1 12 7 12 12 2 22
-10 10 -14 10 -21 -1 -5 -7 -26 -15 -47 -16 -22 -2 -64 -8 -94 -14 -54 -11
-55 -11 -82 18 -16 17 -28 41 -28 55 0 15 -4 26 -10 26 -5 0 -12 11 -16 25 -3
14 -10 25 -15 25 -5 0 -6 6 -3 14 4 10 0 13 -13 10 -11 -3 -26 2 -34 12 -13
15 -12 16 11 11 14 -4 19 -4 13 -1 -7 3 -13 11 -13 18 0 15 61 2 140 -30z
m3047 -56 c-3 -8 -6 -5 -6 6 -1 11 2 17 5 13 3 -3 4 -12 1 -19z m-2773 -139
c-3 -5 -10 -7 -15 -3 -5 3 -7 10 -3 15 3 5 10 7 15 3 5 -3 7 -10 3 -15z m16
-24 c-7 -9 -15 -13 -18 -10 -3 2 1 11 8 20 7 9 15 13 18 10 3 -2 -1 -11 -8
-20z m60 -40 c7 -9 8 -15 2 -15 -5 0 -12 7 -16 15 -3 8 -4 15 -2 15 2 0 9 -7
16 -15z m122 -189 c11 -16 10 -36 -2 -36 -5 0 -10 7 -10 17 0 15 -1 15 -18 0
-21 -19 -42 -23 -24 -5 7 7 12 20 12 30 0 12 5 16 18 11 9 -4 20 -11 24 -17z"/>
<path d="M14160 2910 c0 -5 18 -10 40 -10 22 0 40 5 40 10 0 6 -18 10 -40 10
-22 0 -40 -4 -40 -10z"/>
<path d="M15230 2600 c0 -5 5 -10 11 -10 5 0 7 5 4 10 -3 6 -8 10 -11 10 -2 0
-4 -4 -4 -10z"/>
<path d="M18338 2523 c12 -2 32 -2 45 0 12 2 2 4 -23 4 -25 0 -35 -2 -22 -4z"/>
<path d="M2978 5593 c12 -2 32 -2 45 0 12 2 2 4 -23 4 -25 0 -35 -2 -22 -4z"/>
<path d="M8800 5590 c0 -5 7 -7 15 -4 8 4 15 8 15 10 0 2 -7 4 -15 4 -8 0 -15
-4 -15 -10z"/>
<path d="M25535 5590 c3 -5 8 -10 11 -10 2 0 4 5 4 10 0 6 -5 10 -11 10 -5 0
-7 -4 -4 -10z"/>
<path d="M4880 4335 c0 -12 16 -15 80 -15 64 0 80 3 80 15 0 12 -16 15 -80 15
-64 0 -80 -3 -80 -15z"/>
<path d="M4631 4335 c-1 -13 19 -35 31 -35 4 0 8 5 8 10 0 6 -6 10 -14 10 -8
0 -17 6 -19 13 -3 6 -6 7 -6 2z"/>
<path d="M0 4095 c0 -11 11 -15 40 -15 29 0 40 4 40 15 0 11 -11 15 -40 15
-29 0 -40 -4 -40 -15z"/>
<path d="M29938 4003 c12 -2 32 -2 45 0 12 2 2 4 -23 4 -25 0 -35 -2 -22 -4z"/>
<path d="M6790 3910 c8 -5 20 -10 25 -10 6 0 3 5 -5 10 -8 5 -19 10 -25 10 -5
0 -3 -5 5 -10z"/>
<path d="M6900 3909 c0 -5 5 -7 10 -4 6 3 10 8 10 11 0 2 -4 4 -10 4 -5 0 -10
-5 -10 -11z"/>
<path d="M7018 3903 c7 -3 16 -2 19 1 4 3 -2 6 -13 5 -11 0 -14 -3 -6 -6z"/>
<path d="M7178 3903 c7 -3 16 -2 19 1 4 3 -2 6 -13 5 -11 0 -14 -3 -6 -6z"/>
<path d="M7050 3890 c-11 -8 -7 -9 15 -4 37 8 45 14 19 14 -10 0 -26 -5 -34
-10z"/>
<path d="M7128 3863 c7 -3 16 -2 19 1 4 3 -2 6 -13 5 -11 0 -14 -3 -6 -6z"/>
<path d="M7168 3853 c6 -2 18 -2 25 0 6 3 1 5 -13 5 -14 0 -19 -2 -12 -5z"/>
<path d="M7310 3830 c-11 -7 -11 -10 -2 -10 7 0 10 -4 7 -10 -3 -6 1 -7 10 -3
12 4 13 8 5 13 -9 6 -9 9 1 13 8 3 10 6 4 6 -5 0 -17 -4 -25 -9z"/>
<path d="M7359 3838 c-8 -26 -4 -40 14 -49 19 -9 20 -8 6 3 -9 7 -15 21 -13
31 2 13 -3 25 -7 15z"/>
<path d="M7390 3830 c-13 -9 -13 -10 0 -10 8 0 22 5 30 10 13 9 13 10 0 10 -8
0 -22 -5 -30 -10z"/>
<path d="M7405 3810 c-13 -6 -15 -9 -5 -9 8 0 22 4 30 9 18 12 2 12 -25 0z"/>
<path d="M7570 3750 c13 -8 12 -10 -4 -10 -11 0 -17 -3 -13 -6 3 -3 15 -3 28
1 17 6 19 9 8 16 -8 5 -18 9 -24 9 -5 0 -3 -5 5 -10z"/>
<path d="M7518 3743 c7 -3 16 -2 19 1 4 3 -2 6 -13 5 -11 0 -14 -3 -6 -6z"/>
<path d="M7557 3708 c2 -5 10 -8 18 -8 8 0 16 3 18 8 3 4 -5 7 -18 7 -13 0
-21 -3 -18 -7z"/>
<path d="M7674 3665 c1 -8 6 -18 11 -22 4 -5 5 -2 0 6 -6 11 -4 13 8 8 23 -9
21 0 -2 13 -15 7 -19 7 -17 -5z"/>
<path d="M4010 3370 c0 -6 30 -9 73 -9 68 1 70 2 27 10 -64 11 -100 11 -100
-1z"/>
<path d="M6008 3243 c7 -3 16 -2 19 1 4 3 -2 6 -13 5 -11 0 -14 -3 -6 -6z"/>
<path d="M6090 3230 c8 -5 24 -10 34 -10 26 0 18 6 -19 14 -22 5 -26 4 -15 -4z"/>
<path d="M6171 3216 c10 -8 89 -13 89 -5 0 5 -21 9 -47 9 -25 0 -44 -2 -42 -4z"/>
<path d="M22887 3061 c-4 -17 -3 -21 5 -13 5 5 8 16 6 23 -3 8 -7 3 -11 -10z"/>
<path d="M7460 2950 c0 -5 9 -10 20 -10 11 0 20 5 20 10 0 6 -9 10 -20 10 -11
0 -20 -4 -20 -10z"/>
<path d="M20466 2745 c-9 -26 -7 -32 5 -12 6 10 9 21 6 23 -2 3 -7 -2 -11 -11z"/>
<path d="M8480 2748 c0 -3 7 -19 15 -34 8 -16 15 -22 15 -14 -1 8 -7 24 -15
34 -8 11 -15 17 -15 14z"/>
</g>
</svg>
