<?xml version="1.0" standalone="no"?>
<!DOCTYPE svg PUBLIC "-//W3C//DTD SVG 20010904//EN"
 "http://www.w3.org/TR/2001/REC-SVG-20010904/DTD/svg10.dtd">
<svg version="1.0" xmlns="http://www.w3.org/2000/svg"
 width="7001.000000pt" height="4001.000000pt" viewBox="0 0 7001.000000 4001.000000"
 preserveAspectRatio="xMidYMid meet">

<g transform="translate(0.000000,4001.000000) scale(0.100000,-0.100000)"
fill="#000000" stroke="none">
<path d="M41528 40003 c248 -2 656 -2 905 0 248 1 45 2 -453 2 -498 0 -701 -1
-452 -2z"/>
<path d="M43008 40003 c56 -2 148 -2 205 0 56 1 10 3 -103 3 -113 0 -159 -2
-102 -3z"/>
<path d="M43373 40003 c9 -2 25 -2 35 0 9 3 1 5 -18 5 -19 0 -27 -2 -17 -5z"/>
<path d="M52302 40000 c355 -3 650 -8 654 -12 4 -5 -7 -8 -24 -8 -31 0 -42
-13 -22 -25 6 -3 10 -1 10 4 0 6 7 11 15 11 8 0 15 -4 15 -10 0 -5 9 -10 20
-10 12 0 20 -7 20 -16 0 -10 6 -14 15 -10 8 3 21 -2 30 -10 9 -10 23 -13 36
-9 14 5 26 0 40 -16 10 -12 19 -26 19 -31 0 -4 7 -8 15 -8 9 0 12 -6 8 -16 -4
-11 1 -22 12 -30 25 -19 35 -18 35 4 0 12 6 8 20 -13 11 -16 17 -37 15 -46 -3
-10 4 -20 20 -27 14 -6 25 -18 25 -26 0 -17 54 -40 75 -32 10 4 15 -1 15 -14
0 -14 -5 -18 -17 -13 -17 6 -17 6 -1 -10 23 -23 45 -21 54 5 l7 22 17 -22 c10
-12 25 -22 33 -22 8 0 17 -13 20 -29 7 -35 33 -62 52 -55 8 4 15 1 15 -5 0
-15 37 -14 43 2 3 7 6 5 6 -5 1 -10 6 -18 11 -18 6 0 10 -11 10 -25 0 -14 5
-25 11 -25 6 0 17 -7 25 -15 9 -8 22 -15 30 -15 8 0 14 7 14 15 0 8 6 15 14
15 9 0 17 -15 21 -40 4 -22 11 -40 16 -40 5 0 9 4 9 10 0 12 56 41 86 45 33 3
54 28 47 55 -6 21 -3 22 20 16 15 -3 27 -3 27 2 0 10 95 10 105 0 4 -4 13 -4
21 -1 9 3 14 -1 14 -12 0 -11 5 -15 14 -12 8 3 17 -1 20 -9 3 -8 19 -14 36
-14 30 0 41 15 18 22 -9 3 -8 9 4 21 9 9 18 22 20 28 3 9 9 9 25 1 17 -9 22
-7 33 14 15 28 35 27 35 -2 0 -12 8 -20 23 -22 12 -2 22 -10 22 -18 0 -19 6
-18 31 7 16 16 24 18 32 10 9 -9 8 -14 -2 -20 -7 -5 -10 -14 -7 -20 5 -7 14
-4 28 9 16 15 19 23 11 31 -11 11 -4 51 14 84 9 15 11 15 23 0 9 -11 10 -19 2
-27 -14 -14 6 -48 25 -41 12 5 18 -13 14 -44 -1 -7 7 -13 19 -13 13 0 20 7 20
20 0 11 5 20 10 20 6 0 10 -13 10 -30 0 -16 5 -30 11 -30 6 0 9 6 6 13 -4 11
22 44 32 40 3 -1 8 -10 12 -20 6 -14 8 -12 8 11 1 24 3 27 16 16 8 -7 15 -21
15 -32 0 -14 5 -18 16 -14 9 3 22 6 30 6 8 0 14 7 14 15 0 8 9 15 20 15 11 0
20 7 20 15 0 8 -4 15 -10 15 -5 0 -10 7 -10 15 0 8 9 15 20 15 11 0 20 -7 20
-15 0 -8 9 -15 20 -15 11 0 20 -4 20 -10 0 -5 7 -10 15 -10 8 0 15 5 15 10 0
6 -4 10 -10 10 -5 0 -10 4 -10 10 0 5 6 7 13 4 7 -2 19 6 26 18 10 20 18 23
50 20 36 -4 39 -2 39 22 0 38 7 41 52 21 31 -14 43 -16 52 -7 9 9 7 12 -7 12
-18 0 -18 1 -1 13 16 12 16 14 2 26 -20 17 -21 32 -1 24 9 -3 22 2 29 12 9 13
15 15 20 7 9 -15 62 -16 71 -2 4 6 -7 10 -24 10 -20 0 -31 5 -31 14 0 7 -3 29
-6 47 -4 25 -3 30 5 19 8 -12 11 -12 17 4 4 10 2 27 -4 37 -17 27 -15 39 9 39
11 0 29 5 40 10 16 9 19 7 19 -15 0 -17 5 -25 18 -25 9 0 27 -3 40 -6 20 -6
22 -3 22 39 0 45 0 45 36 45 19 0 38 3 41 6 4 3 -12 6 -35 6 -23 0 -42 4 -42
9 0 6 -19 12 -42 14 -24 2 2 5 57 7 95 3 97 4 40 10 -33 4 -58 8 -55 10 3 3
529 7 1170 10 706 3 -8 5 -1815 6 -1639 0 -2689 -3 -2333 -6z m2961 -67 c-13
-2 -33 -2 -45 0 -13 2 -3 4 22 4 25 0 35 -2 23 -4z m-1053 -367 c0 -8 -4 -17
-9 -21 -12 -7 -24 12 -16 25 9 15 25 12 25 -4z m180 -21 c10 -12 10 -15 -4
-15 -9 0 -16 7 -16 15 0 8 2 15 4 15 2 0 9 -7 16 -15z m-150 -5 c0 -5 -5 -10
-11 -10 -5 0 -7 5 -4 10 3 6 8 10 11 10 2 0 4 -4 4 -10z m350 0 c0 -5 -7 -10
-15 -10 -8 0 -15 5 -15 10 0 6 7 10 15 10 8 0 15 -4 15 -10z"/>
<path d="M70000 39052 c0 -732 -3 -961 -12 -970 -7 -7 -8 -12 -4 -12 5 0 3 -7
-4 -15 -7 -8 -10 -22 -6 -30 3 -8 1 -15 -4 -15 -6 0 -10 4 -10 9 0 5 -13 9
-30 9 -16 -1 -30 -5 -30 -10 0 -4 5 -8 10 -8 18 0 10 -39 -9 -45 -11 -3 -22
-12 -25 -20 -3 -8 -16 -15 -30 -15 -13 0 -26 -7 -29 -14 -3 -8 -31 -27 -61
-41 -31 -15 -56 -30 -56 -35 0 -4 -9 -10 -20 -13 -35 -9 -22 -26 15 -20 23 4
35 2 35 -6 0 -6 -5 -11 -11 -11 -6 0 -9 -6 -6 -14 3 -8 -2 -16 -14 -19 -10 -3
-19 -1 -19 4 0 23 -19 5 -25 -23 -6 -29 -35 -68 -49 -68 -2 0 -7 10 -9 23 -4
21 -5 21 -11 2 -4 -12 -17 -25 -29 -30 -12 -6 -26 -20 -32 -32 -5 -13 -17 -23
-25 -23 -11 -1 -10 -4 5 -16 19 -14 19 -16 3 -25 -22 -12 -23 -35 -3 -43 8 -3
15 -14 15 -25 0 -24 -28 -36 -32 -14 -5 28 -52 -76 -50 -109 1 -17 -3 -37 -10
-46 -11 -13 -10 -15 5 -9 24 9 34 -18 14 -38 -9 -8 -20 -15 -26 -15 -16 0 -13
-15 4 -30 20 -17 19 -33 -5 -48 -20 -12 -28 -62 -10 -62 18 0 11 -16 -20 -48
-36 -38 -40 -72 -9 -72 20 0 20 0 -3 -29 -13 -15 -26 -27 -29 -25 -10 5 -30
-22 -22 -29 3 -4 0 -13 -7 -22 -10 -13 -9 -15 9 -15 12 0 19 5 16 10 -9 14 4
12 19 -3 8 -7 12 -24 11 -38 -3 -34 -5 -36 -14 -15 -7 19 -9 18 -32 -5 l-24
-24 30 -6 c17 -4 24 -7 17 -8 -7 0 -17 -12 -22 -26 -5 -14 -13 -25 -18 -25 -5
0 -14 -12 -21 -27 -9 -20 -9 -28 0 -33 8 -6 8 -9 0 -14 -6 -4 -11 -16 -11 -27
0 -10 -6 -19 -14 -19 -16 0 -26 -62 -14 -84 6 -11 1 -20 -17 -32 -20 -13 -23
-19 -13 -25 10 -7 10 -15 -4 -39 -10 -17 -15 -38 -12 -48 5 -13 4 -14 -4 -3
-7 10 -16 4 -38 -25 -16 -22 -32 -40 -36 -42 -5 -2 -8 -26 -8 -53 0 -43 -12
-65 -22 -40 -1 5 -16 -4 -31 -20 -16 -16 -23 -29 -18 -29 6 0 11 -4 11 -10 0
-5 -7 -10 -16 -10 -23 0 -84 -50 -84 -69 0 -9 -7 -25 -15 -35 -8 -11 -15 -28
-15 -38 0 -10 -6 -18 -13 -18 -8 0 -20 -11 -27 -25 -7 -14 -22 -25 -32 -25
-11 0 -18 -7 -18 -20 0 -16 -5 -19 -29 -14 -34 7 -91 -24 -69 -37 9 -6 8 -9
-5 -15 -9 -3 -17 -12 -17 -19 0 -13 -37 -31 -46 -22 -10 10 10 37 27 37 23 0
25 18 4 26 -27 11 -61 -5 -107 -51 -25 -25 -53 -45 -61 -45 -8 0 -20 -7 -27
-15 -7 -8 -16 -15 -21 -15 -5 0 -9 7 -9 15 0 8 9 15 20 15 11 0 20 5 20 10 0
6 -7 10 -15 10 -8 0 -15 8 -15 18 0 11 -3 13 -8 6 -4 -6 -29 -25 -55 -42 -26
-16 -43 -32 -37 -34 5 -1 1 -9 -10 -16 -17 -10 -20 -10 -20 5 -1 11 -6 6 -14
-12 -18 -41 -43 -65 -68 -65 -18 0 -19 4 -14 35 9 47 -4 45 -56 -7 -24 -24
-47 -42 -51 -40 -5 1 -5 -3 -1 -9 8 -13 -13 -29 -38 -29 -11 0 -15 5 -12 14 7
18 -14 32 -28 18 -6 -6 -17 -8 -24 -5 -8 3 -14 1 -14 -4 0 -15 -47 -33 -88
-34 -20 0 -32 -3 -26 -5 8 -3 8 -16 1 -44 -12 -42 -35 -55 -95 -51 -18 2 -51
0 -73 -4 -33 -6 -39 -10 -34 -26 5 -14 0 -20 -19 -25 -15 -3 -26 -14 -28 -27
-3 -19 -11 -23 -60 -27 -62 -6 -78 -14 -60 -32 20 -20 14 -38 -13 -38 -14 0
-25 5 -25 12 0 9 -3 9 -12 0 -10 -10 -10 -15 1 -21 14 -9 7 -31 -10 -31 -5 0
-23 -14 -40 -32 -23 -24 -32 -29 -38 -19 -6 9 -16 11 -32 5 -13 -4 -28 -8 -34
-9 -5 0 -11 -20 -13 -43 -3 -43 -4 -44 -23 -26 -19 17 -20 16 -48 -14 -15 -18
-37 -32 -49 -32 -14 0 -22 -7 -24 -22 -2 -17 -11 -24 -30 -26 -16 -2 -28 -9
-28 -18 0 -8 -4 -14 -10 -14 -5 0 -10 -5 -10 -11 0 -6 -14 -24 -30 -39 -25
-24 -31 -26 -39 -13 -7 13 -9 13 -14 -1 -4 -9 -2 -16 3 -16 6 0 10 -5 10 -11
0 -7 -10 -9 -25 -5 -21 5 -27 2 -35 -19 -10 -27 -25 -33 -33 -12 -4 7 -23 -6
-52 -36 -36 -37 -46 -53 -41 -70 4 -19 -1 -26 -29 -39 -19 -8 -35 -12 -35 -7
0 5 -10 -1 -22 -13 -13 -13 -23 -27 -23 -31 0 -5 -18 -15 -39 -22 -22 -8 -50
-22 -62 -32 -91 -73 -94 -75 -134 -75 -22 0 -40 -2 -40 -6 0 -4 -25 -18 -55
-32 -31 -14 -58 -35 -64 -48 -10 -20 -16 -22 -53 -18 -30 4 -38 2 -28 -4 11
-7 4 -10 -26 -10 -28 0 -47 -6 -59 -20 -11 -13 -31 -20 -53 -20 -30 0 -34 -3
-29 -21 4 -15 2 -19 -9 -15 -15 6 -88 -26 -98 -43 -3 -5 -23 -12 -43 -16 -21
-4 -43 -15 -51 -26 -7 -10 -20 -19 -29 -19 -9 0 -24 -6 -32 -14 -25 -22 -91
-47 -91 -34 0 6 -8 4 -18 -5 -10 -10 -24 -17 -30 -17 -7 0 -12 -7 -12 -15 0
-11 -13 -15 -54 -15 -50 0 -87 -18 -58 -28 25 -8 12 -39 -18 -45 -16 -4 -30
-11 -30 -17 0 -6 -7 -18 -16 -27 -11 -12 -18 -13 -27 -4 -8 8 -7 11 6 11 9 0
17 5 17 10 0 13 -13 13 -47 -2 -43 -20 -58 -40 -58 -78 -1 -29 -5 -36 -24 -38
-20 -3 -66 -39 -66 -52 0 -3 -6 -14 -12 -25 -9 -16 -14 -18 -24 -7 -10 9 -10
12 -1 12 7 0 12 5 12 10 0 23 -21 7 -27 -20 -3 -17 -15 -36 -27 -42 -11 -6
-24 -16 -28 -22 -6 -8 -11 -6 -18 4 -8 13 -10 13 -10 -1 0 -9 8 -20 18 -24 14
-5 11 -9 -18 -23 -26 -13 -35 -23 -35 -42 0 -17 -8 -29 -28 -38 -20 -10 -26
-19 -22 -32 3 -11 0 -22 -8 -27 -21 -12 -26 -49 -10 -72 13 -19 12 -25 -8 -60
-12 -22 -31 -42 -42 -45 -20 -5 -20 -25 -2 -83 6 -17 3 -23 -9 -23 -20 0 -21
-39 -1 -46 24 -10 17 -39 -16 -68 -17 -16 -28 -34 -25 -42 3 -8 -1 -14 -8 -14
-21 0 -47 -35 -40 -54 7 -19 21 -21 27 -3 2 7 8 8 13 3 5 -5 4 -11 -3 -13 -7
-3 -13 -11 -13 -19 0 -8 -10 -14 -25 -14 -17 0 -29 -8 -37 -25 -6 -14 -16 -25
-22 -25 -6 0 -5 -5 2 -12 17 -17 15 -25 -10 -33 -20 -6 -20 -8 -5 -12 20 -5
23 -23 3 -23 -13 0 -28 -22 -30 -45 -1 -13 -37 -67 -53 -80 -16 -12 -63 -103
-63 -122 0 -7 -7 -13 -15 -13 -8 0 -19 -9 -25 -20 -6 -11 -17 -20 -25 -20 -8
0 -15 -4 -15 -10 0 -5 -4 -10 -9 -10 -5 0 -23 -13 -39 -29 -32 -32 -93 -54
-129 -45 -16 4 -25 1 -29 -10 -3 -9 -12 -16 -20 -16 -8 0 -14 -7 -14 -15 0 -8
5 -15 10 -15 6 0 10 5 10 10 0 6 7 10 15 10 8 0 15 -3 14 -7 0 -13 -59 -56
-66 -49 -4 3 -1 6 5 6 7 0 12 7 12 15 0 8 -6 15 -12 15 -22 0 -41 -17 -34 -29
4 -7 -1 -11 -13 -11 -10 0 -21 5 -23 10 -5 15 -158 -19 -158 -35 0 -13 -22
-25 -46 -25 -8 0 -33 -9 -57 -19 -23 -11 -64 -24 -92 -30 -27 -5 -70 -14 -95
-20 -25 -5 -72 -15 -105 -21 -33 -6 -69 -12 -80 -15 -11 -2 -53 -9 -92 -16
-40 -6 -73 -15 -73 -20 0 -5 -10 -7 -23 -4 -12 3 -36 -1 -52 -9 -17 -9 -42
-16 -57 -16 -16 0 -28 -3 -28 -7 0 -5 -18 -8 -40 -8 -22 0 -40 4 -40 8 0 5 -4
5 -10 2 -5 -3 -32 -6 -59 -7 l-48 0 29 -111 c37 -139 73 -266 83 -289 4 -11 3
-18 -4 -18 -7 0 -17 14 -23 32 -11 30 -12 31 -20 9 -4 -12 -12 -20 -17 -16 -6
3 -15 -4 -22 -17 -11 -21 -12 -21 -25 -3 -10 14 -14 15 -15 4 0 -14 -28 54
-32 81 -2 8 -6 21 -11 28 -4 7 -27 70 -51 140 -26 77 -47 126 -55 124 -7 -2
-9 5 -5 20 6 22 5 22 -10 -2 -16 -24 -16 -24 -12 -2 6 25 -8 30 -17 7 -4 -11
-13 -14 -31 -9 -23 6 -25 3 -25 -25 0 -37 -12 -39 -38 -7 -13 18 -25 23 -41
19 -11 -3 -21 -9 -21 -14 0 -5 -36 -9 -80 -9 -73 0 -80 -2 -80 -20 0 -17 -3
-18 -26 -10 -14 6 -37 10 -50 10 -14 0 -22 4 -19 10 7 12 -22 12 -50 0 -19 -8
-19 -9 2 -9 16 -1 21 -5 16 -17 -4 -11 -14 -14 -31 -11 -14 3 -36 -2 -49 -10
-17 -11 -23 -12 -23 -3 0 9 -11 11 -34 7 -19 -3 -37 -3 -40 0 -3 4 -19 7 -36
7 -22 1 -30 -4 -30 -16 0 -10 -7 -18 -15 -18 -8 0 -15 9 -15 20 0 18 -7 20
-84 20 -47 0 -97 5 -113 11 -15 6 -40 11 -55 11 -15 0 -30 3 -33 8 -3 5 -28 6
-56 3 -32 -4 -53 -2 -57 5 -13 19 -87 17 -118 -3 -18 -12 -51 -20 -84 -22 -30
-2 -71 -4 -90 -5 -19 -2 -53 1 -75 5 -23 5 -35 4 -27 -1 11 -7 10 -11 -1 -20
-10 -9 -25 -5 -62 14 -27 13 -56 22 -63 19 -8 -3 -21 0 -28 6 -11 9 -14 7 -14
-10 0 -12 -6 -21 -15 -21 -8 0 -15 5 -15 10 0 15 -57 12 -90 -5 -33 -17 -80
-11 -80 11 0 8 -9 14 -20 14 -11 0 -20 -6 -20 -14 0 -12 -5 -12 -30 1 -37 18
-57 12 -70 -21 -7 -18 -14 -23 -30 -19 -11 3 -27 0 -35 -7 -9 -7 -26 -9 -45
-5 -23 5 -30 3 -30 -9 0 -9 -4 -16 -10 -16 -5 0 -10 5 -10 10 0 6 -5 10 -12
10 -6 0 -8 -3 -5 -6 10 -10 -12 -44 -28 -44 -8 0 -15 -7 -15 -15 0 -11 -12
-15 -49 -15 -30 0 -51 -5 -54 -12 -2 -7 -8 -10 -12 -6 -4 4 -2 15 6 25 13 15
12 16 -6 9 -11 -5 -31 -11 -45 -13 -36 -7 -80 -27 -80 -35 0 -5 -9 -8 -20 -8
-10 0 -24 -9 -30 -20 -8 -16 -17 -19 -38 -14 -15 4 -30 11 -33 16 -8 12 -39
-1 -39 -17 0 -15 -22 -25 -57 -25 -18 0 -24 -4 -19 -15 5 -13 2 -14 -22 -1
-23 12 -30 12 -46 1 -10 -8 -15 -19 -10 -26 4 -7 3 -10 -2 -6 -21 12 -224 -51
-252 -80 -11 -11 -18 -11 -39 1 -23 11 -36 11 -97 -6 -69 -19 -95 -24 -144
-27 -15 -1 -21 -5 -16 -13 5 -8 2 -9 -10 -5 -9 4 -30 0 -46 -8 -16 -8 -33 -15
-37 -14 -26 4 -45 -17 -48 -53 0 -12 -10 -15 -68 -22 -53 -6 -59 -4 -64 13 -6
25 -33 31 -80 20 -21 -5 -51 -8 -68 -8 -26 0 -28 2 -10 10 13 6 -5 7 -55 3
-86 -7 -239 -6 -252 2 -5 3 -58 9 -119 14 -62 4 -114 12 -118 17 -3 6 -40 13
-81 16 -43 4 -79 12 -85 19 -16 21 -63 38 -108 39 l-42 2 40 6 c30 5 36 8 22
14 -10 4 -36 7 -57 7 -22 0 -59 11 -86 25 -26 14 -55 25 -65 25 -11 0 -19 7
-19 15 0 8 -6 16 -12 17 -7 0 -18 2 -24 2 -24 3 -64 38 -64 56 0 13 -7 20 -20
20 -11 0 -23 6 -26 14 -3 8 -11 13 -18 10 -7 -3 -19 2 -26 11 -7 8 -19 15 -27
15 -22 0 -74 43 -85 70 -7 20 -11 22 -18 10 -6 -8 -10 -13 -11 -10 0 3 -2 13
-4 24 -4 23 -42 59 -54 52 -5 -3 -14 1 -21 9 -7 8 -17 15 -23 15 -6 0 -37 27
-68 60 -31 33 -65 60 -75 60 -10 0 -28 10 -41 22 -13 12 -23 16 -23 9 0 -8 -5
-9 -19 -1 -11 5 -29 10 -40 10 -14 0 -21 6 -21 20 0 12 -7 20 -17 20 -18 0
-106 24 -173 48 -25 9 -48 16 -52 17 -3 0 -10 3 -14 8 -4 4 -20 7 -35 7 -15 0
-31 5 -34 10 -3 6 -17 10 -30 10 -13 0 -30 6 -37 14 -8 9 -27 11 -56 8 -35 -4
-47 0 -66 17 -15 14 -26 18 -30 12 -4 -6 -14 -3 -26 9 -14 14 -34 20 -62 20
-25 0 -49 7 -61 18 -13 11 -21 13 -24 5 -3 -7 -13 -2 -29 12 -13 12 -37 25
-52 28 -85 17 -113 25 -126 36 -8 7 -20 10 -26 6 -5 -3 -10 -1 -10 6 0 7 -3 9
-7 6 -11 -12 -32 14 -26 31 4 13 2 12 -10 -3 -19 -23 -22 -39 -5 -29 7 4 8 3
4 -4 -7 -12 29 -138 194 -677 54 -176 100 -329 102 -340 2 -14 -3 -21 -18 -23
-19 -3 -30 28 -134 360 -242 776 -235 759 -313 773 -20 4 -35 11 -32 15 6 10
-51 34 -63 26 -5 -3 -17 3 -27 14 -19 21 -55 27 -55 10 0 -6 -10 -2 -22 9 -29
28 -61 37 -67 20 -2 -8 -10 1 -17 21 l-13 35 5 -50 c5 -41 115 -434 139 -497
5 -13 2 -18 -9 -18 -9 0 -16 6 -16 13 0 11 -148 476 -165 520 -4 9 -18 17 -31
17 -12 0 -27 7 -32 16 -6 10 -24 17 -51 18 -24 1 -46 7 -49 12 -4 5 -25 19
-47 31 -22 11 -57 30 -77 41 -23 13 -38 17 -40 10 -2 -6 -20 -2 -46 11 -22 11
-57 21 -77 21 -19 0 -35 5 -35 10 0 6 -18 10 -40 10 -29 0 -40 -4 -40 -15 0
-8 -7 -15 -15 -15 -8 0 -14 5 -12 11 1 6 -18 18 -43 27 -25 8 -46 19 -48 24
-2 4 -15 8 -29 8 -18 0 -24 4 -19 15 6 17 4 18 -46 6 -32 -7 -38 -6 -43 9 -4
13 -21 20 -63 25 -31 4 -51 10 -44 12 6 3 10 9 7 14 -4 5 -13 5 -23 -1 -21
-11 -91 -24 -112 -21 -8 2 -17 7 -18 12 -2 5 -8 7 -12 4 -5 -3 -14 4 -21 16
-8 16 -13 18 -19 9 -10 -16 -80 -5 -80 13 0 7 -6 4 -14 -5 -17 -23 -42 -23
-50 -1 -6 15 -8 15 -16 3 -8 -13 -11 -12 -24 5 -15 20 -15 20 -30 0 -10 -13
-18 -16 -23 -10 -17 23 -163 52 -163 33 0 -6 -9 -3 -20 7 -13 11 -27 15 -43
11 -16 -4 -29 0 -37 9 -7 8 -17 12 -24 8 -21 -14 -91 -13 -141 1 -27 8 -64 12
-82 9 -19 -3 -45 1 -64 11 -18 9 -42 16 -53 16 -18 0 -19 2 -6 11 11 8 2 9
-32 4 -27 -3 -48 -3 -48 2 0 4 -19 9 -42 10 -23 2 -45 8 -49 14 -4 7 -24 10
-50 7 -49 -5 -109 8 -109 22 0 6 -19 10 -42 10 -28 0 -38 3 -30 9 9 5 -3 10
-36 15 -28 4 -52 10 -54 14 -7 16 -76 40 -101 35 -16 -3 -27 -1 -27 6 0 6 -7
11 -15 11 -8 0 -15 5 -15 10 0 6 -13 10 -30 10 -22 0 -30 5 -30 18 0 13 -10
17 -46 19 -45 2 -107 24 -119 43 -4 6 -11 7 -17 4 -6 -4 -8 1 -4 13 5 15 -1
22 -30 33 -20 8 -31 16 -25 18 20 7 12 24 -9 19 -13 -3 -24 3 -35 20 -15 23
-18 23 -40 9 -26 -17 -36 -10 -54 36 -7 20 -21 30 -51 38 -22 6 -40 15 -40 20
0 6 -13 10 -30 10 -20 0 -30 -5 -30 -15 0 -8 -4 -15 -9 -15 -12 0 -22 44 -11
48 6 2 10 10 10 19 0 12 -8 13 -42 7 -51 -9 -188 -6 -276 6 -40 5 -74 5 -90
-1 -18 -7 -27 -6 -32 2 -12 19 -87 1 -109 -27 -10 -13 -32 -26 -47 -28 -16 -2
-23 -1 -16 1 18 7 15 33 -5 34 -10 1 -22 0 -28 -1 -43 -10 -69 -8 -80 7 -16
22 -37 7 -30 -20 4 -14 3 -17 -2 -10 -16 22 -203 51 -203 31 0 -6 -9 -8 -20
-5 -11 3 -20 1 -20 -4 0 -5 -18 -9 -40 -9 -22 0 -40 4 -40 8 0 14 -128 6 -145
-8 -9 -7 -13 -15 -10 -18 3 -3 -11 -11 -31 -18 -39 -13 -77 -11 -82 6 -6 18
-44 11 -49 -10 -4 -16 -14 -20 -44 -20 -22 0 -39 5 -39 10 0 15 -17 12 -32 -5
-26 -28 -34 -40 -36 -50 -4 -24 -182 -9 -198 17 -3 4 -10 5 -16 2 -7 -4 -7 -9
1 -13 8 -5 7 -13 -3 -26 -15 -21 -124 -39 -141 -24 -5 5 -14 9 -21 9 -15 0
-25 -38 -11 -43 6 -2 3 -6 -6 -10 -9 -3 -17 -2 -17 3 0 6 -4 10 -10 10 -15 0
-12 -58 3 -63 6 -2 8 -8 4 -13 -4 -5 -11 -4 -15 2 -4 6 -22 13 -40 16 -28 4
-33 2 -29 -12 3 -13 -1 -16 -19 -12 -19 3 -22 1 -18 -16 4 -12 0 -22 -11 -26
-10 -3 -13 -11 -9 -18 10 -15 13 -57 7 -81 -3 -12 -10 -16 -24 -12 -15 5 -22
-1 -34 -28 -8 -19 -22 -37 -31 -41 -13 -5 -14 -9 -4 -21 12 -15 5 -39 -10 -30
-5 3 -24 -10 -44 -28 -19 -19 -53 -42 -76 -52 -36 -16 -45 -29 -41 -61 1 -6
-17 -14 -39 -18 -22 -3 -40 -11 -40 -16 0 -6 -5 -10 -12 -10 -7 0 -30 -20 -53
-45 -29 -33 -48 -46 -71 -48 -24 -2 -30 -6 -26 -20 3 -12 -9 -32 -37 -58 -22
-22 -41 -45 -41 -52 0 -15 -48 -61 -73 -70 -9 -4 -26 -22 -38 -41 -21 -36 -88
-86 -116 -86 -15 0 -15 -2 3 -15 18 -15 17 -16 -11 -10 -25 4 -37 -1 -72 -35
-24 -22 -43 -47 -43 -55 0 -18 -21 -20 -38 -3 -9 9 -12 8 -12 -8 0 -14 -14
-27 -45 -42 -28 -14 -43 -26 -39 -35 3 -9 -9 -18 -36 -27 -22 -7 -40 -16 -40
-20 0 -4 -18 -20 -40 -35 -22 -15 -40 -33 -40 -39 0 -7 -13 -19 -28 -28 -15
-9 -43 -31 -62 -48 -46 -41 -81 -59 -122 -62 -45 -4 -58 -23 -46 -67 5 -20 47
-162 93 -316 46 -154 91 -307 101 -340 9 -33 19 -67 21 -75 4 -13 4 -13 -6 0
-6 8 -11 10 -11 4 0 -6 7 -17 15 -24 8 -7 15 -20 14 -29 0 -12 -2 -11 -9 4
l-9 20 -1 -20 c-1 -11 -4 -14 -7 -7 -2 6 -9 10 -13 7 -5 -3 -11 -1 -15 5 -3 5
-1 10 6 10 7 0 5 6 -5 13 -11 8 -19 27 -20 44 0 17 -3 30 -6 28 -3 -2 -54 148
-114 333 -60 185 -113 344 -118 352 -7 12 -8 11 -3 -4 6 -19 5 -19 -15 -1 -11
10 -20 14 -20 9 0 -5 -15 -10 -33 -11 -19 -2 -50 -10 -70 -18 -20 -8 -46 -15
-57 -15 -11 0 -20 -4 -20 -10 0 -5 -7 -10 -15 -10 -9 0 -27 -7 -40 -16 -24
-16 -25 -15 -25 5 0 19 -3 20 -21 10 -12 -6 -30 -9 -40 -6 -21 6 -27 -19 -6
-26 6 -2 -17 -7 -52 -11 -35 -4 -70 -14 -78 -22 -9 -8 -34 -14 -64 -14 -28 0
-63 -7 -78 -14 -15 -8 -37 -13 -47 -10 -10 3 -39 -2 -63 -11 -36 -12 -46 -13
-53 -3 -5 9 -8 5 -8 -12 -1 -24 -1 -24 -15 -6 -11 15 -15 16 -16 5 -3 -30 4
-57 72 -282 72 -239 73 -251 25 -245 -14 2 -25 21 -42 73 -12 39 -46 142 -74
230 -55 171 -86 245 -102 245 -6 0 -8 -6 -5 -13 3 -9 -14 -12 -67 -13 -176 -3
-306 -10 -306 -16 0 -5 -18 -8 -40 -8 -23 0 -40 5 -40 11 0 8 -5 8 -15 -1 -10
-8 -76 -15 -192 -19 -98 -5 -191 -9 -208 -9 -16 -1 -77 -4 -135 -7 -58 -2
-150 -7 -205 -9 -179 -9 -348 -15 -465 -19 -63 -2 -122 -6 -130 -9 -30 -13
-76 -21 -126 -23 -28 -1 -56 -5 -62 -9 -6 -4 -55 -9 -109 -11 -55 -2 -129 -13
-168 -24 -38 -11 -73 -17 -77 -15 -4 3 -24 1 -43 -5 -20 -5 -48 -6 -64 -1 -16
4 -35 4 -45 -2 -11 -6 -21 -6 -29 1 -8 6 -27 7 -50 1 -24 -5 -37 -4 -37 3 0 5
-11 -2 -25 -17 -15 -16 -32 -25 -40 -22 -8 3 -15 1 -15 -4 0 -6 -9 -10 -19
-10 -11 0 -21 -5 -23 -12 -2 -6 -13 -12 -24 -13 -11 0 -30 -11 -42 -23 -12
-12 -29 -22 -37 -22 -8 0 -15 -8 -15 -18 0 -14 -7 -17 -40 -14 -35 4 -40 1
-40 -16 0 -15 -9 -21 -37 -26 -67 -12 -133 -30 -133 -36 0 -12 -78 -33 -96
-26 -15 6 -16 0 -10 -46 3 -29 9 -70 12 -90 5 -28 3 -38 -7 -40 -30 -3 -34 -4
-44 -9 -18 -9 -38 -4 -45 11 -13 28 -38 85 -56 128 -19 45 -34 55 -34 21 0
-11 5 -17 10 -14 6 3 10 1 10 -4 0 -22 -39 -11 -43 12 l-4 22 -2 -22 c-1 -20
-7 -23 -40 -23 -22 0 -42 -5 -44 -12 -4 -10 -6 -10 -6 0 -1 6 -8 12 -17 12
-10 0 -14 -6 -10 -15 3 -8 1 -15 -4 -15 -6 0 -10 7 -10 15 0 8 -4 15 -10 15
-5 0 -10 -22 -10 -49 0 -48 -1 -49 -25 -42 -14 3 -31 17 -38 31 -9 18 -20 24
-38 22 -57 -6 -144 -1 -147 8 -6 18 -39 11 -56 -12 -12 -16 -18 -19 -22 -10
-5 10 -9 10 -21 0 -8 -6 -28 -11 -43 -10 -16 1 -31 -2 -35 -8 -3 -5 -19 -10
-36 -10 -16 0 -29 -4 -29 -10 0 -5 -8 -10 -17 -10 -16 -1 -16 -2 1 -15 23 -17
33 -16 -121 -20 -114 -4 -154 -12 -117 -25 16 -6 -97 -11 -261 -12 -27 0 -102
10 -165 22 -63 11 -134 24 -157 27 -33 4 -43 9 -43 24 0 16 -8 18 -72 18 -58
-1 -69 -3 -57 -12 9 -7 17 -16 18 -21 4 -14 -22 -26 -35 -15 -7 6 -17 2 -29
-11 -17 -19 -12 -26 18 -21 10 1 9 -11 -3 -29 -5 -8 -10 -10 -10 -5 0 13 -48
35 -76 35 -31 0 -74 -17 -74 -30 0 -5 9 -10 19 -10 28 0 35 -17 10 -25 -13 -4
-25 -2 -29 5 -6 10 -24 11 -72 5 -34 -4 -89 -8 -120 -9 -49 -1 -58 -4 -58 -19
0 -11 5 -15 11 -11 7 4 9 -1 7 -12 -3 -13 -11 -18 -27 -16 -13 1 -32 -5 -43
-14 -17 -16 -18 -16 -18 -1 0 23 -27 21 -40 -2 -14 -27 -13 -28 12 -27 15 1
23 -6 25 -19 1 -11 0 -14 -3 -7 -8 17 -34 15 -34 -3 0 -18 -37 -20 -42 -3 -3
9 -12 9 -36 -1 -17 -7 -36 -10 -42 -6 -7 4 -14 -2 -17 -15 -3 -13 -11 -19 -19
-16 -20 8 -44 -4 -44 -20 0 -10 -7 -13 -24 -8 -18 4 -28 -1 -44 -21 -19 -23
-25 -25 -54 -17 -29 8 -36 6 -51 -14 -18 -24 -61 -32 -72 -14 -11 17 -58 11
-81 -11 -22 -21 -22 -21 -33 -1 -6 11 -7 22 -4 26 3 3 2 6 -3 6 -4 0 -23 -17
-42 -37 l-33 -38 -19 25 c-11 14 -20 19 -20 13 0 -7 -9 -13 -20 -13 -35 0
-105 -40 -105 -59 0 -3 -10 -5 -22 -3 -12 1 -24 -2 -28 -8 -3 -5 -15 -10 -25
-10 -10 0 -25 -9 -33 -21 -13 -18 -21 -20 -62 -13 -35 5 -46 4 -41 -5 4 -6 1
-11 -8 -11 -8 0 -22 -7 -31 -16 -13 -13 -21 -14 -40 -6 -19 9 -25 8 -29 -4 -4
-12 -14 -14 -36 -9 -29 6 -36 0 -31 -29 1 -5 -5 -3 -14 4 -12 10 -21 10 -38 2
-43 -21 -163 -60 -239 -76 -43 -10 -78 -21 -78 -25 0 -4 -16 -13 -36 -20 -30
-11 -38 -11 -45 0 -6 11 -9 10 -15 -4 -3 -9 -17 -17 -29 -17 -13 0 -46 -11
-74 -25 -60 -31 -232 -68 -282 -62 -20 3 -44 0 -54 -6 -19 -10 -47 -14 -145
-21 -30 -2 -75 -9 -99 -15 -24 -7 -58 -11 -77 -9 -18 1 -36 -1 -40 -5 -13 -13
-34 -7 -28 8 4 10 0 15 -14 15 -11 0 -22 -4 -24 -10 -3 -9 -40 -11 -143 -9
-100 2 -237 -9 -247 -19 -14 -14 -88 -16 -88 -3 0 5 -55 9 -122 8 -121 0 -152
2 -273 23 -33 6 -82 13 -110 16 -27 3 -79 10 -115 15 -36 6 -105 12 -155 15
-49 3 -108 10 -130 16 -22 6 -59 10 -83 9 -23 -1 -55 5 -70 13 -15 8 -44 14
-66 14 -21 0 -43 5 -49 11 -6 6 -32 11 -57 11 -25 0 -54 6 -65 13 -11 7 -44
14 -74 15 -30 1 -59 6 -66 12 -7 6 -16 5 -23 -2 -9 -9 -12 -9 -12 1 0 9 -4 9
-15 -2 -12 -13 -6 -43 51 -238 90 -310 95 -331 101 -359 l4 -25 -16 25 -15 25
6 -28 6 -28 -42 22 c-35 18 -43 20 -51 8 -6 -9 -9 -10 -9 -2 0 6 -9 10 -19 8
-14 -3 -22 5 -30 26 -5 16 -7 29 -4 29 3 0 1 6 -5 13 -5 6 -47 127 -92 267
-45 140 -88 262 -95 270 -7 8 -10 22 -8 30 3 11 0 10 -10 -3 -14 -17 -16 -16
-25 10 -8 20 -11 23 -11 9 -1 -19 -2 -18 -24 3 -14 12 -36 21 -53 21 -114 -2
-174 2 -174 10 0 12 -101 10 -117 -3 -7 -5 -24 -6 -37 -3 -27 7 -89 -6 -179
-36 -32 -11 -65 -17 -72 -14 -8 3 -17 0 -21 -6 -5 -7 -12 -5 -21 8 -12 17 -13
13 -8 -34 3 -29 10 -65 16 -78 12 -34 11 -84 -2 -84 -6 0 -9 7 -5 15 7 20 1
19 -20 -2 -17 -17 -17 -17 -10 2 5 11 10 31 12 45 l4 25 -8 -25 -8 -24 -17 24
c-9 13 -17 31 -17 38 0 8 -8 27 -17 43 -21 35 -53 38 -142 10 -33 -10 -63 -16
-66 -13 -6 6 -56 -18 -66 -32 -4 -4 -42 -9 -85 -11 -44 -1 -110 -10 -149 -19
-38 -9 -80 -16 -91 -16 -12 0 -33 -9 -47 -20 -16 -13 -27 -16 -29 -9 -3 9 -13
9 -38 0 -109 -35 -134 -40 -223 -40 -53 0 -109 -4 -123 -7 -46 -12 -69 -10
-81 6 -13 17 12 -83 64 -250 45 -147 48 -160 34 -160 -6 0 -13 6 -16 13 -2 6
-29 91 -59 187 -53 166 -75 223 -76 192 0 -7 -4 -10 -10 -7 -5 3 -10 0 -10 -7
0 -9 -3 -9 -10 2 -6 10 -10 11 -10 3 0 -8 -16 -13 -42 -14 -35 0 -39 -2 -23
-10 17 -8 16 -8 -5 -3 -14 4 -82 9 -152 11 -118 5 -129 3 -154 -16 -15 -11
-44 -26 -65 -31 -22 -6 -39 -17 -39 -25 0 -8 -13 -15 -32 -17 -25 -2 -33 -9
-39 -32 -10 -35 -24 -46 -61 -46 -16 0 -28 -4 -28 -9 0 -5 -17 -15 -37 -22
-21 -6 -40 -15 -43 -20 -3 -4 -23 -10 -44 -15 l-40 -7 35 32 c23 23 28 31 14
26 -11 -4 -50 -10 -87 -12 -46 -4 -68 -10 -68 -18 0 -7 -14 -18 -31 -24 -40
-14 -109 -14 -109 -1 0 12 -27 13 -32 2 -4 -12 -186 -62 -201 -56 -7 2 -22 -4
-32 -16 -10 -11 -26 -20 -37 -20 -10 0 -18 -6 -18 -12 -1 -7 -7 -2 -16 12
l-15 25 7 -25 c6 -21 5 -23 -8 -12 -19 15 -15 -2 49 -225 24 -83 43 -162 42
-175 0 -22 -1 -22 -9 -3 -7 17 -9 16 -16 -15 -7 -34 -8 -34 -15 -10 -6 23 -7
23 -8 -7 -1 -31 -3 -33 -40 -33 -39 0 -59 19 -44 42 3 6 2 8 -4 5 -6 -4 -34
67 -68 171 -50 155 -85 234 -85 194 0 -16 -57 -16 -63 1 -4 8 -8 9 -14 1 -13
-18 -75 -23 -91 -7 -18 17 -78 12 -95 -9 -14 -18 -57 -30 -57 -17 0 13 -69 1
-97 -17 -12 -8 -31 -14 -43 -14 -11 0 -20 -7 -20 -15 0 -9 -9 -15 -23 -15 -13
0 -39 -7 -56 -16 -18 -9 -62 -19 -97 -22 -35 -2 -64 -9 -64 -13 0 -5 -37 -10
-82 -11 -71 -1 -77 -2 -38 -8 44 -7 44 -7 10 -9 -19 -2 -71 -2 -116 -1 -45 1
-100 -4 -124 -10 -30 -8 -45 -8 -49 -1 -5 7 -20 4 -46 -9 -42 -19 -81 -24
-202 -21 -58 1 -73 4 -73 16 0 8 -9 15 -20 15 -14 0 -20 -7 -20 -24 0 -19 -4
-23 -20 -19 -13 4 -20 14 -20 30 l0 25 -80 -7 c-76 -7 -80 -6 -80 13 0 21 -10
25 -103 38 -27 3 -51 13 -56 22 -7 13 -13 14 -40 2 -25 -10 -29 -15 -20 -26
14 -17 1 -18 -35 -4 -32 12 -33 28 -4 39 17 6 2 10 -57 16 -55 5 -80 4 -83 -4
-5 -15 -32 -14 -32 2 0 6 -12 20 -25 30 -22 16 -25 16 -25 2 0 -12 -6 -14 -28
-9 -51 13 -72 23 -72 38 0 7 -14 19 -30 26 -16 7 -30 18 -30 26 0 7 -12 14
-27 16 -22 2 -29 10 -37 38 -5 19 -10 36 -11 38 -6 8 -55 -23 -55 -35 0 -26
-46 -13 -79 22 -20 21 -42 35 -57 35 -17 0 -24 6 -24 19 0 29 -16 34 -46 14
-20 -13 -29 -14 -32 -5 -2 6 -13 12 -23 12 -11 0 -18 4 -15 9 12 18 -21 29
-81 26 -33 -1 -66 -5 -71 -9 -16 -10 -41 4 -35 20 4 11 -2 14 -26 12 -28 -2
-35 -9 -32 -30 1 -11 -34 -19 -114 -27 -46 -4 -71 -3 -68 3 4 5 -3 6 -18 2
-66 -20 -72 -20 -64 3 6 20 5 22 -13 12 -12 -6 -50 -11 -86 -11 -56 0 -66 -3
-66 -17 -1 -13 -5 -10 -16 10 -21 39 -25 33 -9 -13 8 -22 12 -40 9 -40 -2 0
-1 -8 4 -17 5 -10 6 -27 1 -38 -4 -11 -8 -14 -8 -6 -1 10 -4 11 -14 3 -9 -8
-13 -7 -14 6 -1 9 -6 33 -11 52 -9 30 -10 32 -12 10 -1 -14 -4 -19 -7 -12 -2
6 -9 10 -14 6 -5 -3 -9 2 -9 11 0 9 4 14 9 10 11 -6 26 33 17 42 -3 4 -6 0 -6
-9 0 -8 -15 -23 -34 -33 -24 -13 -38 -30 -47 -58 -7 -21 -19 -41 -26 -44 -7
-3 -13 -14 -13 -24 0 -10 -5 -19 -11 -19 -7 0 -18 -8 -26 -17 -13 -16 -13 -16
-4 4 6 12 16 24 23 26 8 3 6 6 -5 6 -28 1 -57 -18 -57 -38 0 -12 -7 -18 -17
-17 -12 0 -19 -7 -21 -21 -2 -14 -16 -29 -38 -39 -37 -18 -53 -34 -33 -34 8 0
5 -5 -5 -13 -10 -7 -16 -22 -14 -32 2 -12 -4 -21 -14 -23 -13 -2 -18 3 -18 19
0 22 0 22 -15 3 -17 -22 -20 -60 -5 -69 6 -3 10 -12 10 -20 0 -15 -27 -45 -40
-45 -17 0 -39 31 -33 46 5 14 3 14 -15 3 -16 -10 -18 -17 -11 -36 5 -14 9 -27
9 -29 0 -10 -25 2 -26 12 0 5 -6 21 -12 37 -10 24 -17 27 -57 27 -25 0 -45 -4
-45 -10 0 -5 7 -10 16 -10 13 0 14 -3 5 -14 -17 -21 -119 -68 -131 -61 -6 3
-7 0 -4 -9 7 -18 34 -22 34 -6 0 6 10 10 23 9 l22 0 -22 -9 c-28 -11 -30 -30
-4 -30 38 0 31 -19 -10 -30 -23 -7 -48 -18 -56 -26 -8 -8 -23 -14 -33 -14 -28
0 -35 -19 -14 -35 18 -13 17 -14 -8 -15 -15 0 -30 -5 -33 -11 -4 -5 -18 -14
-31 -19 -13 -5 -24 -18 -24 -28 0 -10 -11 -25 -25 -32 -14 -7 -25 -22 -25 -32
0 -10 -7 -18 -15 -18 -17 0 -57 -20 -67 -34 -3 -5 -17 -11 -29 -13 -29 -4 -29
-4 -40 -53 -6 -26 -6 -47 0 -59 9 -17 5 -18 -60 -20 -87 -2 -146 -32 -132 -68
4 -9 -4 -13 -26 -13 -24 0 -29 -3 -24 -17 4 -11 3 -14 -5 -9 -21 13 -82 -5
-82 -24 0 -9 -10 -26 -22 -38 -13 -12 -39 -38 -60 -57 -28 -28 -45 -36 -80
-39 -66 -4 -78 -13 -78 -56 0 -29 -4 -39 -20 -43 -14 -3 -20 -14 -20 -31 0
-15 -10 -46 -22 -71 -21 -41 -26 -44 -60 -45 -21 0 -38 4 -38 10 0 5 -7 7 -15
4 -8 -4 -15 -12 -15 -19 0 -8 -11 -22 -25 -33 -14 -11 -25 -25 -25 -30 0 -11
-15 -17 -71 -26 -21 -4 -42 -13 -49 -21 -7 -8 -19 -15 -26 -15 -8 0 -14 -10
-14 -24 0 -22 -13 -36 -75 -84 -17 -13 -80 -37 -89 -34 -6 2 -19 -1 -30 -6
-12 -6 -36 -16 -54 -22 -20 -8 -31 -18 -28 -26 5 -14 -28 -29 -42 -20 -5 3
-25 0 -45 -6 -25 -8 -37 -17 -37 -30 0 -10 -7 -18 -15 -18 -8 0 -17 -11 -21
-25 -6 -26 -18 -32 -29 -15 -12 19 -41 -8 -55 -49 -8 -24 -19 -41 -28 -41 -9
0 -26 -10 -38 -21 -13 -12 -39 -23 -59 -24 -19 -1 -62 -16 -95 -33 -33 -17
-60 -27 -60 -22 0 15 -79 -25 -84 -42 -3 -13 -14 -18 -40 -18 -20 0 -36 -4
-36 -10 0 -5 -7 -10 -15 -10 -8 0 -18 -14 -23 -32 -9 -39 -63 -70 -126 -73
-67 -3 -76 -5 -76 -14 0 -4 19 -13 43 -19 l42 -11 -45 1 c-68 0 -70 -1 -70
-21 0 -25 -10 -31 -57 -36 -100 -9 -153 -19 -142 -25 16 -11 3 -41 -15 -34 -8
3 -28 -2 -45 -11 -19 -9 -31 -11 -31 -5 0 12 -60 -17 -72 -35 -5 -6 -12 -5
-20 3 -18 18 -34 15 -46 -12 -10 -23 -62 -56 -89 -56 -7 0 -13 -7 -13 -15 0
-10 11 -15 33 -16 28 0 24 -3 -33 -25 -39 -15 -77 -23 -96 -20 -18 2 -36 0
-42 -6 -6 -6 -26 -12 -44 -13 -18 -2 -60 -8 -93 -14 -33 -6 -70 -12 -82 -11
-13 0 -24 -8 -28 -20 -4 -11 -10 -20 -15 -20 -4 0 -11 -12 -15 -27 -5 -21 -8
-24 -15 -13 -20 33 -22 -6 -5 -97 10 -54 19 -100 19 -103 0 -3 -17 -11 -38
-18 -48 -15 -55 -8 -87 92 l-22 68 -51 -7 c-28 -3 -62 -6 -75 -7 -13 0 -30 -6
-38 -13 -15 -15 -112 -30 -143 -22 -25 6 -98 -62 -79 -74 8 -5 8 -8 0 -13 -6
-4 -11 -2 -11 4 0 16 -53 0 -68 -22 -7 -10 -22 -18 -33 -18 -29 0 -59 -18 -59
-35 0 -9 10 -15 26 -15 14 0 23 -4 19 -10 -9 -15 -34 -12 -51 5 -20 19 -61 19
-80 0 -12 -12 -12 -15 -2 -16 7 0 -5 -7 -27 -15 -26 -9 -41 -11 -43 -4 -5 13
-82 13 -82 0 0 -5 -6 -10 -13 -10 -7 0 -18 -9 -25 -20 -7 -11 -19 -20 -27 -20
-9 0 -15 -10 -15 -25 0 -21 -5 -25 -29 -25 -17 0 -33 -4 -36 -10 -4 -6 8 -10
29 -10 29 0 36 -4 36 -20 0 -21 -16 -25 -57 -14 -13 4 -23 13 -23 20 0 10 -13
14 -40 14 -22 0 -40 -4 -40 -9 0 -6 -21 -12 -47 -14 l-48 -3 48 -2 c58 -2 63
-22 5 -23 -24 0 -61 -6 -83 -14 l-40 -13 33 -1 c24 -1 32 -5 32 -20 0 -21 -52
-41 -58 -22 -9 26 -132 2 -132 -25 0 -11 -16 -14 -63 -14 -37 0 -69 -5 -76
-12 -11 -11 -14 -10 -18 0 -6 16 -33 -3 -33 -24 0 -8 -10 -14 -22 -14 -48 -1
-133 -13 -138 -20 -5 -6 -88 -20 -150 -25 -80 -5 -120 -18 -120 -36 0 -11 -4
-19 -10 -19 -5 0 -10 -8 -10 -19 0 -14 -10 -20 -39 -25 -22 -3 -46 -9 -55 -12
-12 -4 -16 0 -16 15 0 21 -1 21 -30 6 -36 -18 -126 -20 -133 -2 -3 6 -6 3 -6
-8 -1 -17 -3 -17 -11 -5 -5 8 -10 12 -10 9 0 -14 181 -634 234 -801 8 -27 12
-48 9 -48 -3 0 0 -7 7 -15 7 -8 10 -22 6 -30 -3 -9 -2 -13 4 -10 6 3 10 -3 10
-15 0 -12 4 -29 9 -38 12 -24 24 -78 15 -70 -4 4 -13 0 -21 -10 -8 -9 -12 -12
-10 -7 2 6 1 19 -4 30 -6 15 -8 16 -8 4 -1 -9 -7 -19 -15 -22 -10 -4 -12 0 -9
14 3 10 1 19 -4 19 -12 0 -27 39 -83 220 -23 74 -76 239 -117 365 -42 127 -85
260 -97 297 -11 37 -25 68 -29 68 -5 0 -5 -4 -2 -10 3 -5 1 -10 -4 -10 -6 0
-11 5 -11 12 0 6 -11 1 -24 -11 -19 -18 -31 -21 -58 -16 -25 5 -38 2 -47 -9
-8 -9 -20 -16 -27 -16 -8 0 -14 -9 -14 -19 0 -15 -10 -21 -40 -26 -34 -6 -40
-11 -40 -31 0 -21 -4 -24 -40 -24 -27 0 -40 4 -40 13 0 10 -17 14 -60 14 -58
0 -76 -9 -44 -21 9 -3 25 -6 36 -6 17 0 18 -3 8 -15 -7 -8 -16 -12 -21 -9 -5
3 -21 -4 -35 -15 -15 -12 -31 -21 -37 -21 -5 0 2 9 17 21 14 11 26 26 26 32 0
7 -8 2 -18 -10 -9 -12 -28 -23 -42 -25 -18 -2 -27 -12 -34 -35 -5 -18 -15 -33
-22 -33 -8 0 -14 -3 -14 -7 0 -11 -58 -43 -77 -43 -11 0 -14 7 -11 23 4 20 1
22 -28 19 -17 -2 -35 1 -38 7 -4 6 -13 11 -19 11 -7 0 -4 -5 6 -11 9 -5 17
-18 17 -28 0 -16 -6 -18 -45 -13 -41 4 -45 3 -45 -17 0 -18 -6 -21 -40 -21
-29 0 -40 -4 -40 -15 0 -15 -11 -19 -39 -15 -8 1 -17 -4 -21 -10 -7 -11 31
-151 114 -425 18 -60 46 -155 61 -210 15 -55 33 -117 41 -137 7 -21 11 -52 8
-70 -5 -26 -3 -30 6 -18 9 12 10 11 5 -8 -4 -13 -1 -29 5 -37 15 -18 4 -36
-16 -28 -10 4 -14 14 -11 30 3 17 1 23 -9 19 -7 -3 -14 0 -17 7 -3 9 -10 9
-30 0 -23 -11 -27 -10 -27 2 0 8 -5 15 -10 15 -6 0 -8 12 -5 28 3 15 3 22 0
16 -3 -7 -16 -9 -27 -6 -21 5 -21 6 -2 13 18 8 18 8 -3 14 -23 8 -16 -12 -169
460 -79 244 -89 269 -106 259 -5 -3 -15 -1 -22 5 -7 6 -21 9 -30 5 -31 -12
-16 -24 32 -25 l47 -1 -45 -15 c-25 -9 -46 -20 -48 -24 -2 -5 -11 -9 -20 -9
-12 0 -13 3 -5 11 19 19 -5 34 -71 47 -44 9 -62 9 -67 1 -4 -8 -36 -10 -98 -7
-79 4 -92 2 -96 -13 -3 -9 -16 -24 -28 -32 -21 -14 -23 -13 -22 12 0 22 -5 26
-33 29 -33 3 -34 3 -27 -30 4 -18 16 -62 26 -98 11 -35 27 -98 35 -140 9 -41
22 -94 30 -118 18 -55 18 -71 -2 -46 -15 18 -15 17 -10 -13 7 -42 -1 -42 -13
0 -9 31 -9 31 -10 5 -1 -31 -21 -39 -21 -9 0 11 -4 22 -9 26 -5 3 -7 21 -4 40
6 39 -3 85 -17 85 -6 0 -10 -7 -10 -16 0 -13 -3 -14 -14 -5 -12 10 -13 8 -9
-10 13 -47 -15 -7 -37 53 -13 35 -28 77 -35 93 -7 17 -23 58 -36 93 -20 51
-25 59 -29 40 -3 -13 -15 -24 -25 -26 -11 -2 -24 -8 -29 -13 -13 -12 -66 -11
-66 1 0 6 -11 10 -25 10 -14 0 -25 -6 -25 -14 0 -15 -114 -31 -146 -20 -14 4
-15 3 -6 -4 18 -12 -6 -22 -54 -22 -20 0 -34 -5 -34 -12 0 -7 -18 7 -40 32
-25 29 -40 39 -40 29 0 -14 -15 -18 -80 -24 -44 -4 -80 -11 -80 -16 0 -5 -18
-9 -40 -9 -22 0 -40 -4 -40 -10 0 -5 -22 -10 -50 -10 -37 0 -50 -4 -50 -15 0
-25 -23 -65 -37 -65 -7 0 -14 10 -14 23 -1 16 -2 18 -6 5 -3 -13 -15 -18 -41
-18 -39 0 -64 -11 -63 -26 1 -5 -12 -13 -29 -17 -30 -8 -40 -31 -17 -40 6 -3
-53 -4 -133 -2 -90 1 -116 0 -70 -4 59 -5 71 -8 57 -16 -9 -6 -38 -8 -65 -5
-51 6 -122 -16 -122 -37 0 -8 -15 -13 -40 -13 -22 0 -40 5 -40 10 0 6 -33 10
-80 10 -64 0 -80 -3 -80 -15 0 -11 12 -15 43 -17 l42 -1 -45 -6 c-44 -6 -44
-7 30 -15 52 -6 69 -11 55 -16 -35 -14 -170 4 -160 20 3 6 -5 10 -19 10 -21 0
-26 5 -26 25 l0 25 -118 -6 c-64 -4 -118 -11 -120 -15 -4 -9 -73 20 -83 35 -4
5 -42 11 -85 15 -70 5 -74 6 -39 12 29 5 23 6 -19 3 -32 -2 -88 -4 -122 -4
-50 0 -64 -3 -64 -15 0 -10 -10 -15 -30 -15 -22 0 -30 5 -30 18 0 11 -3 13 -8
6 -4 -6 -23 -15 -42 -19 -19 -4 -37 -11 -40 -16 -3 -5 -19 -4 -35 0 -29 9 -29
9 -5 11 25 2 25 2 -4 12 -21 8 -30 7 -36 -1 -5 -10 -22 -10 -71 -1 -35 7 -72
17 -83 22 -21 11 -163 0 -172 -13 -3 -5 16 -9 43 -9 l48 0 -42 -26 c-42 -24
-43 -25 -68 -7 -13 10 -25 23 -25 29 0 7 -7 14 -15 18 -8 3 -15 13 -15 22 0
13 -9 15 -45 12 -31 -2 -45 1 -45 9 0 7 -4 13 -10 13 -5 0 -10 -12 -10 -26 0
-23 -2 -25 -16 -13 -13 11 -14 9 -8 -17 3 -16 12 -42 20 -58 8 -16 11 -32 8
-37 -5 -9 1 -29 165 -564 22 -71 103 -334 181 -584 78 -249 139 -455 136 -458
-11 -12 -34 7 -40 34 -10 39 -332 1088 -401 1303 -31 96 -64 204 -75 238 -28
92 -43 122 -61 122 -16 0 -36 46 -25 57 3 3 8 -6 12 -21 3 -14 10 -26 15 -26
13 0 11 12 -6 54 -16 38 -35 40 -35 5 0 -26 -12 -24 -38 6 -17 19 -28 23 -51
19 -16 -4 -31 -1 -35 5 -10 16 -68 13 -94 -5 -19 -13 -22 -13 -22 -1 0 22 -87
27 -103 7 -11 -13 -10 -13 6 -1 9 7 17 9 17 3 0 -8 -22 -22 -35 -22 -1 0 -6
11 -9 24 -6 25 -31 36 -83 36 -23 0 -33 5 -33 15 0 11 -11 15 -40 15 -22 0
-40 4 -40 8 0 17 -72 42 -120 42 -38 0 -50 4 -50 15 0 8 -4 15 -10 15 -5 0
-10 6 -10 13 0 16 -45 57 -63 57 -6 0 -29 -16 -51 -35 -47 -43 -86 -48 -78
-10 2 15 0 25 -7 25 -6 0 -11 7 -11 15 0 11 11 15 40 15 22 0 40 5 40 10 0 6
-18 10 -40 10 -22 0 -40 4 -40 9 0 5 -36 12 -80 16 -44 4 -80 11 -80 16 0 5
-8 9 -17 9 -12 0 -14 3 -6 8 8 5 2 19 -22 47 -25 29 -34 35 -35 23 0 -14 -9
-18 -38 -18 -21 0 -41 -2 -44 -5 -9 -9 4 -55 13 -49 5 3 6 -2 3 -10 -3 -9 -2
-16 4 -16 5 0 7 -12 4 -26 -3 -17 -1 -25 6 -21 5 4 13 0 16 -9 9 -24 7 -31 -5
-14 -10 13 -10 13 -6 0 2 -8 26 -85 52 -170 94 -310 357 -1169 400 -1305 145
-464 344 -1113 347 -1129 2 -16 -7 -23 -45 -34 -27 -7 -50 -12 -52 -10 -2 2
-60 188 -130 413 -465 1503 -535 1727 -647 2080 -39 121 -73 230 -75 242 -3
13 -8 21 -12 19 -3 -2 -7 6 -8 17 -4 47 -16 87 -25 87 -6 0 -8 -9 -5 -20 3
-11 1 -20 -3 -20 -17 0 -19 17 -6 36 9 12 11 25 5 35 -4 9 -6 19 -4 23 3 3 2
4 -2 1 -11 -8 -32 16 -26 31 3 8 0 14 -6 14 -6 0 -11 -4 -11 -8 0 -5 -6 -9
-12 -9 -7 -1 -34 -4 -60 -8 -46 -7 -48 -7 -49 16 -5 72 -18 114 -32 100 -9 -9
-2 -49 21 -111 3 -8 7 -25 8 -37 2 -12 16 -78 33 -147 32 -128 38 -170 19
-126 l-11 25 -8 -25 c-6 -18 -7 -12 -3 18 l6 42 -45 0 c-27 0 -47 5 -50 13 -3
6 -6 3 -6 -8 -1 -19 -2 -19 -16 2 -8 12 -16 29 -18 40 -1 10 -6 24 -11 31 -4
7 -18 43 -31 80 -60 173 -63 179 -81 151 -4 -8 -9 -7 -15 2 -30 48 3 -69 252
-880 55 -178 98 -325 97 -326 -2 -1 -18 -7 -35 -13 l-33 -11 -31 102 c-17 56
-67 217 -111 357 -44 140 -90 289 -103 330 -85 277 -140 438 -146 434 -4 -2
-5 4 -2 14 6 24 -14 75 -27 67 -6 -4 -10 -12 -9 -18 3 -24 -1 -37 -11 -37 -14
0 -13 47 1 52 17 6 10 101 -8 118 -3 3 -4 -5 -1 -16 5 -18 1 -21 -17 -20 -21
1 -25 26 -4 26 16 0 10 15 -12 28 -19 12 -20 12 -14 -10 7 -23 7 -23 -12 2
-10 14 -18 28 -19 33 -1 4 -2 10 -3 14 0 4 -6 2 -13 -5 -17 -17 -39 -15 -54 6
-13 16 -15 16 -27 0 -12 -15 -14 -13 -27 15 -18 44 -56 81 -75 73 -19 -7 -20
-26 0 -26 8 0 15 -7 15 -15 0 -19 -32 -19 -85 0 -22 8 -57 15 -77 15 -29 0
-36 3 -32 15 4 9 19 15 40 15 l33 0 -23 25 c-13 14 -28 25 -35 25 -6 0 -11 5
-11 10 0 6 -18 10 -40 10 -38 0 -40 2 -40 30 0 21 -5 30 -16 30 -14 0 -15 -2
-3 -17 12 -14 12 -16 -1 -11 -8 2 -16 15 -16 28 -2 28 -34 56 -45 38 -5 -7
-15 -2 -32 15 -27 29 -47 35 -47 13 0 -22 -28 -27 -35 -7 -3 10 -14 26 -25 36
-11 10 -20 31 -20 47 0 16 -6 31 -15 34 -8 4 -15 14 -15 24 0 10 -7 20 -15 24
-8 3 -15 12 -15 20 0 17 -27 27 -79 30 -38 2 -101 26 -101 38 0 5 -9 8 -20 8
-25 0 -58 69 -38 81 9 6 8 16 -5 44 -9 20 -17 44 -17 54 0 12 -13 22 -40 30
-29 9 -40 17 -40 31 0 17 -7 20 -40 20 -33 0 -40 -3 -40 -19 0 -11 9 -23 21
-26 11 -4 18 -9 16 -12 -7 -6 -50 16 -59 31 -13 19 -9 64 7 80 21 20 19 36 -4
36 -10 0 -21 6 -24 13 -3 7 -23 19 -46 27 -27 9 -41 19 -41 31 0 10 -7 24 -15
33 -9 8 -14 19 -13 23 4 10 -61 73 -74 73 -5 0 -6 4 -3 10 3 5 0 7 -7 5 -8 -3
-18 7 -25 26 -10 25 -17 30 -33 26 -18 -4 -20 0 -20 34 0 29 -5 41 -21 50 -16
8 -18 13 -9 19 9 5 9 9 1 14 -6 4 -11 3 -11 -2 0 -9 -51 -32 -70 -32 -4 0 -7
11 -7 25 0 17 5 25 17 25 10 0 21 -6 23 -12 3 -7 6 -4 6 8 1 15 -5 20 -22 20
-20 -1 -22 3 -22 60 l0 60 -38 -3 c-20 -2 -37 1 -37 6 0 5 -10 13 -22 16 -25
9 -68 53 -68 71 0 18 -37 38 -42 23 -3 -9 -14 -8 -41 2 -28 10 -37 19 -36 34
3 42 0 45 -46 45 -33 0 -50 5 -62 20 -10 11 -23 20 -30 20 -12 0 -17 12 -14
32 1 8 -74 20 -129 22 -29 1 -36 5 -40 27 -8 39 -44 79 -73 79 -58 0 -87 12
-87 35 0 27 -22 48 -42 40 -9 -4 -22 0 -30 8 -21 22 -77 49 -88 42 -5 -3 -15
3 -22 13 -7 11 -23 22 -35 26 -14 4 -23 15 -23 27 0 13 -7 19 -23 19 -13 0
-32 7 -43 15 -19 14 -18 14 4 15 12 0 22 5 22 10 0 6 -8 10 -19 10 -22 0 -74
46 -66 59 3 5 -4 12 -15 16 -11 3 -20 13 -20 21 0 8 -9 14 -20 14 -11 0 -20 7
-20 15 0 28 -30 16 -37 -15 -4 -25 -8 -28 -20 -19 -8 7 -11 19 -9 26 4 9 -13
31 -40 56 -42 39 -44 42 -24 49 28 10 18 25 -27 37 -26 8 -39 7 -44 0 -4 -8
-14 -4 -28 10 -12 12 -19 26 -16 31 3 5 -4 14 -15 20 -22 12 -28 66 -8 72 7 3
9 11 4 24 -8 19 -8 19 -15 -1 -7 -18 -9 -18 -34 7 -15 15 -27 36 -27 48 0 11
-4 20 -10 20 -5 0 -10 -7 -10 -15 0 -16 -30 -20 -45 -6 -6 5 -34 16 -63 26
-49 16 -52 19 -58 56 -4 22 -12 38 -18 37 -17 -3 -56 12 -56 23 0 5 -7 9 -15
9 -9 0 -18 7 -21 15 -10 25 -41 37 -65 25 -16 -9 -26 -8 -44 4 -14 9 -40 16
-60 16 -28 0 -35 4 -35 20 0 19 -32 44 -60 46 -8 1 -23 2 -32 3 -10 0 -18 5
-18 11 0 12 -32 50 -42 50 -5 0 -8 -7 -8 -15 0 -8 5 -15 12 -15 8 0 7 -6 -4
-16 -12 -13 -20 -14 -37 -5 -25 14 -51 71 -51 112 0 24 -6 30 -41 41 -26 7
-45 20 -52 35 -13 30 -122 85 -152 77 -13 -3 -27 1 -34 10 -8 9 -19 16 -26 16
-8 0 -15 5 -17 11 -2 7 -29 12 -64 13 -59 1 -94 18 -94 45 0 11 -75 22 -173
24 -46 1 -67 6 -67 15 0 12 -56 18 -145 15 -22 -1 -34 0 -27 3 26 12 10 24
-30 24 -55 0 -78 13 -52 29 16 9 12 10 -22 11 -33 0 -49 7 -80 36 -28 25 -40
31 -42 20 -3 -12 -24 -14 -129 -10 -130 4 -151 10 -188 50 -12 13 -29 24 -36
24 -8 0 -23 6 -34 14 -27 18 -79 30 -70 16 7 -12 -34 -12 -80 0 l-30 8 30 1
c37 2 72 21 39 21 -13 0 -24 8 -27 19 -5 19 -62 39 -75 27 -7 -7 10 -77 44
-186 13 -41 48 -160 79 -265 56 -190 81 -270 214 -697 39 -124 71 -232 71
-238 0 -6 -6 -10 -12 -8 -13 5 -100 286 -92 299 2 4 0 9 -5 11 -4 1 -20 41
-34 88 -52 177 -255 817 -290 915 -23 66 -47 116 -47 100 0 -5 -10 1 -20 14
-11 13 -20 17 -20 10 0 -10 -3 -10 -11 -2 -18 18 -43 -12 -35 -40 17 -59 66
-247 66 -252 0 -3 -14 2 -30 10 -17 9 -36 13 -42 9 -7 -5 -9 -2 -5 9 3 9 0 18
-9 21 -8 3 -14 16 -14 30 0 13 -4 26 -8 28 -5 2 -29 66 -55 143 -56 171 -79
227 -85 203 -2 -10 -8 -18 -13 -18 -6 0 -8 3 -6 8 3 4 -15 5 -40 3 -32 -2 -49
2 -65 15 -19 18 -20 18 -36 -1 -18 -21 -51 -22 -64 -1 -6 8 -8 7 -8 -2 0 -7
-5 -10 -11 -6 -8 4 -8 9 0 17 15 15 14 27 -4 27 -8 0 -15 8 -16 18 0 10 -3 12
-6 5 -2 -7 -11 -13 -19 -13 -8 0 -14 -4 -14 -9 0 -5 -27 -7 -60 -4 -60 6 -60
6 -60 -21 0 -24 -2 -26 -15 -12 -8 8 -15 22 -15 30 0 10 -9 16 -24 16 -13 0
-26 5 -28 11 -5 14 -78 3 -78 -11 0 -18 -29 -10 -40 9 -13 26 -62 36 -89 19
-18 -11 -23 -11 -30 1 -6 9 -16 11 -27 7 -16 -6 -16 -9 -4 -17 11 -8 7 -9 -17
-5 -23 4 -33 2 -33 -7 0 -7 -15 -13 -35 -14 -19 -1 -42 -9 -51 -17 -18 -19
-74 -21 -74 -3 0 7 -7 4 -15 -7 -13 -17 -15 -17 -15 -4 0 22 -18 32 -33 20 -7
-6 -29 -10 -50 -10 -21 0 -46 -7 -56 -16 -10 -9 -22 -16 -28 -16 -6 0 -14 -6
-17 -12 -3 -9 -8 -8 -16 4 -10 16 -14 17 -47 3 -19 -8 -39 -12 -44 -9 -5 3
-25 0 -45 -6 -22 -8 -39 -8 -47 -2 -18 14 -117 25 -117 12 0 -5 -6 -10 -14
-10 -8 0 -17 -6 -20 -12 -3 -9 -9 -8 -20 5 -14 18 -15 18 -36 -3 -16 -16 -25
-19 -33 -11 -16 16 -42 14 -57 -4 -7 -8 -23 -15 -36 -15 -28 0 -74 -20 -74
-32 0 -4 -6 -8 -14 -8 -8 0 -16 -5 -18 -11 -3 -9 -13 -9 -41 0 -59 20 -234 2
-250 -25 -4 -7 -14 -11 -22 -8 -8 4 -15 2 -15 -3 0 -5 -19 -10 -42 -11 -26 -1
-46 -8 -51 -17 -4 -9 -22 -15 -40 -15 -32 0 -130 -30 -144 -43 -14 -15 -31 -6
-26 13 6 22 -7 26 -24 9 -6 -6 -37 -12 -70 -14 -32 -2 -63 -3 -69 -4 -6 -1
-19 -16 -29 -35 -18 -33 -19 -33 -39 -15 -19 18 -36 25 -36 14 0 -21 34 -134
39 -131 3 2 6 -8 7 -24 1 -26 39 -171 71 -275 12 -35 13 -50 4 -53 -6 -2 -11
-11 -12 -20 0 -14 -2 -13 -9 3 -6 13 -9 15 -9 5 -1 -10 -4 -11 -9 -4 -9 15
-62 27 -62 15 0 -5 4 -13 10 -16 13 -8 13 -45 0 -65 -7 -11 -9 -5 -5 20 4 27
3 30 -4 15 -9 -18 -10 -18 -10 6 -1 14 -4 28 -7 32 -7 6 -112 307 -121 343 -5
21 -52 44 -92 44 -12 0 -19 4 -16 10 4 6 -16 8 -52 6 -63 -4 -93 -13 -93 -27
0 -5 -9 -9 -20 -9 -15 0 -20 7 -20 26 0 16 -5 24 -12 21 -8 -2 -13 -23 -13
-53 -1 -54 -8 -57 -56 -23 -26 19 -30 19 -53 4 -19 -13 -25 -13 -29 -3 -4 11
-6 11 -6 0 -1 -7 -6 -10 -12 -7 -6 4 -23 -7 -38 -24 -33 -37 -36 -38 -64 -7
-18 20 -29 23 -60 19 -31 -4 -35 -8 -26 -19 14 -17 -2 -19 -19 -2 -9 9 -12 8
-12 -5 0 -11 -8 -17 -25 -17 -21 0 -25 5 -25 30 0 26 -4 30 -26 30 -58 0 -115
-23 -143 -57 -24 -29 -35 -34 -77 -37 -46 -2 -49 -4 -49 -31 -1 -16 -6 -30
-13 -33 -7 -2 -12 -10 -12 -17 0 -19 -18 -23 -64 -14 -35 6 -43 4 -69 -21 -26
-24 -29 -31 -18 -44 11 -13 9 -17 -13 -26 -14 -5 -26 -14 -26 -19 0 -6 -17
-13 -37 -17 -46 -8 -73 -21 -73 -35 0 -6 8 -9 18 -7 9 2 16 10 15 16 -2 7 8
12 22 12 32 0 32 -13 0 -34 -15 -10 -46 -16 -81 -16 -46 0 -55 -3 -50 -15 3
-8 9 -22 12 -30 5 -11 -1 -15 -20 -15 -16 0 -26 6 -26 15 0 8 -4 15 -9 15 -5
0 -11 8 -13 18 -3 9 -8 -2 -12 -25 -7 -41 -26 -60 -26 -28 0 8 -4 15 -10 15
-5 0 -10 -7 -10 -15 0 -8 -9 -15 -20 -15 -17 0 -20 -7 -20 -40 0 -34 3 -40 21
-40 11 0 17 -4 14 -10 -3 -5 -27 -10 -51 -10 l-46 0 3 -47 c3 -42 1 -48 -19
-53 -12 -3 -31 -13 -42 -22 -11 -10 -34 -18 -50 -18 -17 0 -30 -4 -30 -8 0 -4
-16 -8 -36 -9 -34 -1 -76 -23 -44 -23 9 0 7 -7 -8 -20 -22 -21 -44 -28 -24 -8
14 14 16 38 4 38 -5 0 -27 -16 -49 -35 -42 -36 -80 -44 -101 -23 -9 9 -17 9
-34 1 -13 -6 -38 -17 -56 -25 -40 -16 -38 -41 3 -48 25 -5 27 -7 12 -13 -27
-10 -87 -9 -87 3 0 15 -28 12 -55 -6 -23 -15 -25 -15 -25 0 0 24 -65 21 -92
-4 -12 -11 -31 -20 -43 -20 -11 0 -31 -7 -43 -16 -21 -14 -26 -14 -64 1 -45
18 -98 12 -98 -11 0 -8 -10 -14 -25 -14 -14 0 -35 -6 -48 -12 -12 -7 -24 -14
-25 -15 -11 -5 12 -43 26 -43 16 -1 15 -2 0 -11 -10 -5 -18 -21 -18 -34 0 -14
-5 -25 -11 -25 -14 0 -39 -25 -39 -39 0 -16 11 -13 26 7 12 16 14 16 33 -5 27
-29 26 -35 -3 -27 -13 3 -34 1 -45 -6 -19 -10 -21 -8 -21 15 0 22 -4 25 -37
26 -24 1 -29 3 -15 6 28 5 28 35 2 83 -15 27 -19 30 -20 15 0 -18 -6 -21 -53
-21 -43 0 -57 -4 -77 -24 -22 -22 -25 -23 -28 -7 -3 13 -13 17 -43 17 -21 0
-39 -4 -39 -10 0 -5 -18 -10 -40 -10 -22 0 -40 -4 -40 -10 0 -18 -70 -11 -92
10 -19 17 -19 20 -5 20 9 0 17 -4 17 -10 0 -5 18 -10 40 -10 27 0 40 4 40 14
0 17 -97 28 -140 16 -20 -6 -30 -5 -34 3 -14 36 -3 -60 15 -123 36 -127 50
-183 58 -227 8 -43 8 -43 -20 -43 -21 0 -29 5 -29 18 -1 15 -2 15 -15 -2 -21
-27 -28 -14 -17 28 6 21 7 36 1 36 -5 0 -9 -8 -9 -17 -1 -16 -2 -16 -16 2 -12
16 -16 17 -23 6 -7 -11 -12 -5 -19 20 -6 19 -20 59 -32 89 -12 30 -28 76 -35
102 -13 46 -55 113 -55 88 0 -10 -23 -12 -97 -7 -54 2 -78 2 -53 -2 l45 -7
-50 -5 c-41 -5 -53 -2 -66 13 -12 16 -23 18 -51 13 -20 -4 -39 -13 -42 -21 -4
-10 -18 -12 -58 -7 -29 3 -55 10 -56 15 -2 5 -25 6 -52 2 -30 -4 -56 -2 -71 6
-13 7 -35 13 -49 14 -18 1 -25 7 -25 20 0 11 -6 21 -12 23 -7 3 -13 -2 -13
-11 0 -9 -8 -16 -20 -16 -11 0 -20 -4 -20 -9 0 -5 -10 -11 -22 -14 -22 -6 -58
20 -58 43 0 5 -7 10 -15 10 -8 0 -22 11 -31 25 -9 14 -25 25 -36 25 -11 0 -26
6 -33 13 -50 44 -51 44 -35 1 10 -25 9 -26 -6 -13 -16 13 -16 12 -7 -6 6 -11
22 -60 36 -110 14 -49 46 -164 71 -255 26 -91 51 -173 56 -182 6 -10 10 -30
10 -44 0 -20 -4 -25 -16 -20 -9 3 -18 6 -20 6 -2 0 -4 11 -4 23 0 30 -10 40
-26 26 -10 -8 -21 -6 -44 8 l-32 18 38 5 c22 3 39 11 41 20 4 13 3 13 -6 0 -9
-12 -14 -12 -44 2 -38 18 -47 15 -47 -16 -1 -17 -2 -18 -10 -6 -9 16 -148 421
-177 515 -8 28 -19 54 -24 59 -5 6 -9 20 -9 33 0 16 -6 23 -19 23 -11 0 -23
-5 -26 -10 -3 -6 -11 -10 -17 -10 -7 0 -7 4 -1 13 16 19 22 67 9 68 -6 1 -28
0 -48 -1 -46 -2 -148 20 -148 32 0 4 7 8 15 8 8 0 15 5 15 10 0 6 -25 10 -56
10 -45 0 -55 3 -51 14 4 9 1 13 -6 11 -7 -2 -36 -6 -64 -10 l-52 -6 -17 38
c-13 29 -18 33 -21 20 -6 -24 -27 -16 -31 11 -4 26 -44 52 -50 33 -6 -18 -23
-13 -48 14 -13 14 -34 25 -49 25 -14 0 -25 6 -25 13 0 8 -11 24 -25 37 -20 19
-32 22 -70 18 -37 -5 -45 -3 -45 11 0 24 -20 41 -47 41 -12 0 -27 9 -33 21 -7
13 -19 19 -32 17 -14 -2 -37 12 -66 40 -37 34 -52 42 -84 42 -29 0 -38 4 -38
17 0 9 -3 13 -7 10 -3 -4 -11 3 -17 16 -7 12 -25 28 -41 36 -17 8 -31 18 -33
23 -2 4 -11 8 -19 8 -9 0 -31 11 -48 25 -18 13 -35 22 -38 19 -3 -3 -13 6 -22
20 -10 14 -22 26 -28 26 -6 0 -28 17 -49 37 -26 26 -46 36 -68 36 -16 0 -30 4
-30 9 0 4 -7 8 -15 8 -8 0 -19 9 -25 20 -6 11 -17 20 -25 20 -8 0 -29 13 -48
29 -18 16 -42 29 -52 28 -14 -1 -21 5 -23 21 -2 12 -10 22 -18 22 -25 0 -114
32 -114 40 0 5 -18 11 -41 15 -32 6 -39 10 -34 23 3 9 3 13 -1 9 -4 -4 -16 1
-27 10 -10 10 -31 18 -46 19 -47 2 -91 16 -91 29 0 8 -13 16 -29 20 -17 3 -46
19 -66 35 -20 16 -49 32 -65 35 -17 4 -33 12 -37 19 -5 7 -21 17 -38 23 -34
11 -45 39 -18 46 10 3 1 5 -20 6 -37 1 -69 13 -94 35 -7 6 -19 16 -27 23 -8 7
-16 17 -18 23 -1 5 -13 12 -26 15 -29 5 -70 42 -83 74 -6 14 -15 21 -24 17
-11 -4 -15 2 -16 22 0 15 -3 21 -6 15 -8 -21 -29 -15 -43 12 -16 29 -27 32
-32 8 -3 -13 -12 -4 -32 29 -22 37 -35 49 -61 54 -32 6 -75 43 -75 65 0 14
-67 79 -81 79 -16 0 -69 57 -69 74 0 15 -9 18 -79 21 -13 0 -29 9 -37 20 -13
18 -14 18 -14 0 0 -10 -3 -15 -8 -11 -4 4 -9 499 -12 1099 -3 601 -6 -6390 -8
-15535 l-2 -16628 2123 0 c52206 0 67870 0 67872 2 5 5 14 39998 10 39998 -3
0 -5 -431 -5 -958z m-133 -1148 c-3 -3 -12 -4 -19 -1 -8 3 -5 6 6 6 11 1 17
-2 13 -5z m-667 -1589 c0 -8 -4 -15 -10 -15 -5 0 -7 7 -4 15 4 8 8 15 10 15 2
0 4 -7 4 -15z m-80 -115 c0 -5 -4 -10 -9 -10 -6 0 -13 5 -16 10 -3 6 1 10 9
10 9 0 16 -4 16 -10z m-1360 -742 c0 -5 -4 -8 -10 -8 -5 0 -10 10 -10 23 0 18
2 19 10 7 5 -8 10 -18 10 -22z m-560 -418 c-19 -13 -30 -13 -30 0 0 6 10 10
23 10 18 0 19 -2 7 -10z m-15980 -1310 c0 -22 -4 -40 -10 -40 -5 0 -10 18 -10
40 0 22 5 40 10 40 6 0 10 -18 10 -40z m-604 -247 c-10 -10 -19 5 -10 18 6 11
8 11 12 0 2 -7 1 -15 -2 -18z m14444 -47 c0 -8 -4 -18 -10 -21 -5 -3 -10 3
-10 14 0 12 5 21 10 21 6 0 10 -6 10 -14z m-15713 -2079 c2 -17 1 -19 -7 -7
-11 17 -14 47 -3 36 4 -3 8 -17 10 -29z m-6697 -82 c-7 -8 -16 -15 -21 -15 -5
0 -9 7 -9 15 0 9 9 15 21 15 18 0 19 -2 9 -15z m-497 -232 c-7 -2 -21 -2 -30
0 -10 3 -4 5 12 5 17 0 24 -2 18 -5z m-41578 -383 c3 -5 1 -10 -4 -10 -6 0
-11 5 -11 10 0 6 2 10 4 10 3 0 8 -4 11 -10z m34747 -232 c-17 -8 -26 -8 -34
0 -9 9 -4 12 23 11 32 0 33 -1 11 -11z m14318 -23 c7 -9 10 -18 6 -22 -3 -3
-6 -1 -6 5 0 7 -5 11 -11 10 -6 -2 -14 3 -16 10 -6 17 12 15 27 -3z m-40520
-4 c0 -6 -17 -7 -37 -4 -52 8 -54 13 -5 13 23 0 42 -4 42 -9z m26130 1 c0 -14
-11 -21 -26 -15 -21 8 -17 23 6 23 11 0 20 -4 20 -8z m-24143 -159 c-3 -10 -5
-2 -5 17 0 19 2 27 5 18 2 -10 2 -26 0 -35z m19611 -18 c-3 -3 -9 2 -12 12 -6
14 -5 15 5 6 7 -7 10 -15 7 -18z m962 -35 c0 -11 -7 -20 -15 -20 -18 0 -19 12
-3 28 16 16 18 15 18 -8z m-23643 -22 c-3 -8 -6 -5 -6 6 -1 11 2 17 5 13 3 -3
4 -12 1 -19z m-357 -83 c0 -17 -2 -18 -24 -9 -23 9 -20 24 4 24 11 0 20 -7 20
-15z m3805 4 c-22 -4 -49 -8 -60 -8 l-20 0 20 9 c11 5 38 8 60 8 l40 0 -40 -9z
m-4179 -85 c-11 -7 -22 -12 -25 -9 -2 3 4 12 15 19 10 8 21 12 24 9 3 -2 -4
-11 -14 -19z m3678 10 c3 -8 2 -12 -4 -9 -6 3 -10 10 -10 16 0 14 7 11 14 -7z
m19386 -13 c0 -9 -24 -21 -41 -21 -5 0 -9 7 -9 15 0 9 9 15 25 15 14 0 25 -4
25 -9z m-28530 -87 c0 -8 -4 -12 -10 -9 -5 3 -10 10 -10 16 0 5 5 9 10 9 6 0
10 -7 10 -16z m6304 -208 c-3 -9 -10 -16 -15 -16 -6 0 -5 9 1 21 13 24 24 20
14 -5z m-2204 -450 c0 -3 -4 -8 -10 -11 -5 -3 -10 -1 -10 4 0 6 5 11 10 11 6
0 10 -2 10 -4z m-2000 -296 c-20 -13 -50 -13 -50 0 0 6 15 10 33 10 24 0 28
-3 17 -10z m880 6 c0 -2 -7 -6 -15 -10 -8 -3 -15 -1 -15 4 0 6 7 10 15 10 8 0
15 -2 15 -4z m40 -86 c0 -5 -9 -10 -20 -10 -11 0 -20 5 -20 10 0 6 9 10 20 10
11 0 20 -4 20 -10z m300 0 c0 -5 -4 -10 -10 -10 -5 0 -10 5 -10 10 0 6 5 10
10 10 6 0 10 -4 10 -10z m70 -70 c4 -3 10 -22 13 -42 5 -35 4 -38 -19 -38 -21
0 -24 4 -24 40 0 36 -3 40 -24 40 -14 0 -28 5 -31 10 -4 6 7 10 24 10 18 0 31
5 31 13 0 6 6 3 12 -8 6 -11 14 -22 18 -25z m-673 -192 c-3 -8 -6 -5 -6 6 -1
11 2 17 5 13 3 -3 4 -12 1 -19z m100 -60 c-3 -8 -6 -5 -6 6 -1 11 2 17 5 13 3
-3 4 -12 1 -19z m-1120 -20 c-3 -7 -5 -2 -5 12 0 14 2 19 5 13 2 -7 2 -19 0
-25z m24223 -464 c0 -8 -4 -12 -10 -9 -5 3 -10 10 -10 16 0 5 5 9 10 9 6 0 10
-7 10 -16z m-50 -39 c0 -2 -7 -5 -15 -9 -9 -3 -15 0 -15 9 0 9 6 12 15 9 8 -4
15 -7 15 -9z m-47 -32 c-13 -2 -33 -2 -45 0 -13 2 -3 4 22 4 25 0 35 -2 23 -4z
m-15459 -264 c2 -8 6 -21 9 -29 13 -30 87 -268 87 -279 0 -6 -4 -11 -8 -11 -8
0 -87 252 -97 308 -2 12 -7 28 -11 35 -5 9 -4 9 5 1 7 -6 14 -18 15 -25z
m14836 15 c0 -8 -4 -12 -10 -9 -5 3 -10 10 -10 16 0 5 5 9 10 9 6 0 10 -7 10
-16z m-1570 -639 c0 -8 -7 -15 -15 -15 -8 0 -15 7 -15 15 0 8 7 15 15 15 8 0
15 -7 15 -15z m-9180 -250 c0 -20 -5 -25 -25 -25 -26 0 -33 14 -14 26 8 4 7 9
-2 15 -10 6 -6 9 14 9 22 0 27 -4 27 -25z m8456 -22 c-10 -10 -19 5 -10 18 6
11 8 11 12 0 2 -7 1 -15 -2 -18z m-666 -228 c0 -17 -2 -18 -24 -9 -23 9 -20
24 4 24 11 0 20 -7 20 -15z m14157 -122 c-4 -3 1 -12 11 -19 14 -10 15 -15 4
-26 -11 -11 -12 -10 -7 3 4 10 0 19 -10 23 -15 5 -13 26 2 26 4 0 3 -3 0 -7z
m59 -71 c-3 -3 -6 1 -6 8 0 9 -5 7 -15 -6 -13 -17 -14 -17 -15 -2 0 9 5 20 10
23 7 4 7 12 0 25 -5 10 -10 22 -10 27 1 4 10 -9 21 -30 11 -22 18 -41 15 -45z
m-21329 46 c-3 -8 -6 -5 -6 6 -1 11 2 17 5 13 3 -3 4 -12 1 -19z m352 -112
c-9 -8 -10 -7 -5 7 3 10 7 24 7 30 1 7 3 4 6 -7 3 -10 -1 -23 -8 -30z m281
-138 c0 -23 -3 -29 -11 -21 -6 6 -8 20 -4 32 9 30 15 26 15 -11z m-33 0 c-3
-8 -6 -5 -6 6 -1 11 2 17 5 13 3 -3 4 -12 1 -19z m176 -45 c-13 -2 -33 -2 -45
0 -13 2 -3 4 22 4 25 0 35 -2 23 -4z m-623 -40 c0 -43 -5 -41 -13 5 -4 18 -2
32 3 32 6 0 10 -16 10 -37z m5090 17 c0 -5 -5 -10 -11 -10 -5 0 -7 5 -4 10 3
6 8 10 11 10 2 0 4 -4 4 -10z m253 -37 c-13 -2 -33 -2 -45 0 -13 2 -3 4 22 4
25 0 35 -2 23 -4z m117 -7 c0 -3 -4 -8 -10 -11 -5 -3 -10 -1 -10 4 0 6 5 11
10 11 6 0 10 -2 10 -4z m-5323 -58 c-3 -8 -6 -5 -6 6 -1 11 2 17 5 13 3 -3 4
-12 1 -19z m4973 -10 c0 -19 -2 -20 -10 -8 -13 19 -13 30 0 30 6 0 10 -10 10
-22z m37 16 c-3 -3 -12 -4 -19 -1 -8 3 -5 6 6 6 11 1 17 -2 13 -5z m-10033
-36 c-3 -4 -9 -8 -15 -8 -5 0 -9 4 -9 8 0 5 7 9 15 9 8 0 12 -4 9 -9z m20 -57
c13 -25 13 -31 1 -41 -11 -9 -14 -6 -13 18 1 16 -2 34 -6 41 -4 6 -5 11 -2 11
3 0 12 -13 20 -29z m8849 -38 c-13 -2 -33 -2 -45 0 -13 2 -3 4 22 4 25 0 35
-2 23 -4z m-8830 -64 c-6 -6 -9 -28 -6 -49 3 -20 1 -40 -4 -43 -5 -3 -7 11 -5
31 4 33 3 35 -11 24 -14 -12 -16 -11 -14 7 0 11 5 18 9 15 4 -3 13 4 20 15 7
11 14 18 17 15 3 -2 0 -9 -6 -15z m7007 -19 c0 -5 -4 -10 -10 -10 -5 0 -10 5
-10 10 0 6 5 10 10 10 6 0 10 -4 10 -10z m-6964 -97 c-3 -8 -2 -12 3 -9 5 3
11 -4 14 -17 2 -12 8 -31 12 -41 7 -15 5 -17 -6 -11 -8 5 -7 1 4 -12 21 -24
22 -34 2 -27 -8 4 -15 1 -15 -5 0 -6 -7 -11 -15 -11 -10 0 -15 9 -14 28 0 15
3 21 6 15 2 -7 10 -13 16 -13 6 0 3 8 -6 18 -15 14 -19 15 -26 3 -5 -8 -7 -21
-3 -29 3 -10 1 -13 -7 -8 -6 4 -9 16 -6 27 4 10 2 19 -4 19 -14 0 -24 36 -16
60 8 26 25 16 24 -13 0 -21 -1 -21 -9 -2 -8 19 -9 19 -9 -1 -1 -21 21 -39 33
-27 3 3 3 17 0 30 -4 13 -1 30 6 38 8 9 8 15 2 15 -6 0 -13 -6 -15 -12 -3 -7
-6 1 -6 18 -1 17 2 34 6 38 11 10 36 -53 29 -71z m6929 57 c4 -6 -5 -10 -19
-10 -14 0 -26 5 -26 10 0 6 9 10 19 10 11 0 23 -4 26 -10z m748 -17 c-7 -2
-19 -2 -25 0 -7 3 -2 5 12 5 14 0 19 -2 13 -5z m80 -20 c-7 -2 -19 -2 -25 0
-7 3 -2 5 12 5 14 0 19 -2 13 -5z m555 0 c-10 -2 -28 -2 -40 0 -13 2 -5 4 17
4 22 1 32 -1 23 -4z m1573 -85 c0 -10 2 -10 6 0 2 6 12 12 20 12 14 0 14 -2 1
-22 -9 -13 -19 -22 -24 -21 -12 2 -25 43 -14 43 6 0 10 -6 11 -12z m799 -273
c0 -8 -2 -15 -4 -15 -2 0 -6 7 -10 15 -3 8 -1 15 4 15 6 0 10 -7 10 -15z m11
-62 c-12 -20 -14 -14 -5 12 4 9 9 14 11 11 3 -2 0 -13 -6 -23z m129 -68 c0 -5
-4 -4 -9 3 -6 10 -10 9 -14 -7 -7 -27 -33 -27 -40 -1 -4 16 0 20 19 20 13 0
24 6 24 13 0 8 4 7 10 -3 5 -8 10 -19 10 -25z m28 -6 c-3 -8 -7 -3 -11 10 -4
17 -3 21 5 13 5 -5 8 -16 6 -23z m-17 -53 c5 3 9 0 9 -6 0 -6 -8 -14 -17 -17
-10 -4 -23 -14 -30 -22 -7 -10 -12 -11 -13 -4 0 6 -3 19 -7 29 -4 11 -3 15 4
11 6 -4 17 0 24 9 8 10 15 12 17 5 2 -6 8 -9 13 -5z m48 -25 c-3 -6 -10 -7
-18 -2 -7 5 -10 14 -6 21 9 14 29 -2 24 -19z m-5 -47 c8 -3 12 -12 9 -20 -3
-8 -9 -11 -15 -8 -5 3 -17 -4 -25 -16 -23 -32 -41 -9 -19 24 17 27 24 30 50
20z m5677 -4019 c15 -47 23 -85 19 -85 -8 0 -29 57 -49 133 -19 72 4 36 30
-48z m-13122 -1680 c28 5 48 -51 26 -75 -8 -9 -15 -21 -15 -26 0 -5 5 -1 11 9
19 33 28 20 43 -63 1 -3 4 -10 8 -16 14 -22 59 -176 54 -182 -12 -11 -80 -31
-89 -25 -4 3 -6 11 -3 19 3 8 2 14 -3 14 -7 0 -32 75 -48 145 -4 16 -3 17 6 5
7 -9 11 -11 11 -3 0 7 -6 16 -14 20 -7 4 -17 24 -20 43 -5 26 -4 31 3 20 9
-13 11 -13 11 2 0 9 3 24 7 34 5 13 3 15 -8 8 -20 -12 -40 -14 -33 -3 3 5 9 7
14 4 14 -9 22 33 11 54 -6 11 -11 28 -10 38 0 15 2 14 9 -4 6 -15 16 -21 29
-18z m-695 -6749 c19 -58 19 -56 7 -56 -5 0 -15 28 -24 61 -18 71 -7 67 17 -5z
m49598 -6628 c-8 -8 -9 -4 -5 13 4 13 8 18 11 10 2 -7 -1 -18 -6 -23z m-18709
-397 c-2 -14 1 -20 8 -16 6 4 9 1 8 -6 -1 -8 3 -27 10 -44 7 -16 14 -40 14
-52 1 -13 5 -23 8 -23 6 0 17 -43 20 -75 0 -5 4 -14 9 -20 4 -5 51 -149 105
-320 53 -170 119 -380 146 -464 26 -85 47 -156 46 -157 -7 -6 -47 -14 -47 -10
0 3 -59 198 -130 433 -72 235 -139 460 -150 498 -10 39 -25 89 -34 113 -8 23
-16 59 -16 80 -1 75 -2 82 -10 77 -5 -3 -11 -1 -14 4 -4 5 2 8 11 6 12 -1 17
-10 16 -24z m21044 -2073 c-3 -8 -6 -5 -6 6 -1 11 2 17 5 13 3 -3 4 -12 1 -19z
m92 -298 c0 -8 -16 35 -34 95 -19 61 -34 115 -34 120 1 15 69 -198 68 -215z
m-11435 164 c3 -8 2 -12 -4 -9 -6 3 -10 10 -10 16 0 14 7 11 14 -7z m60 -180
c19 -60 65 -203 101 -319 37 -115 84 -264 106 -330 43 -132 45 -145 26 -145
-9 0 -25 39 -44 103 -17 56 -76 251 -131 432 -55 182 -103 346 -106 365 -12
60 11 11 48 -106z"/>
<path d="M15750 19388 c0 -4 7 -8 15 -8 8 0 15 4 15 8 0 5 -7 9 -15 9 -8 0
-15 -4 -15 -9z"/>
<path d="M55448 39973 c7 -3 16 -2 19 1 4 3 -2 6 -13 5 -11 0 -14 -3 -6 -6z"/>
<path d="M53105 39860 c-3 -5 -1 -10 4 -10 6 0 11 5 11 10 0 6 -2 10 -4 10 -3
0 -8 -4 -11 -10z"/>
<path d="M55201 39784 c0 -11 3 -14 6 -6 3 7 2 16 -1 19 -3 4 -6 -2 -5 -13z"/>
<path d="M55120 39674 c0 -14 3 -14 15 -4 8 7 15 14 15 16 0 2 -7 4 -15 4 -8
0 -15 -7 -15 -16z"/>
<path d="M55035 39589 c-4 -6 -5 -13 -2 -16 7 -7 27 6 27 18 0 12 -17 12 -25
-2z"/>
<path d="M54946 39541 c-3 -5 1 -11 9 -14 9 -4 12 -1 8 9 -6 16 -10 17 -17 5z"/>
<path d="M55080 39516 c0 -9 5 -16 10 -16 6 0 10 4 10 9 0 6 -4 13 -10 16 -5
3 -10 -1 -10 -9z"/>
<path d="M54225 39491 c-3 -5 -1 -12 5 -16 5 -3 10 1 10 9 0 18 -6 21 -15 7z"/>
<path d="M54040 39462 c0 -9 40 -35 46 -29 3 2 2 12 -2 21 -6 16 -44 23 -44 8z"/>
<path d="M69715 37900 c-3 -5 1 -10 10 -10 9 0 13 5 10 10 -3 6 -8 10 -10 10
-2 0 -7 -4 -10 -10z"/>
<path d="M69361 37144 c0 -11 3 -14 6 -6 3 7 2 16 -1 19 -3 4 -6 -2 -5 -13z"/>
<path d="M69050 36230 c-9 -6 -10 -10 -3 -10 6 0 15 5 18 10 8 12 4 12 -15 0z"/>
<path d="M68300 35720 c0 -5 5 -10 10 -10 6 0 10 5 10 10 0 6 -4 10 -10 10 -5
0 -10 -4 -10 -10z"/>
<path d="M67633 35453 c9 -2 23 -2 30 0 6 3 -1 5 -18 5 -16 0 -22 -2 -12 -5z"/>
<path d="M51118 33848 c5 -5 16 -8 23 -6 8 3 3 7 -10 11 -17 4 -21 3 -13 -5z"/>
<path d="M51104 33819 c-3 -6 -1 -16 5 -22 8 -8 11 -5 11 11 0 24 -5 28 -16
11z"/>
<path d="M2 33360 c0 -14 2 -19 5 -12 2 6 2 18 0 25 -3 6 -5 1 -5 -13z"/>
<path d="M64888 33133 c7 -3 16 -2 19 1 4 3 -2 6 -13 5 -11 0 -14 -3 -6 -6z"/>
<path d="M61110 32170 c8 -5 20 -10 25 -10 6 0 3 5 -5 10 -8 5 -19 10 -25 10
-5 0 -3 -5 5 -10z"/>
<path d="M60728 32093 c7 -3 16 -2 19 1 4 3 -2 6 -13 5 -11 0 -14 -3 -6 -6z"/>
<path d="M63136 31896 c3 -9 11 -16 16 -16 13 0 5 23 -10 28 -7 2 -10 -2 -6
-12z"/>
<path d="M42895 31460 c-3 -5 3 -10 15 -10 12 0 18 5 15 10 -3 6 -10 10 -15
10 -5 0 -12 -4 -15 -10z"/>
<path d="M10880 30453 c0 -6 7 -16 15 -23 8 -7 12 -16 9 -21 -3 -5 2 -6 10 -3
8 3 16 -2 19 -13 3 -13 5 -14 6 -2 0 8 -12 28 -29 44 -16 16 -30 24 -30 18z"/>
<path d="M10915 30350 c3 -5 8 -10 11 -10 2 0 4 5 4 10 0 6 -5 10 -11 10 -5 0
-7 -4 -4 -10z"/>
<path d="M8060 30239 c0 -5 5 -7 10 -4 6 3 10 8 10 11 0 2 -4 4 -10 4 -5 0
-10 -5 -10 -11z"/>
<path d="M7200 30100 c0 -6 7 -10 15 -10 8 0 15 2 15 4 0 2 -7 6 -15 10 -8 3
-15 1 -15 -4z"/>
<path d="M7108 30093 c7 -3 16 -2 19 1 4 3 -2 6 -13 5 -11 0 -14 -3 -6 -6z"/>
<path d="M7368 30093 c7 -3 16 -2 19 1 4 3 -2 6 -13 5 -11 0 -14 -3 -6 -6z"/>
<path d="M10935 30090 c-3 -5 -1 -10 4 -10 6 0 11 5 11 10 0 6 -2 10 -4 10 -3
0 -8 -4 -11 -10z"/>
<path d="M32185 30020 c-3 -5 1 -10 9 -10 9 0 16 5 16 10 0 6 -4 10 -9 10 -6
0 -13 -4 -16 -10z"/>
<path d="M12880 29679 c0 -5 5 -7 10 -4 6 3 10 8 10 11 0 2 -4 4 -10 4 -5 0
-10 -5 -10 -11z"/>
<path d="M12860 29600 c0 -5 5 -10 10 -10 6 0 10 5 10 10 0 6 -4 10 -10 10 -5
0 -10 -4 -10 -10z"/>
<path d="M13360 29390 c0 -15 7 -20 25 -20 23 0 24 2 15 20 -6 11 -17 20 -25
20 -8 0 -15 -9 -15 -20z"/>
<path d="M3592 29110 c0 -14 2 -19 5 -12 2 6 2 18 0 25 -3 6 -5 1 -5 -13z"/>
<path d="M4875 29080 c3 -5 15 -10 26 -10 10 0 19 -4 19 -10 0 -5 9 -10 20
-10 11 0 20 5 20 10 0 6 -9 10 -19 10 -11 0 -23 5 -26 10 -3 6 -15 10 -26 10
-11 0 -17 -4 -14 -10z"/>
<path d="M3600 29065 c0 -8 7 -15 16 -15 14 0 14 3 4 15 -7 8 -14 15 -16 15
-2 0 -4 -7 -4 -15z"/>
<path d="M4585 28690 c3 -5 8 -10 11 -10 2 0 4 5 4 10 0 6 -5 10 -11 10 -5 0
-7 -4 -4 -10z"/>
<path d="M3541 28614 c0 -11 3 -14 6 -6 3 7 2 16 -1 19 -3 4 -6 -2 -5 -13z"/>
<path d="M15401 27750 c0 -33 1 -34 11 -12 8 17 8 26 0 34 -9 9 -12 4 -11 -22z"/>
<path d="M26614 27625 c-19 -14 -18 -14 4 -15 13 0 22 6 22 15 0 19 -1 19 -26
0z"/>
<path d="M26360 27519 c0 -5 5 -7 10 -4 6 3 10 8 10 11 0 2 -4 4 -10 4 -5 0
-10 -5 -10 -11z"/>
<path d="M16408 26823 c6 -2 18 -2 25 0 6 3 1 5 -13 5 -14 0 -19 -2 -12 -5z"/>
<path d="M24225 26740 c-18 -8 -17 -9 8 -9 16 -1 26 3 22 9 -3 6 -7 10 -8 9
-1 0 -11 -4 -22 -9z"/>
<path d="M23961 26724 c0 -11 3 -14 6 -6 3 7 2 16 -1 19 -3 4 -6 -2 -5 -13z"/>
<path d="M17191 26524 c0 -11 3 -14 6 -6 3 7 2 16 -1 19 -3 4 -6 -2 -5 -13z"/>
<path d="M23310 26475 c0 -8 -7 -15 -15 -15 -8 0 -15 -5 -15 -11 0 -18 32 -5
48 19 13 20 13 22 -2 22 -9 0 -16 -7 -16 -15z"/>
<path d="M17470 26470 c0 -5 5 -10 11 -10 5 0 7 5 4 10 -3 6 -8 10 -11 10 -2
0 -4 -4 -4 -10z"/>
<path d="M17496 26454 c-4 -9 -4 -19 -1 -22 2 -3 7 3 11 12 4 9 4 19 1 22 -2
3 -7 -3 -11 -12z"/>
<path d="M17500 26408 c0 -7 5 -20 10 -28 8 -12 10 -11 10 7 0 12 -4 25 -10
28 -5 3 -10 0 -10 -7z"/>
<path d="M17090 26239 c0 -5 5 -7 10 -4 6 3 10 8 10 11 0 2 -4 4 -10 4 -5 0
-10 -5 -10 -11z"/>
<path d="M22700 26220 c0 -5 5 -10 10 -10 6 0 10 5 10 10 0 6 -4 10 -10 10 -5
0 -10 -4 -10 -10z"/>
<path d="M21580 26106 c0 -8 6 -16 14 -19 10 -4 12 0 9 14 -6 22 -23 26 -23 5z"/>
<path d="M21448 26103 c7 -3 16 -2 19 1 4 3 -2 6 -13 5 -11 0 -14 -3 -6 -6z"/>
<path d="M19708 25923 c24 -3 32 -9 32 -24 0 -10 5 -19 10 -19 16 0 11 37 -6
44 -9 3 -28 5 -42 4 -23 -1 -22 -2 6 -5z"/>
<path d="M19538 25903 c12 -2 32 -2 45 0 12 2 2 4 -23 4 -25 0 -35 -2 -22 -4z"/>
<path d="M20818 25903 c12 -2 32 -2 45 0 12 2 2 4 -23 4 -25 0 -35 -2 -22 -4z"/>
<path d="M22210 25870 c0 -5 5 -10 10 -10 6 0 10 5 10 10 0 6 -4 10 -10 10 -5
0 -10 -4 -10 -10z"/>
<path d="M19440 25860 c0 -5 7 -10 15 -10 8 0 15 5 15 10 0 6 -7 10 -15 10 -8
0 -15 -4 -15 -10z"/>
<path d="M22235 25780 c-3 -5 -1 -10 4 -10 6 0 11 5 11 10 0 6 -2 10 -4 10 -3
0 -8 -4 -11 -10z"/>
<path d="M24180 25745 c0 -15 18 -40 24 -34 3 3 -1 14 -9 25 -8 10 -14 15 -15
9z"/>
</g>
</svg>
