<?xml version="1.0" standalone="no"?>
<!DOCTYPE svg PUBLIC "-//W3C//DTD SVG 20010904//EN"
 "http://www.w3.org/TR/2001/REC-SVG-20010904/DTD/svg10.dtd">
<svg version="1.0" xmlns="http://www.w3.org/2000/svg"
 width="3000.000000pt" height="2000.000000pt" viewBox="0 0 3000.000000 2000.000000"
 preserveAspectRatio="xMidYMid meet">

<g transform="translate(0.000000,2000.000000) scale(0.100000,-0.100000)"
fill="#000000" stroke="none">
<path d="M29103 13498 c-2 -108 -44 -269 -162 -624 -102 -305 -125 -414 -119
-549 5 -90 20 -138 52 -164 14 -11 26 -7 79 28 74 48 114 58 142 37 19 -14 20
-26 20 -403 1 -541 -9 -671 -51 -687 -18 -7 -41 4 -112 55 -97 68 -132 62
-251 -45 -41 -36 -86 -69 -100 -72 -99 -22 -255 -93 -431 -198 -133 -79 -192
-88 -198 -29 -3 26 -8 32 -30 35 -24 3 -27 7 -25 41 1 20 15 63 30 95 23 46
33 58 55 60 23 3 30 13 54 75 15 40 36 92 46 116 l19 44 -188 -6 c-148 -5
-203 -11 -258 -27 -154 -46 -956 -260 -974 -260 -10 0 -283 128 -607 285
l-589 286 -105 8 c-58 5 -106 7 -108 6 -2 -2 6 -22 18 -46 26 -49 90 -214 90
-229 0 -19 -41 -10 -111 26 -86 43 -113 42 -117 -4 -2 -18 7 -131 19 -250 27
-255 32 -574 11 -634 -28 -78 -103 -101 -163 -51 -18 15 -57 60 -86 101 -30
40 -60 72 -66 70 -31 -10 -46 -61 -202 -708 -48 -197 -71 -270 -85 -270 -14 0
-29 53 -45 152 -9 54 -18 105 -21 113 -13 32 -30 6 -51 -75 -16 -64 -28 -90
-49 -109 -26 -22 -33 -23 -109 -17 -87 7 -139 18 -198 43 -37 16 -39 18 -32
52 18 94 18 91 -2 91 -10 0 -54 -21 -98 -46 -159 -93 -245 -134 -280 -134 -19
0 -35 2 -35 5 0 3 40 86 90 184 72 145 86 180 74 185 -9 3 -137 6 -284 6 -226
0 -285 -3 -372 -20 -57 -11 -214 -40 -350 -64 -273 -50 -466 -94 -546 -124
-29 -11 -137 -70 -240 -130 -390 -228 -645 -361 -960 -503 -190 -85 -312 -153
-374 -211 -40 -37 -41 -38 -35 -95 4 -32 9 -109 13 -170 l7 -113 65 -77 c36
-43 97 -111 136 -150 l70 -73 78 0 c63 0 78 3 78 15 0 8 -16 74 -35 147 -19
72 -33 133 -32 135 2 1 51 -52 110 -120 58 -67 116 -132 129 -145 l24 -22 784
81 c432 44 786 82 788 84 2 2 -21 83 -52 182 -78 251 -113 381 -121 447 -7 53
-6 56 14 56 31 0 65 -19 236 -130 215 -140 203 -135 321 -132 56 1 111 5 124
10 22 8 28 19 191 328 66 127 84 154 110 165 30 12 33 11 55 -15 13 -15 40
-79 60 -144 43 -136 66 -187 93 -202 55 -29 115 1 258 125 81 71 125 96 141
80 14 -14 3 -163 -22 -290 -68 -352 -120 -525 -156 -525 -16 0 -72 53 -81 77
-11 30 -22 29 -104 -11 -115 -55 -169 -102 -267 -231 -164 -215 -274 -349
-332 -403 -103 -97 -109 -51 -26 188 44 127 60 189 60 228 0 89 -29 72 -200
-117 -39 -45 -70 -81 -66 -81 3 0 49 31 103 68 54 38 110 77 126 87 l28 18
-10 -24 c-5 -13 -70 -175 -145 -359 l-137 -334 -4 -232 c-6 -264 -8 -254 79
-302 72 -39 84 -61 99 -182 8 -58 20 -117 28 -132 8 -14 50 -64 94 -110 70
-73 86 -86 121 -90 l41 -6 124 228 c68 125 125 225 126 221 2 -3 -17 -150 -41
-326 -25 -176 -44 -321 -42 -322 1 -1 45 -5 96 -9 l95 -7 1 94 c0 100 27 226
101 477 41 139 56 158 102 125 15 -11 35 -43 46 -74 18 -49 20 -80 20 -351 l0
-298 30 0 c17 -1 122 -9 235 -19 113 -10 206 -17 208 -16 2 2 12 112 23 246
10 133 21 244 23 246 2 2 31 -76 66 -172 58 -166 62 -182 63 -273 1 -53 4 -99
7 -101 3 -3 98 1 213 9 l207 13 0 119 0 119 -85 -2 c-78 -2 -87 -1 -111 22
-37 34 -69 103 -93 197 -35 136 -25 215 36 282 69 77 142 61 193 -41 40 -79
90 -132 153 -163 66 -33 104 -34 116 -3 5 13 19 92 32 176 12 83 28 159 35
169 19 26 48 4 153 -114 109 -124 127 -136 141 -99 6 15 10 40 10 56 0 38 25
48 52 22 11 -11 28 -45 38 -75 10 -31 59 -114 115 -196 77 -112 102 -142 120
-142 23 0 428 59 431 63 1 1 23 45 49 97 63 127 183 338 196 346 26 15 42 -26
54 -139 8 -72 19 -124 29 -138 11 -17 16 -45 16 -100 0 -88 7 -98 91 -130 64
-24 81 -37 72 -53 -13 -23 41 32 253 254 120 126 219 228 221 226 2 -2 -77
-208 -172 -449 -9 -21 -12 -36 -8 -34 5 3 134 154 288 335 154 182 282 326
284 321 2 -6 -14 -127 -34 -270 -21 -143 -36 -262 -33 -265 3 -2 63 -7 134
-10 l129 -6 75 101 c41 55 75 101 77 101 2 0 0 -48 -4 -107 l-6 -106 24 6 c13
4 49 7 80 7 l57 0 -5 64 c-6 67 17 199 40 230 34 47 175 22 251 -43 67 -58
113 -66 366 -65 257 1 325 13 459 78 52 25 101 46 110 46 8 0 25 -12 36 -26
17 -22 39 -30 135 -49 63 -14 121 -24 128 -25 9 0 12 73 12 333 l0 333 -142
17 c-205 25 -315 49 -333 73 -22 29 -54 137 -70 239 -13 80 -19 134 -41 368
-4 46 -2 57 10 57 23 0 58 -53 131 -200 117 -235 187 -320 263 -320 18 0 55
11 82 25 27 14 61 25 75 25 l25 0 0 629 0 629 -92 7 c-116 9 -321 38 -413 60
-98 22 -131 45 -161 110 -27 58 -52 223 -40 268 15 62 95 34 217 -77 124 -113
151 -123 337 -130 l152 -5 0 1014 c0 812 -3 1015 -13 1015 -7 0 -21 24 -31 53
-38 108 -451 1210 -626 1672 -100 264 -192 506 -204 538 l-22 57 -1 -82z m456
-2083 c69 -35 140 -150 196 -317 38 -114 46 -198 20 -198 -29 0 -179 143 -203
193 -20 42 -69 217 -85 305 -6 29 -4 32 19 32 14 0 38 -7 53 -15z m-2259 -706
c371 -29 677 -54 680 -57 2 -2 -6 -22 -19 -44 l-24 -42 28 22 c32 26 46 27 84
8 35 -19 51 -55 51 -115 0 -73 18 -154 39 -174 24 -25 41 -16 148 79 88 78
123 95 149 73 26 -21 12 -135 -46 -382 -95 -407 -90 -478 31 -417 36 19 56 41
152 170 39 53 73 73 99 59 32 -17 23 -85 -33 -241 -28 -79 -64 -183 -80 -232
-16 -49 -36 -101 -46 -115 -23 -36 -193 -199 -223 -215 -66 -35 -442 -124
-720 -171 -91 -16 -170 -33 -176 -39 -10 -10 -104 -237 -104 -251 0 -3 14 2
31 10 44 23 75 13 158 -55 97 -79 115 -79 210 3 19 16 49 36 68 43 68 29 126
-24 153 -138 5 -23 15 -133 20 -242 12 -225 18 -265 42 -280 23 -14 53 15 123
120 62 92 94 119 131 110 47 -12 56 -98 29 -281 -20 -138 -19 -177 7 -226 19
-38 20 -46 9 -87 -14 -55 -46 -100 -77 -112 -86 -33 -712 -103 -1045 -117
l-157 -6 -47 -111 c-26 -61 -51 -114 -54 -119 -6 -6 -392 964 -386 971 1 1 33
-15 71 -37 38 -22 70 -38 72 -37 2 2 -74 200 -168 441 -93 240 -170 439 -170
441 0 1 33 -13 74 -32 l75 -36 263 21 c145 12 299 25 342 29 l79 7 -174 164
c-96 90 -175 169 -176 175 -2 6 23 56 55 111 50 86 62 100 83 98 13 -1 95 -9
182 -19 87 -9 159 -15 160 -13 24 32 218 392 214 396 -3 3 -43 18 -89 34 -135
47 -217 93 -321 179 -109 92 -189 184 -213 247 -15 39 -15 45 0 67 22 34 77
47 200 47 131 0 239 -24 416 -89 157 -58 248 -87 253 -81 16 22 137 232 137
238 0 15 -417 133 -604 171 -135 28 -215 26 -312 -6 -110 -36 -435 -196 -723
-358 -135 -75 -246 -136 -248 -136 -4 0 -353 706 -353 713 0 1 224 -16 498
-39 273 -23 801 -66 1172 -95z m1481 -164 c23 -104 -22 -264 -96 -342 -81 -85
-119 -35 -75 98 32 95 138 311 149 305 5 -4 15 -31 22 -61z m-3823 -382 c45
-65 53 -136 21 -177 -23 -30 -50 -34 -70 -10 -23 28 -6 214 21 214 5 0 17 -12
28 -27z m924 -91 c-19 -14 -24 -8 -48 60 l-14 43 39 -45 c36 -40 38 -46 23
-58z m-205 26 c125 -120 233 -275 233 -335 0 -18 -1 -33 -2 -33 -2 0 -32 9
-66 20 -35 11 -77 20 -92 20 -48 0 -88 72 -130 235 -28 109 -34 155 -20 155 6
0 41 -28 77 -62z m1266 -121 c131 -83 173 -148 98 -155 -54 -5 -94 6 -145 39
-48 32 -106 115 -106 153 0 31 70 14 153 -37z m2662 2 c48 -58 110 -205 140
-331 23 -101 2 -119 -95 -77 -41 17 -51 28 -68 67 -30 69 -56 345 -35 365 13
14 32 6 58 -24z m-7518 -841 c-2 -7 -14 -41 -27 -75 l-23 -63 -29 18 c-33 19
-64 70 -51 82 11 11 104 49 122 49 7 1 11 -5 8 -11z m372 -57 c39 -39 36 -214
-6 -299 -10 -21 -25 -37 -33 -37 -20 0 -28 47 -36 213 l-7 142 31 0 c18 0 40
-8 51 -19z m3490 -36 c88 -82 147 -259 107 -320 -48 -74 -111 25 -152 240 -8
44 -17 90 -20 103 -7 33 12 27 65 -23z m-429 -291 c58 -54 134 -164 255 -368
100 -168 129 -206 183 -234 58 -29 83 -75 80 -142 -3 -48 -6 -56 -30 -68 -86
-41 -500 -42 -626 -1 -39 13 -55 39 -43 71 5 13 38 51 75 85 49 47 67 72 72
99 8 43 -8 238 -36 439 -11 77 -20 145 -20 152 0 27 43 11 90 -33z m3139 7
c32 -61 44 -160 38 -300 -6 -137 -15 -180 -50 -232 -29 -44 -73 -50 -112 -17
-57 49 -41 228 45 520 25 82 48 91 79 29z m-4547 -508 c57 -61 96 -229 89
-389 -2 -48 -37 -58 -168 -50 -118 8 -140 16 -148 49 -13 50 59 297 112 388
24 40 78 41 115 2z m-634 -822 c35 -115 -27 -247 -112 -239 -42 4 -45 40 -11
110 32 64 98 168 106 168 3 0 11 -17 17 -39z m5597 -188 c46 -108 59 -208 30
-230 -30 -21 -73 -16 -102 13 -24 24 -25 29 -20 112 5 87 30 192 46 192 5 0
26 -39 46 -87z m-2931 27 c50 -44 205 -356 222 -445 11 -60 -1 -75 -57 -75
-66 0 -84 11 -113 68 -52 102 -154 437 -143 466 10 25 53 19 91 -14z m1165
-165 c-1 -92 -38 -140 -96 -123 -55 15 -43 58 40 145 46 48 57 44 56 -22z"/>
<path d="M27415 10099 c5 -8 40 -49 78 -91 l70 -78 39 66 c21 37 37 68 36 69
-2 1 -43 10 -93 19 -49 10 -101 20 -114 23 -19 5 -22 3 -16 -8z"/>
<path d="M19328 13093 c-25 -60 -64 -148 -86 -198 -28 -63 -43 -114 -50 -170
-6 -44 -8 -82 -6 -84 2 -3 24 5 48 16 24 12 47 19 50 16 3 -4 6 -66 6 -140 0
-73 3 -133 8 -133 4 0 22 25 41 56 80 134 48 -46 -38 -209 l-56 -109 -5 208
-5 207 -59 -79 c-33 -43 -82 -103 -109 -131 -53 -57 -50 -65 13 -33 22 11 40
16 40 12 0 -5 -20 -57 -45 -116 -25 -60 -45 -109 -45 -111 0 -1 11 -5 23 -9
17 -4 27 -17 36 -45 12 -43 61 -91 91 -91 10 0 55 14 100 30 45 17 86 30 91
30 5 0 9 -11 9 -24 0 -57 -128 -366 -152 -366 -8 0 -9 38 -5 134 l5 134 -51
-15 c-29 -8 -57 -20 -63 -26 -7 -7 -28 -58 -47 -114 -28 -77 -34 -108 -28
-130 5 -16 12 -73 16 -128 4 -55 12 -106 17 -112 7 -9 39 -13 91 -13 62 0 85
-4 99 -17 22 -20 98 -23 215 -10 65 7 73 6 91 -13 l20 -22 204 21 c112 12 207
21 212 21 4 0 5 17 2 38 l-6 37 19 -35 c17 -32 22 -34 57 -31 22 1 40 4 41 5
2 2 -38 98 -87 214 -50 116 -90 215 -90 219 0 4 30 -22 66 -57 l67 -65 -38 70
c-21 39 -53 84 -71 100 -34 32 -59 73 -50 82 3 4 32 -2 63 -11 32 -10 77 -16
100 -14 l42 3 -163 235 c-90 129 -162 236 -161 238 1 1 37 -16 79 -39 42 -23
79 -39 81 -37 3 2 -94 146 -214 319 -162 234 -237 350 -290 457 -40 78 -74
142 -75 142 -2 0 -23 -48 -48 -107z m231 -548 c56 -82 68 -110 86 -215 6 -40
4 -38 -59 50 -25 35 -55 87 -65 115 -20 53 -36 135 -27 135 3 0 32 -38 65 -85z
m115 -427 c20 -28 21 -68 2 -68 -13 0 -36 48 -36 76 0 21 17 17 34 -8z m-158
-124 c24 -57 14 -228 -11 -202 -9 9 -24 131 -25 196 0 59 13 62 36 6z m130
-458 c7 -29 -1 -46 -22 -46 -14 0 -19 26 -8 54 9 23 23 19 30 -8z m279 -70
c20 -51 15 -76 -14 -76 -38 0 -51 27 -51 103 l1 72 23 -27 c13 -14 32 -47 41
-72z"/>
<path d="M16848 12617 c-86 -207 -183 -514 -174 -550 3 -14 22 -35 43 -49 36
-21 47 -23 171 -20 l133 2 14 -33 c7 -18 20 -64 28 -102 17 -83 10 -95 -58
-95 l-41 0 -33 80 c-18 44 -36 80 -41 80 -8 0 -43 -84 -56 -135 -11 -43 -21
-37 -43 25 -12 33 -26 62 -32 66 -13 8 -41 -12 -121 -85 -49 -45 -70 -73 -82
-108 -9 -26 -16 -48 -16 -50 0 -2 13 -3 29 -3 21 0 38 10 61 38 23 26 27 29
16 9 -9 -15 -15 -31 -12 -35 6 -11 -20 -134 -45 -209 -29 -90 -29 -90 104 -67
26 4 53 1 84 -11 58 -22 61 -19 92 99 12 46 28 92 36 103 13 17 14 17 24 -9 5
-14 15 -118 21 -230 11 -210 17 -265 30 -273 19 -12 44 58 70 189 7 33 16 54
21 49 11 -11 34 -422 25 -456 -9 -36 -52 -49 -164 -51 l-97 -1 0 135 c0 74 3
169 7 210 l8 75 -64 -145 c-90 -205 -163 -360 -172 -360 -11 0 2 71 56 321 28
128 50 243 48 256 l-3 24 -57 -36 c-55 -34 -60 -42 -137 -190 -58 -109 -81
-164 -81 -189 0 -20 -22 -106 -50 -191 -27 -85 -50 -161 -50 -169 0 -26 17
-26 62 -1 23 14 55 25 70 25 l26 0 4 -162 c3 -173 10 -201 60 -248 37 -34 57
-26 84 38 60 139 78 157 80 79 0 -23 7 -84 14 -135 12 -87 14 -93 34 -88 12 3
54 13 95 22 l73 16 -6 37 c-11 70 -28 411 -22 445 7 38 22 54 37 39 29 -29 50
-397 28 -493 -27 -117 -27 -115 39 -126 38 -6 44 -4 88 39 l48 45 -11 73 c-12
89 -3 114 55 147 48 27 101 28 186 5 34 -9 74 -13 88 -10 37 10 52 61 44 143
-4 35 -5 64 -3 64 3 0 37 -54 76 -120 40 -66 73 -120 75 -120 3 0 -37 219 -49
268 -3 12 -3 22 -1 22 2 0 36 -58 76 -130 l72 -130 53 0 c100 0 105 30 35 210
-23 58 -50 132 -61 164 -11 33 -78 157 -148 275 -143 241 -157 265 -144 259
38 -22 215 -125 242 -141 l34 -20 -38 59 c-21 32 -55 86 -76 120 -20 34 -61
99 -91 145 -83 130 -103 165 -88 153 8 -6 72 -54 141 -107 191 -144 210 -149
103 -27 -36 41 -157 183 -269 315 -111 132 -214 250 -227 263 -14 13 -39 53
-56 90 -33 72 -94 232 -88 232 2 0 38 -40 80 -90 68 -80 115 -115 132 -97 6 6
-366 707 -375 707 -3 0 -36 -73 -73 -163z m349 -1029 c96 -105 127 -181 178
-434 26 -126 31 -184 17 -184 -15 0 -77 144 -167 383 -105 280 -110 323 -28
235z m131 -911 c53 -56 87 -205 52 -227 -40 -25 -86 64 -97 187 -7 71 6 82 45
40z"/>
<path d="M14641 11838 c-12 -68 -36 -158 -53 -200 -19 -50 -27 -84 -22 -95 4
-10 8 -37 8 -60 1 -31 8 -48 28 -66 20 -19 28 -38 33 -83 3 -33 9 -72 12 -88
l5 -29 19 39 19 39 -5 -40 c-3 -22 -10 -87 -16 -145 -6 -58 -11 -105 -12 -106
-1 -1 -16 1 -34 3 l-32 5 -3 114 -3 115 -85 -87 c-47 -47 -73 -79 -57 -69 15
9 27 15 27 12 0 -3 -20 -78 -44 -167 -27 -99 -40 -163 -33 -167 6 -3 7 -34 3
-79 -6 -65 -5 -74 13 -86 20 -14 20 -15 -11 -96 -17 -45 -29 -85 -26 -88 3 -2
131 29 284 70 154 41 334 89 401 106 121 32 122 32 112 57 -14 38 -11 39 19
10 19 -18 35 -25 45 -21 10 3 17 9 17 12 0 3 -31 89 -69 191 -38 102 -72 195
-76 206 -7 21 -4 17 82 -79 34 -38 35 -38 54 -19 18 18 17 21 -60 136 -44 64
-78 117 -76 117 2 0 47 -30 101 -67 59 -40 93 -58 84 -45 -38 55 -346 441
-352 442 -5 0 -8 -13 -8 -30 0 -49 -31 -38 -67 23 -69 114 -154 296 -171 364
-9 40 -20 73 -23 73 -3 0 -15 -55 -28 -122z m184 -381 c18 -59 19 -87 5 -87
-12 0 -27 35 -41 99 -5 25 -12 55 -15 66 -12 45 36 -28 51 -78z m-21 -575 c10
-47 1 -95 -17 -89 -7 2 -13 29 -15 71 -2 52 0 67 10 64 7 -3 17 -23 22 -46z
m-62 -168 c22 -33 26 -35 63 -30 22 3 50 9 63 12 19 6 22 3 22 -24 0 -38 -17
-44 -94 -36 -87 9 -96 16 -96 69 0 54 12 57 42 9z"/>
<path d="M24359 11490 c-97 -32 -232 -83 -301 -114 -150 -66 -255 -97 -573
-166 -132 -28 -247 -54 -255 -57 -8 -3 84 -19 205 -34 121 -15 366 -47 544
-69 178 -23 327 -38 331 -33 29 30 202 382 220 444 22 82 23 89 13 89 -5 0
-87 -27 -184 -60z"/>
<path d="M5390 10946 c-17 -46 -98 -381 -110 -458 -11 -68 -10 -87 8 -180 23
-113 82 -482 136 -843 71 -476 116 -770 119 -778 1 -4 24 81 51 190 58 233
197 744 224 822 10 30 23 56 29 58 10 4 131 -75 228 -148 27 -21 52 -36 56
-34 3 3 30 99 60 215 l54 211 35 -5 c19 -3 160 -26 313 -51 283 -47 295 -48
427 -24 78 14 310 81 310 90 0 4 -181 84 -402 179 -396 169 -404 174 -468 233
-144 135 -201 190 -198 192 2 1 82 -11 178 -26 229 -37 561 -81 566 -76 2 2
-78 25 -179 52 -216 57 -1023 285 -1255 356 -90 27 -165 49 -168 49 -2 0 -9
-11 -14 -24z"/>
<path d="M3385 10806 c-58 -19 -492 -172 -877 -308 -49 -17 -88 -33 -89 -37 0
-3 -13 -96 -28 -206 -22 -158 -30 -199 -42 -197 -8 1 -151 53 -318 114 l-304
110 -66 -17 c-182 -49 -942 -318 -1491 -528 l-165 -63 -3 -627 c-1 -345 0
-627 2 -627 3 0 116 31 252 70 136 38 249 69 249 67 5 -5 92 -204 146 -332 33
-77 64 -144 68 -148 4 -4 20 23 36 60 86 207 109 263 132 313 14 30 41 93 60
140 19 47 36 86 38 88 1 1 71 -15 156 -37 85 -22 192 -47 239 -56 114 -21 307
-30 342 -16 97 38 89 217 -22 476 -21 50 -37 92 -35 94 4 3 662 -207 1285
-410 151 -50 288 -94 303 -99 20 -7 -39 60 -202 228 l-230 237 32 6 c18 4 136
10 262 13 410 11 620 19 624 22 1 1 -38 98 -89 215 -86 201 -90 214 -73 227
10 7 48 32 85 55 l66 41 -44 125 c-24 69 -44 129 -44 133 0 4 150 8 333 8 431
0 647 9 647 26 0 15 -184 162 -432 344 -265 195 -707 510 -721 515 -7 2 -43
-6 -82 -19z m-1500 -1102 c93 -16 595 -120 630 -131 30 -9 -38 -30 -143 -44
-160 -21 -364 4 -701 87 -242 60 -239 59 -171 73 161 33 259 37 385 15z m-459
-206 c79 -9 94 -14 94 -29 0 -26 -28 -49 -58 -49 -84 1 -164 19 -197 45 -19
14 -35 30 -35 36 0 12 81 11 196 -3z"/>
<path d="M11174 10173 c-4 -14 -2 -60 5 -101 19 -127 83 -216 165 -229 50 -8
48 4 -28 163 -93 192 -126 232 -142 167z"/>
<path d="M11534 10063 c8 -21 50 -137 95 -257 45 -120 80 -220 79 -221 -2 -1
-55 8 -118 21 -63 13 -132 24 -152 24 -35 0 -38 -2 -44 -36 -6 -34 -3 -151 12
-384 l7 -95 -227 -160 c-124 -88 -226 -162 -226 -165 0 -3 125 -59 278 -124
265 -114 1109 -487 1392 -616 134 -61 135 -61 190 -51 30 6 266 53 524 106
264 53 494 95 525 95 31 0 214 -11 406 -25 513 -35 1056 -67 1100 -63 39 3 36
5 -371 323 -225 176 -423 336 -441 355 -17 19 -105 127 -194 239 -89 112 -201
243 -248 291 l-86 88 -65 5 c-36 2 -221 4 -412 3 l-346 -1 -26 -24 c-55 -52
-193 -282 -375 -626 -61 -115 -111 -207 -111 -202 0 4 27 98 61 210 77 256
149 537 149 581 0 31 -4 35 -47 54 -49 21 -304 82 -428 103 -68 12 -73 11
-170 -21 -55 -18 -234 -86 -399 -152 -164 -65 -300 -117 -301 -116 -3 3 401
287 675 473 80 55 147 104 149 109 1 6 -17 15 -41 21 -24 7 -216 71 -427 143
-211 73 -387 132 -392 132 -4 0 -2 -17 5 -37z"/>
<path d="M21091 10004 c-41 -14 -82 -29 -93 -35 -22 -12 -24 -52 -1 -74 20
-20 75 -13 113 14 39 28 87 122 63 121 -5 0 -41 -12 -82 -26z"/>
<path d="M21665 9903 c-72 -11 -238 -58 -353 -100 -118 -44 -125 -48 -152 -91
-15 -24 -36 -69 -46 -98 -17 -52 -17 -54 2 -75 25 -28 87 -56 144 -64 87 -13
157 24 575 299 173 114 169 106 64 125 -51 9 -186 11 -234 4z"/>
<path d="M7125 9750 c62 -63 180 -122 299 -150 131 -31 176 -14 176 70 0 25
-6 53 -12 62 -10 12 -62 23 -206 42 -106 14 -218 26 -250 26 l-56 0 49 -50z"/>
<path d="M6799 9742 c26 -50 85 -102 117 -102 32 0 42 27 18 50 -21 21 -133
90 -146 90 -5 0 0 -17 11 -38z"/>
<path d="M10473 9483 c-73 -262 -70 -247 -44 -238 11 3 21 4 21 1 0 -2 -13
-40 -30 -83 -16 -42 -30 -79 -30 -81 0 -3 9 -2 20 1 26 7 25 -1 -6 -74 -14
-34 -23 -63 -21 -65 4 -4 264 30 313 41 19 4 21 9 14 47 -10 52 -7 57 21 32
l22 -19 -22 42 c-28 57 -27 59 16 26 l37 -28 -41 78 c-22 42 -37 77 -32 77 4
0 19 -4 33 -10 14 -5 26 -8 26 -5 0 2 -32 55 -72 117 -39 62 -94 161 -122 221
l-51 108 -52 -188z"/>
<path d="M8127 9455 c-4 -44 -22 -133 -41 -198 l-34 -118 29 6 29 6 -24 -53
c-13 -29 -27 -64 -31 -78 l-7 -25 26 24 c14 14 26 22 26 20 0 -3 -16 -52 -35
-109 -19 -57 -35 -105 -35 -107 0 -2 14 4 31 12 17 9 33 14 37 11 3 -3 -9 -61
-27 -127 -17 -67 -30 -124 -27 -126 7 -7 566 81 566 89 0 5 -25 58 -56 119
-30 61 -53 113 -51 116 3 2 23 -7 46 -21 22 -14 43 -26 46 -26 3 0 -17 45 -45
100 -27 55 -50 104 -50 108 0 5 11 7 25 4 23 -4 25 -2 16 19 -21 55 -143 325
-149 331 -4 4 -28 -62 -53 -147 -25 -85 -43 -155 -39 -155 3 0 12 6 19 13 11
10 12 6 7 -18 -3 -16 -8 -48 -12 -70 l-7 -40 -59 124 c-32 68 -58 128 -58 132
0 5 7 6 14 3 15 -6 0 54 -52 206 l-19 54 -6 -79z m153 -453 c20 -16 22 -23 14
-57 l-10 -39 -21 57 c-22 61 -19 68 17 39z m57 -153 l-10 -42 -15 28 c-13 26
-13 30 4 42 29 21 33 16 21 -28z m-32 -79 c4 -6 3 -25 -1 -43 l-7 -32 -13 30
c-7 17 -13 36 -14 43 0 15 26 16 35 2z"/>
<path d="M11133 9423 c-28 -60 -49 -109 -48 -111 1 -1 14 2 29 7 14 6 26 9 26
7 0 -3 -16 -42 -35 -87 -39 -93 -39 -93 -25 -84 14 9 12 -16 -5 -65 -8 -24
-13 -45 -11 -48 3 -2 52 1 110 8 l105 13 -20 38 c-18 37 -18 39 -2 39 41 1 46
15 24 65 -26 58 -26 55 0 55 16 0 20 4 15 18 -38 101 -101 252 -106 252 -4 0
-30 -48 -57 -107z"/>
<path d="M9087 9350 c-4 -19 -9 -60 -13 -90 -4 -30 -29 -108 -56 -174 l-48
-120 31 30 31 29 -22 -55 c-47 -116 -52 -134 -35 -120 26 21 24 8 -5 -57 -25
-55 -26 -63 -12 -63 21 0 366 52 370 55 2 2 -7 23 -19 47 l-22 43 22 -19 c25
-23 26 -17 7 29 -8 19 -13 35 -10 35 3 0 22 -12 42 -27 l37 -28 -16 25 c-9 14
-31 51 -49 83 l-32 57 27 -10 c14 -5 29 -10 33 -10 4 0 -28 35 -70 78 -64 64
-86 95 -131 187 -53 107 -54 108 -60 75z"/>
<path d="M6791 9012 c-61 -259 -60 -245 -16 -189 20 27 38 47 40 45 2 -2 -10
-109 -25 -238 -16 -129 -28 -236 -27 -237 1 -1 66 8 145 20 111 17 142 25 142
37 0 8 -11 62 -25 119 -14 57 -23 106 -20 109 3 3 23 -12 45 -33 22 -22 40
-36 40 -32 0 4 -31 67 -70 141 -38 73 -70 135 -70 139 0 3 19 0 42 -9 22 -8
42 -13 44 -11 3 3 -179 304 -192 317 -5 5 -27 -66 -53 -178z"/>
<path d="M7273 8883 c-23 -102 -29 -149 -22 -154 8 -5 6 -23 -5 -64 -13 -44
-14 -60 -5 -71 7 -9 10 -35 7 -70 l-5 -56 61 7 c33 3 63 8 67 11 4 2 3 21 -2
41 -13 57 -11 83 6 83 20 0 19 10 -5 40 -25 32 -25 43 0 35 13 -4 20 -2 20 7
0 23 -74 338 -80 338 -3 0 -20 -66 -37 -147z"/>
<path d="M19300 8955 c-71 -34 -126 -76 -348 -264 -101 -86 -268 -221 -371
-301 -103 -80 -201 -156 -217 -169 l-29 -22 95 5 c52 3 511 24 1019 48 863 40
926 44 949 62 44 35 52 72 52 243 l0 158 -56 83 c-31 45 -74 98 -97 117 -36
31 -47 35 -96 35 -31 1 -140 5 -243 10 -103 5 -280 12 -395 15 l-208 6 -55
-26z m66 -510 c12 -46 -3 -75 -50 -95 -84 -35 -167 -36 -260 0 -56 21 3 55
164 95 125 31 138 31 146 0z"/>
<path d="M4558 8757 c-14 -94 -25 -174 -22 -176 2 -2 10 2 19 9 20 17 20 16
-25 -181 -21 -95 -38 -175 -36 -176 2 -2 15 15 29 39 32 52 32 44 4 -103 l-23
-115 146 23 c80 13 148 24 151 26 4 1 -13 52 -37 112 l-43 110 24 9 c14 6 25
13 25 16 0 3 -18 23 -40 45 -42 41 -43 55 -4 55 13 0 24 3 24 7 0 15 -155 473
-160 473 -3 0 -17 -78 -32 -173z"/>
<path d="M6413 8825 c1 -184 -5 -256 -20 -243 -32 26 -87 114 -113 181 l-29
72 0 -90 c-1 -49 -8 -128 -16 -175 -18 -102 -18 -97 -3 -82 20 20 30 13 24
-18 -3 -16 -9 -45 -12 -62 -6 -30 -5 -32 11 -18 17 14 18 13 12 -27 -5 -32 -4
-43 5 -43 32 0 314 44 321 50 5 4 -13 46 -38 94 -42 78 -49 106 -17 74 24 -24
21 0 -8 61 -34 72 -36 83 -14 74 22 -8 16 10 -51 150 l-53 112 1 -110z m-13
-290 c0 -14 -4 -25 -9 -25 -5 0 -16 11 -25 25 -16 24 -16 25 9 25 20 0 25 -5
25 -25z m0 -144 c0 -6 -4 -13 -10 -16 -5 -3 -10 1 -10 9 0 9 5 16 10 16 6 0
10 -4 10 -9z"/>
<path d="M3951 8432 c-12 -114 -25 -218 -28 -232 l-4 -25 20 24 c28 31 27 26
-19 -118 -22 -69 -38 -127 -36 -129 3 -2 13 9 22 25 10 15 32 46 48 68 l29 40
-7 -59 -6 -58 47 7 c96 13 95 13 91 61 -2 24 -2 44 -1 44 2 0 21 -16 43 -36
22 -20 43 -35 45 -32 3 3 -15 42 -40 87 -25 45 -45 84 -45 86 0 3 18 -4 41
-16 25 -12 38 -15 33 -7 -4 7 -39 60 -78 118 -66 99 -72 112 -101 232 l-30
127 -24 -207z"/>
<path d="M2218 8245 l-97 -160 30 -3 c16 -2 29 -5 29 -8 0 -3 -23 -33 -50 -67
l-50 -62 35 -6 c19 -3 37 -8 39 -10 2 -2 -18 -64 -45 -137 -27 -74 -49 -137
-49 -141 0 -4 55 3 123 14 l122 21 -4 109 -4 108 28 -21 c16 -12 30 -21 31
-19 2 2 -11 49 -30 104 l-34 100 15 149 c7 82 12 158 11 169 -2 13 -36 -34
-100 -140z"/>
<path d="M1197 7803 c-22 -75 -41 -142 -44 -150 -3 -8 2 -13 15 -13 19 0 20
-4 15 -74 l-6 -74 74 14 c41 8 78 14 83 14 4 0 1 11 -8 25 -21 31 -20 35 4 35
11 0 20 4 20 8 0 5 -9 17 -20 27 -26 24 -25 33 5 41 14 4 25 10 23 13 -2 4
-28 67 -58 139 -30 73 -57 132 -60 132 -3 0 -22 -61 -43 -137z"/>
<path d="M25596 6882 c-3 -5 -7 -58 -10 -118 l-5 -109 13 115 c13 115 13 129
2 112z"/>
<path d="M29010 6570 c-63 -4 -204 -8 -312 -9 l-198 -1 0 -79 0 -79 143 -6
c78 -3 231 -8 340 -11 l197 -5 0 100 0 100 -27 -2 c-16 -1 -80 -5 -143 -8z"/>
<path d="M5590 5676 c165 -226 270 -401 270 -452 0 -26 -2 -27 -44 -21 -65 9
-225 76 -466 194 l-215 106 -205 4 c-316 7 -492 -29 -597 -121 -93 -81 -181
-247 -225 -423 -21 -79 -22 -107 -19 -278 9 -520 3 -714 -28 -798 -5 -13 -101
106 -391 482 -427 554 -399 526 -533 537 -142 12 -284 -26 -527 -141 -155 -73
-272 -122 -555 -230 -185 -71 -271 -114 -309 -154 -26 -27 -28 -34 -18 -55 15
-34 105 -103 178 -138 129 -61 321 -75 569 -44 139 18 313 21 368 5 21 -5 52
-23 70 -39 32 -28 32 -29 32 -127 0 -54 -4 -123 -8 -154 l-8 -56 178 -51 c714
-206 1705 -372 2214 -372 207 0 240 6 544 91 244 69 950 258 1170 314 61 16
112 30 114 31 4 3 -2 11 -478 609 -184 231 -411 510 -506 620 -94 110 -269
317 -390 460 -257 306 -282 333 -185 201z m-681 -621 c37 -19 56 -67 55 -138
-2 -72 -20 -98 -57 -78 -14 7 -59 48 -102 91 l-77 78 26 17 c28 19 93 44 114
45 7 0 26 -7 41 -15z m-328 -380 c36 -19 56 -53 73 -127 8 -35 35 -116 60
-180 97 -253 117 -356 76 -393 -14 -13 -28 -16 -53 -11 -48 9 -140 67 -154 97
-27 56 -103 503 -103 606 l0 35 37 -7 c21 -4 49 -13 64 -20z"/>
<path d="M28570 5153 c-31 -118 -78 -249 -96 -263 -7 -7 -24 -10 -37 -6 -13 3
-107 61 -210 130 -248 165 -241 163 -431 148 -273 -21 -537 -74 -831 -166
-149 -47 -581 -167 -870 -242 l-150 -38 60 -19 c99 -30 325 -85 400 -97 116
-19 250 -15 340 9 45 12 155 59 250 106 207 102 276 119 435 110 58 -4 126
-13 151 -21 26 -8 93 -50 158 -100 175 -132 173 -131 276 -138 430 -30 1065
-24 1455 14 113 11 268 22 345 26 196 8 185 3 185 70 0 56 0 56 -27 51 -167
-34 -242 -40 -342 -28 -55 7 -101 17 -101 21 0 16 122 122 162 140 54 25 90
25 202 0 50 -11 94 -20 98 -20 4 0 8 64 8 141 l0 142 -87 -6 c-197 -15 -565
-19 -713 -8 -229 15 -345 40 -591 127 -12 4 -20 -12 -39 -83z m174 -250 c37
-75 47 -118 34 -154 -12 -35 -44 -45 -92 -29 -32 10 -36 16 -36 45 0 38 47
195 58 195 4 0 21 -26 36 -57z"/>
<path d="M16730 5105 c-518 -20 -1601 -49 -2750 -74 -1042 -23 -1914 -44
-1937 -47 -41 -5 -43 -7 -43 -39 0 -19 5 -46 12 -60 6 -14 9 -28 6 -31 -3 -3
-88 -18 -189 -34 -797 -127 -1191 -189 -1549 -245 -423 -66 -510 -80 -1883
-296 -454 -71 -780 -127 -770 -131 10 -4 200 -42 423 -84 1513 -284 4068 -825
7655 -1620 682 -151 1296 -286 1364 -299 316 -63 843 -144 2051 -315 1362
-193 1943 -282 2332 -360 246 -50 323 -74 471 -149 65 -33 169 -77 230 -97
110 -35 272 -74 313 -74 12 0 25 -7 28 -15 10 -28 30 -280 23 -299 -11 -29
-419 -214 -1429 -648 l-427 -183 851 -3 852 -2 315 158 c560 280 935 428 1249
493 126 26 634 38 818 20 293 -30 517 -96 727 -214 144 -80 329 -238 453 -387
l58 -70 2008 0 2008 0 0 1295 c0 1029 -3 1295 -12 1295 -7 0 -76 -5 -153 -10
-299 -21 -738 -40 -930 -40 -505 0 -748 46 -1063 200 -113 55 -284 160 -364
223 -19 15 -22 43 -12 95 6 28 10 31 68 41 175 32 613 75 1071 106 376 25
1202 65 1351 65 l44 0 0 189 0 189 -262 6 c-145 4 -587 13 -983 21 -1316 27
-2151 49 -2505 65 -283 13 -856 32 -2505 80 -1868 55 -2475 74 -2755 90 -96 6
-575 28 -1065 50 -2009 90 -2996 143 -3555 190 -576 49 -1143 128 -1514 212
l-138 32 6 34 c3 19 7 37 10 39 7 7 293 72 1626 368 679 150 1264 280 1300
288 l65 15 -70 0 c-38 0 -455 -15 -925 -33z m-2639 -656 c38 -6 122 -32 186
-58 94 -38 118 -51 118 -67 0 -31 -92 -43 -320 -44 -214 0 -341 14 -455 49
-71 23 -143 60 -144 76 -4 39 441 71 615 44z m-1866 -51 l90 -21 -50 -22 c-85
-38 -204 -67 -241 -60 -45 8 -83 43 -90 82 -6 28 -3 34 17 43 33 14 166 3 274
-22z m653 -156 c9 -7 8 -13 -8 -27 -17 -16 -32 -17 -118 -12 -53 3 -108 10
-122 15 -23 9 -20 10 25 17 28 3 55 8 60 10 21 7 151 4 163 -3z m11499 -3049
c21 -9 41 -30 51 -50 15 -32 15 -34 -5 -55 -18 -18 -37 -22 -120 -26 -122 -5
-175 8 -222 55 l-36 36 24 8 c38 15 203 48 239 48 19 1 50 -6 69 -16z m1154
-64 c51 -36 100 -102 97 -129 -3 -22 -11 -27 -78 -43 -114 -28 -280 -33 -374
-13 -77 18 -223 83 -246 111 -31 38 47 67 222 84 232 23 337 20 379 -10z
m2182 -265 c127 -50 219 -98 262 -135 34 -30 35 -34 35 -98 l0 -67 -117 -31
c-161 -44 -320 -57 -723 -57 -360 -1 -395 3 -457 50 -52 39 -86 107 -89 175
l-2 59 52 15 c117 34 374 72 681 99 163 15 225 21 253 24 6 1 54 -14 105 -34z"/>
<path d="M9070 3365 c-80 -13 -197 -30 -260 -40 -196 -29 -364 -65 -376 -80
-6 -8 -17 -77 -23 -152 -24 -267 -60 -437 -102 -482 -37 -39 -55 -22 -277 260
-66 84 -165 177 -199 185 -40 10 -151 -3 -228 -26 -156 -48 -416 -195 -638
-361 -173 -129 -287 -235 -287 -266 0 -30 44 -64 146 -112 l87 -42 66 22 c36
12 128 48 203 79 l138 57 15 -51 c9 -28 23 -90 33 -138 14 -70 21 -88 37 -92
42 -12 472 -5 647 9 210 18 566 56 784 85 532 70 725 97 729 102 38 57 104
132 127 144 28 14 36 14 97 -1 74 -18 147 -48 171 -70 14 -13 29 -12 116 1 54
9 101 18 103 19 1 2 -55 102 -125 221 l-129 218 -95 79 c-126 105 -594 457
-606 456 -5 -1 -74 -11 -154 -24z m-476 -499 c54 -23 56 -52 8 -98 -23 -21
-48 -38 -55 -38 -20 0 -28 36 -20 98 6 57 13 61 67 38z m-832 -266 c20 -16 46
-50 58 -74 30 -62 17 -108 -49 -169 -55 -52 -76 -60 -147 -55 -48 3 -49 4 -47
33 2 33 127 295 140 295 5 0 25 -13 45 -30z"/>
<path d="M3945 2294 c-33 -8 -114 -41 -180 -74 -128 -64 -337 -190 -343 -208
-5 -17 105 -98 190 -142 166 -83 328 -91 563 -26 208 58 432 134 535 183 l95
44 -23 19 c-28 23 -130 62 -252 96 -52 14 -138 39 -190 55 -204 61 -306 75
-395 53z"/>
<path d="M5078 1739 c-29 -16 -23 -63 12 -93 40 -33 82 -40 159 -26 84 15 108
25 121 50 21 39 4 57 -64 69 -78 14 -205 14 -228 0z"/>
</g>
</svg>
